<?xml version="1.0" encoding="UTF-8"?>
<svg width="512px" height="512px" viewBox="0 0 512 512" version="1.1" xmlns="http://www.w3.org/2000/svg" xmlns:xlink="http://www.w3.org/1999/xlink">
    <!-- Generator: Sketch 47.1 (45422) - http://www.bohemiancoding.com/sketch -->
    <title>SSDC-LOGO@1x</title>
    <desc>Created with Sketch.</desc>
    <defs></defs>
    <g id="比翼平台" stroke="none" stroke-width="1" fill="none" fill-rule="evenodd">
        <g id="SSDC-LOGO">
            <g id="butterfly" transform="translate(47.000000, 16.000000)">
                <path d="M115.468501,432.390203 C172.075338,410.608108 155.413869,401.311273 168.293864,383.302365 C175.466013,373.274212 104.247786,423.336149 74.769158,423.493806 C56.6523171,423.590699 48.1418438,385.666861 48.8161574,374.95214 C50.8657444,342.384572 132.735889,365.026769 119.719496,353.910473 C109.210145,344.935248 90.0290543,337.164963 67.0234624,335.467342 C23.5456538,332.259043 15.0921576,343.721847 29.2171576,400.135135 C43.3421576,456.548423 65.0277227,451.799621 115.468501,432.390203 Z" id="Oval" fill="#A764F3"></path>
                <path d="M221.536736,461.486486 C216.511993,445.514059 213.016627,426.085602 216.360756,411.887669 C217.74893,405.993998 225.531955,444.895918 245.537147,451.627252 C261.752241,457.083297 287.092593,443.189752 284.595977,430.457489 C282.099361,417.725225 259.792882,399.6875 228.004603,388.364302 C221.609969,386.08649 227.24351,378.389871 228.004603,378.095439 C243.203598,372.215653 275.822594,373.332181 303.819641,388.364302 C308.344758,390.793919 310.924313,395.243525 313.831409,400.083052 C316.738505,404.922579 294.02717,396.061374 284.595977,397.612613 C275.164784,399.163851 319.325863,427.840138 303.819641,444.496059 C271.194939,479.539696 228.004603,494.766329 221.536736,461.486486 Z" id="Oval-Copy" fill="#A764F3"></path>
                <path d="M108.152966,314.501689 C234.229481,339.953594 122.2864,430.622185 141.958499,421.173986 C148.177595,418.187053 178.973032,405.506069 183.743083,391.368243 C187.805708,379.32714 189.368904,355.019707 187.805708,343.096847 C185.225722,323.4187 183.442917,321.502294 135.750697,305.092905 C117.966857,298.974047 67.5353328,282.903526 60.3883111,260.025338 C45.7609235,213.201899 61.4229449,95.8699324 88.3740297,107.761824 C140.302089,130.674552 212.312784,292.235684 213.933021,285.033784 C218.52435,264.605939 206.430359,172.190697 141.958499,88.2657658 C82.6082332,11.0077642 20.4340167,-55.9684685 6.22599067,73.8884609 C-16.2954499,279.727408 31.7025279,299.068131 108.152966,314.501689 Z" id="Oval-8" fill="#12A4FF"></path>
                <path d="M304.102336,374.301552 C259.606009,359.988444 223.288905,347.135208 230.003583,328.048986 C236.726889,309.009201 298.36671,224.467812 380.465856,189.157717 C453.5885,157.708333 472.875423,189.157717 427.435883,265.746059 C383.284656,340.162949 348.430191,387.551301 304.102336,374.301552 Z M291.257837,354.268018 C320.434616,363.036847 350.084711,326.545916 385.994302,270.548986 C418.318173,220.143581 405.604548,195.605293 356.167048,220.540541 C298.439114,249.657311 256.769108,304.034347 248.30929,322.863176 C239.849473,341.692005 257.834669,344.222973 291.257837,354.268018 Z" id="Oval-8-Copy" fill="#39E2E3"></path>
            </g>
        </g>
    </g>
</svg>