<?xml version="1.0" encoding="utf-8"?>
<!-- Generator: Adobe Illustrator 16.0.0, SVG Export Plug-In . SVG Version: 6.00 Build 0)  -->
<!DOCTYPE svg PUBLIC "-//W3C//DTD SVG 1.1//EN" "http://www.w3.org/Graphics/SVG/1.1/DTD/svg11.dtd">
<svg version="1.1" id="图层_1" xmlns="http://www.w3.org/2000/svg" xmlns:xlink="http://www.w3.org/1999/xlink" x="0px" y="0px"
	 width="100.781px" height="74.275px" viewBox="0 0 100.781 74.275" enable-background="new 0 0 100.781 74.275"
	 xml:space="preserve">
<g>
	<path fill="#272636" d="M93.25,0.066c-0.019-0.004-0.036-0.006-0.055-0.007c-0.072-0.008-0.146-0.016-0.219-0.022
		c-0.068-0.007-0.136-0.012-0.204-0.017c-0.052-0.004-0.105-0.007-0.157-0.009C92.487,0.004,92.358,0,92.229,0H8.565
		C8.437,0,8.309,0.004,8.179,0.011C8.125,0.013,8.073,0.017,8.018,0.02C7.952,0.024,7.887,0.029,7.822,0.037
		C7.745,0.043,7.667,0.051,7.59,0.06L7.558,0.064C3.308,0.579,0,4.316,0,8.847v56.583c0,4.518,3.299,8.257,7.545,8.78
		c0.017,0.002,0.033,0.004,0.05,0.006c0.075,0.009,0.149,0.016,0.223,0.023c0.068,0.006,0.134,0.012,0.202,0.016
		c0.053,0.003,0.105,0.006,0.158,0.01c0.128,0.006,0.257,0.01,0.386,0.01h83.662c0.128,0,0.258-0.004,0.386-0.01
		c0.052-0.003,0.103-0.007,0.155-0.01c0.07-0.006,0.141-0.011,0.21-0.016c0.071-0.008,0.142-0.015,0.211-0.021
		c0.026-0.003,0.05-0.007,0.075-0.011c4.227-0.531,7.517-4.266,7.517-8.777V8.845C100.784,4.321,97.485,0.589,93.25,0.066
		L93.25,0.066z M68.35,37.141l27.827-25.662v51.319L68.35,37.141L68.35,37.141z M4.607,11.478l27.833,25.659L4.607,62.798V11.478
		L4.607,11.478z M5.669,6.083c0.689-0.776,1.648-1.258,2.684-1.317h0.005c0.069-0.004,0.139-0.004,0.207-0.004v0h83.662
		c0.163,0,0.322,0.012,0.481,0.03c0.925,0.12,1.777,0.582,2.408,1.291L50.396,47.313L5.669,6.083L5.669,6.083z M8.565,69.514
		c-1.115,0-2.159-0.502-2.896-1.32l30.232-27.866L48.866,52.28c0.44,0.4,0.981,0.605,1.529,0.605c0.548,0,1.098-0.205,1.539-0.605
		l12.955-11.949l30.225,27.863c-0.739,0.818-1.782,1.32-2.887,1.32H8.565L8.565,69.514z M8.565,69.514"/>
</g>
</svg>
