<?xml version="1.0" encoding="UTF-8"?>
<svg width="512px" height="512px" viewBox="0 0 512 512" version="1.1" xmlns="http://www.w3.org/2000/svg" xmlns:xlink="http://www.w3.org/1999/xlink">
    <!-- Generator: Sketch 47.1 (45422) - http://www.bohemiancoding.com/sketch -->
    <title>ctsi_brokenline_2</title>
    <desc>Created with Sketch.</desc>
    <defs></defs>
    <g id="icon图标库" stroke="none" stroke-width="1" fill="none" fill-rule="evenodd">
        <g id="ctsi_brokenline_2" fill-rule="nonzero" fill="#000000">
            <g id="图表-走势图">
                <path d="M472.243764,432.676783 C472.243764,454.303592 454.548616,471.999926 432.920621,471.999926 L79.0153048,471.999926 C57.3884959,471.999926 39.6921622,454.304779 39.6921622,432.676783 L39.6921622,336.728695 L177.322271,199.098586 L275.235893,297.012209 C287.032658,308.022285 300.009455,312.740635 315.345131,297.012209 L472.24317,59.7248297 L472.24317,174.92483 L511.566313,174.92483 L511.566313,0.125181924 L346.364737,0.125181924 L346.364737,39.4483244 L451.469497,39.4483244 L295.289919,271.060394 L196.196264,171.966739 C184.006155,160.169975 170.243263,161.34882 158.446498,171.966739 L39.6927555,290.720482 L39.6927555,78.7708737 C39.6927555,57.1440649 57.3879027,39.4477312 79.015898,39.4477312 L272.634364,39.4477312 L272.634364,0.124588644 L79.015898,0.124588644 C35.7605006,0.124588644 0.370206257,35.514883 0.370206257,78.7702804 L0.370206257,432.675597 C0.370206257,475.930994 35.7605006,511.321289 79.015898,511.321289 L432.921214,511.321289 C476.176612,511.321289 511.566906,475.930994 511.566906,432.675597 L511.566906,241.73816 L472.243764,241.73816 L472.243764,432.675597 L472.243764,432.676783 Z" id="Shape"></path>
            </g>
        </g>
    </g>
</svg>