<?xml version="1.0" encoding="UTF-8"?>
<svg width="512px" height="512px" viewBox="0 0 512 512" version="1.1" xmlns="http://www.w3.org/2000/svg" xmlns:xlink="http://www.w3.org/1999/xlink">
    <!-- Generator: Sketch 47.1 (45422) - http://www.bohemiancoding.com/sketch -->
    <title>ctsi_brokenline_curve</title>
    <desc>Created with Sketch.</desc>
    <defs></defs>
    <g id="icon图标库" stroke="none" stroke-width="1" fill="none" fill-rule="evenodd">
        <g id="ctsi_brokenline_curve" fill-rule="nonzero" fill="#000000">
            <g id="曲线图" transform="translate(0.000000, 9.000000)">
                <path d="M494.592,89.604 C431.072,92.772 432.576,216.164 417.216,260.356 C397.344,317.444 347.968,366.212 281.504,346.5 C224.864,329.764 187.648,220.356 118.624,261.86 C71.328,290.308 47.616,352.484 36.128,404.292 C36,404.804 35.776,405.252 35.68,405.7 L35.68,459.172 L476.96,459.172 C486.688,459.172 494.624,467.076 494.624,476.836 C494.624,486.564 486.72,494.5 476.96,494.5 L18.048,494.5 C8.32,494.5 0.384,486.596 0.384,476.836 L0.384,17.924 C0.384,8.196 8.288,0.26 18.048,0.26 C27.776,0.26 35.712,8.164 35.712,17.924 L35.712,303.716 C48.416,280.612 64.192,259.428 83.904,242.98 C143.808,193.028 206.144,228.388 247.744,279.3 C274.048,311.556 325.536,332.772 359.296,294.98 C385.44,265.796 391.424,222.948 399.072,185.924 C410.656,129.636 424.864,57.796 494.56,54.34 C517.344,53.188 517.248,88.484 494.592,89.604 L494.592,89.604 Z" id="Shape"></path>
            </g>
        </g>
    </g>
</svg>