<?xml version="1.0" encoding="UTF-8"?>
<svg width="512px" height="512px" viewBox="0 0 512 512" version="1.1" xmlns="http://www.w3.org/2000/svg" xmlns:xlink="http://www.w3.org/1999/xlink">
    <!-- Generator: Sketch 47.1 (45422) - http://www.bohemiancoding.com/sketch -->
    <title>ctsi_brokenline_1</title>
    <desc>Created with Sketch.</desc>
    <defs></defs>
    <g id="icon图标库" stroke="none" stroke-width="1" fill="none" fill-rule="evenodd">
        <g id="ctsi_brokenline_1" fill-rule="nonzero" fill="#000000">
            <g id="折线图" transform="translate(0.000000, 9.000000)">
                <path d="M103.340581,306.150525 L158.465748,255.605885 L228.886478,319.582408 C233.312156,323.619965 238.902197,325.638494 244.570162,325.638494 C249.539309,325.638494 254.508457,324.08551 258.623438,320.902119 L453.735899,172.684862 C463.906966,164.920944 465.925495,150.324199 458.161577,140.075707 C450.397659,129.90464 435.800913,127.886111 425.552421,135.650029 L245.812948,272.143235 L173.994583,206.847001 C165.143727,198.772386 151.478572,198.772386 142.627715,206.924425 L71.8178654,271.833038 C62.3456156,280.529046 61.724722,295.28064 70.4202302,304.75289 C79.1157385,314.22514 93.8683317,314.846533 103.340581,306.150525 Z" id="Shape"></path>
                <path d="M488.208234,447.845651 L46.5845073,447.845651 L46.5845073,23.4590907 C46.5845073,10.5706771 36.1806673,0.166837073 23.2922537,0.166837073 C10.40384,0.166837073 0,10.5706771 0,23.4590907 L0,471.138404 C0,484.026818 10.40384,494.430658 23.2922537,494.430658 C23.3312156,494.430658 23.3691785,494.42766 23.4081405,494.42766 C23.447602,494.42766 23.4860644,494.430658 23.5255259,494.430658 L488.13081,494.430658 C501.019223,494.430658 511.500987,484.026818 511.500987,471.138404 C511.500488,458.24999 501.096148,447.845651 488.208234,447.845651 Z" id="Shape"></path>
            </g>
        </g>
    </g>
</svg>