<?xml version="1.0" encoding="UTF-8"?>
<svg width="512px" height="512px" viewBox="0 0 512 512" version="1.1" xmlns="http://www.w3.org/2000/svg" xmlns:xlink="http://www.w3.org/1999/xlink">
    <!-- Generator: Sketch 47.1 (45422) - http://www.bohemiancoding.com/sketch -->
    <title>ctsi_brokenline</title>
    <desc>Created with Sketch.</desc>
    <defs></defs>
    <g id="icon图标库" stroke="none" stroke-width="1" fill="none" fill-rule="evenodd">
        <g id="ctsi_brokenline" fill-rule="nonzero" fill="#000000">
            <g id="图表预测表" transform="translate(0.000000, 55.000000)">
                <path d="M327.314286,113.350178 C321.828571,113.350178 318.171429,115.178407 314.514286,118.834864 L224.914286,208.418069 L186.514286,170.025267 C182.857143,166.36881 177.371429,164.540581 173.714286,164.540581 C168.228571,164.540581 164.571429,166.36881 160.914286,170.025267 L84.1142857,246.810872 C76.8,254.123786 76.8,265.093158 84.1142857,272.406073 C91.4285714,279.718988 102.4,279.718988 109.714286,272.406073 L173.714286,208.418069 L212.114286,246.810872 C215.771429,250.467329 221.257143,252.295558 224.914286,252.295558 C230.4,252.295558 234.057143,250.467329 237.714286,246.810872 L327.314286,157.227666 L365.714286,195.620469 C369.371429,199.276926 374.857143,201.105155 378.514286,201.105155 C384,201.105155 387.657143,199.276926 391.314286,195.620469 L442.514286,144.430066 C449.828571,137.117151 449.828571,126.147779 442.514286,118.834864 C435.2,111.521949 424.228571,111.521949 416.914286,118.834864 L378.514286,157.227666 L340.114286,118.834864 C338.285714,115.178407 332.8,113.350178 327.314286,113.350178 Z M475.428571,54.8468604 C475.428571,43.8774883 468.114286,36.5645736 457.142857,36.5645736 L54.8571429,36.5645736 C43.8857143,36.5645736 36.5714286,43.8774883 36.5714286,54.8468604 L36.5714286,347.363449 C36.5714286,358.332821 43.8857143,365.645736 54.8571429,365.645736 L457.142857,365.645736 C468.114286,365.645736 475.428571,358.332821 475.428571,347.363449 L475.428571,54.8468604 Z M512,54.8468604 L512,347.363449 C512,378.443336 488.228571,402.210309 457.142857,402.210309 L54.8571429,402.210309 C23.7714286,402.210309 0,378.443336 0,347.363449 L0,54.8468604 C0,23.7669728 23.7714286,0 54.8571429,0 L457.142857,0 C488.228571,0 512,23.7669728 512,54.8468604 Z" id="Shape"></path>
            </g>
        </g>
    </g>
</svg>