<?xml version="1.0" encoding="UTF-8"?>
<svg width="512px" height="512px" viewBox="0 0 512 512" version="1.1" xmlns="http://www.w3.org/2000/svg" xmlns:xlink="http://www.w3.org/1999/xlink">
    <!-- Generator: Sketch 47.1 (45422) - http://www.bohemiancoding.com/sketch -->
    <title>ctsi_chartlist</title>
    <desc>Created with Sketch.</desc>
    <defs></defs>
    <g id="icon图标库" stroke="none" stroke-width="1" fill="none" fill-rule="evenodd">
        <g id="ctsi_chartlist" fill-rule="nonzero" fill="#000000">
            <g id="图列表" transform="translate(0.000000, 94.000000)">
                <path d="M27.1045958,0 L107.858156,0 C124.008867,0 134.776009,10.7671413 134.776009,26.9178532 L134.776009,107.671413 C134.776009,123.822125 124.008867,134.589266 107.858156,134.589266 L27.1045958,134.589266 C10.9538839,134.589266 0.186742607,123.822125 0.186742607,107.671413 L0.186742607,26.9178532 C0.186742607,10.7671413 10.9538839,0 27.1045958,0 Z M27.1045958,188.424973 L107.858156,188.424973 C124.008867,188.424973 134.776009,199.192114 134.776009,215.342826 L134.776009,296.096386 C134.776009,312.247097 124.008867,323.014239 107.858156,323.014239 L27.1045958,323.014239 C10.9538839,323.014239 0.186742607,312.247097 0.186742607,296.096386 L0.186742607,215.342826 C0.186742607,199.192114 10.9538839,188.424973 27.1045958,188.424973 Z M215.529568,0 L296.283128,0 C312.43384,0 323.200981,10.7671413 323.200981,26.9178532 L323.200981,107.671413 C323.200981,123.822125 312.43384,134.589266 296.283128,134.589266 L215.529568,134.589266 C199.378857,134.589266 188.611715,123.822125 188.611715,107.671413 L188.611715,26.9178532 C188.611715,10.7671413 199.378857,0 215.529568,0 L215.529568,0 Z M215.529568,188.424973 L296.283128,188.424973 C312.43384,188.424973 323.200981,199.192114 323.200981,215.342826 L323.200981,296.096386 C323.200981,312.247097 312.43384,323.014239 296.283128,323.014239 L215.529568,323.014239 C199.378857,323.014239 188.611715,312.247097 188.611715,296.096386 L188.611715,215.342826 C188.611715,199.192114 199.378857,188.424973 215.529568,188.424973 L215.529568,188.424973 Z M403.954541,0 L484.708101,0 C500.858813,0 511.625954,10.7671413 511.625954,26.9178532 L511.625954,107.671413 C511.625954,123.822125 500.858813,134.589266 484.708101,134.589266 L403.954541,134.589266 C387.803829,134.589266 377.036688,123.822125 377.036688,107.671413 L377.036688,26.9178532 C377.036688,10.7671413 387.803829,0 403.954541,0 Z M403.954541,188.424973 L484.708101,188.424973 C500.858813,188.424973 511.625954,199.192114 511.625954,215.342826 L511.625954,296.096386 C511.625954,312.247097 500.858813,323.014239 484.708101,323.014239 L403.954541,323.014239 C387.803829,323.014239 377.036688,312.247097 377.036688,296.096386 L377.036688,215.342826 C377.036688,199.192114 387.803829,188.424973 403.954541,188.424973 Z" id="Shape"></path>
            </g>
        </g>
    </g>
</svg>