<?xml version="1.0" encoding="UTF-8"?>
<svg width="512px" height="512px" viewBox="0 0 512 512" version="1.1" xmlns="http://www.w3.org/2000/svg" xmlns:xlink="http://www.w3.org/1999/xlink">
    <!-- Generator: Sketch 47.1 (45422) - http://www.bohemiancoding.com/sketch -->
    <title>ctsi_classification</title>
    <desc>Created with Sketch.</desc>
    <defs></defs>
    <g id="icon图标库" stroke="none" stroke-width="1" fill="none" fill-rule="evenodd">
        <g id="ctsi_classification" fill-rule="nonzero" fill="#000000">
            <g id="图表视图">
                <path d="M34.5930415,206.351515 C34.5930415,206.523906 91.8841751,206.523906 206.408979,206.466442 C206.581369,206.466442 206.581369,149.175309 206.523906,34.6505051 C206.523906,34.4781145 149.232772,34.4781145 34.7079686,34.535578 C34.535578,34.535578 34.4781145,91.769248 34.5930415,206.351515 Z M0.172390572,34.5930415 C0.172390572,15.572615 15.2278339,0.114927048 34.6505051,0.114927048 L206.351515,0.114927048 C225.371942,0.114927048 240.82963,15.1703704 240.82963,34.5930415 L240.82963,206.294052 C240.82963,225.314478 225.774186,240.772166 206.351515,240.772166 L34.6505051,240.772166 C15.6300786,240.772166 0.172390572,225.716723 0.172390572,206.294052 L0.172390572,34.5930415 Z M305.303704,206.351515 C305.303704,206.523906 362.594837,206.523906 477.119641,206.466442 C477.292031,206.466442 477.292031,149.175309 477.234568,34.6505051 C477.234568,34.4781145 419.943434,34.4781145 305.418631,34.535578 C305.24624,34.535578 305.24624,91.769248 305.303704,206.351515 Z M270.940516,34.5930415 C270.940516,15.572615 285.99596,0.114927048 305.418631,0.114927048 L477.119641,0.114927048 C496.140067,0.114927048 511.597755,15.1703704 511.597755,34.5930415 L511.597755,206.294052 C511.597755,225.314478 496.542312,240.772166 477.119641,240.772166 L305.418631,240.772166 C286.398204,240.772166 270.940516,225.716723 270.940516,206.294052 L270.940516,34.5930415 Z M34.5930415,477.062177 C34.5930415,477.234568 91.8841751,477.234568 206.408979,477.177104 C206.581369,477.177104 206.581369,419.885971 206.523906,305.361167 C206.523906,305.188777 149.232772,305.188777 34.7079686,305.24624 C34.535578,305.24624 34.4781145,362.537374 34.5930415,477.062177 Z M0.172390572,305.361167 C0.172390572,286.340741 15.2278339,270.883053 34.6505051,270.883053 L206.351515,270.883053 C225.371942,270.883053 240.82963,285.938496 240.82963,305.361167 L240.82963,477.062177 C240.82963,496.082604 225.774186,511.540292 206.351515,511.540292 L34.6505051,511.540292 C15.6300786,511.540292 0.172390572,496.484848 0.172390572,477.062177 L0.172390572,305.361167 Z M305.303704,477.062177 C305.303704,477.234568 362.594837,477.234568 477.119641,477.177104 C477.292031,477.177104 477.292031,419.885971 477.234568,305.361167 C477.234568,305.188777 419.943434,305.188777 305.418631,305.24624 C305.24624,305.24624 305.24624,362.537374 305.303704,477.062177 Z M270.940516,305.361167 C270.940516,286.340741 285.99596,270.883053 305.418631,270.883053 L477.119641,270.883053 C496.140067,270.883053 511.597755,285.938496 511.597755,305.361167 L511.597755,477.062177 C511.597755,496.082604 496.542312,511.540292 477.119641,511.540292 L305.418631,511.540292 C286.398204,511.540292 270.940516,496.484848 270.940516,477.062177 L270.940516,305.361167 Z" id="Shape"></path>
            </g>
        </g>
    </g>
</svg>