<?xml version="1.0" encoding="UTF-8"?>
<svg width="512px" height="512px" viewBox="0 0 512 512" version="1.1" xmlns="http://www.w3.org/2000/svg" xmlns:xlink="http://www.w3.org/1999/xlink">
    <!-- Generator: Sketch 47.1 (45422) - http://www.bohemiancoding.com/sketch -->
    <title>ctsi_gesture_click1</title>
    <desc>Created with Sketch.</desc>
    <defs></defs>
    <g id="icon图标库" stroke="none" stroke-width="1" fill="none" fill-rule="evenodd">
        <g id="ctsi_gesture_click1" fill-rule="nonzero" fill="#000000">
            <g id="手势双击" transform="translate(93.000000, 0.000000)">
                <path d="M76.4414185,313.461477 C76.4414185,313.461477 78.3777429,310.895144 81.4328452,309.886544 C84.4891198,308.883219 87.0607268,308.928345 87.0607268,308.928345 C87.0607268,308.928345 86.8181001,305.812879 88.2199429,302.10667 C90.0859407,297.150406 93.5846864,289.396318 95.1986805,278.359153 C96.387785,270.271014 97.1443819,260.435261 97.5979881,250.219744 C98.1424325,238.192146 99.4534366,223.78927 97.23522,211.19906 C94.1795313,194.028833 88.8247512,180.690817 82.47192,164.349272 C77.7119848,152.120658 71.9645477,136.698632 68.5355428,124.933587 C61.7097656,101.546494 55.6077656,80.2838484 56.9797189,66.2472556 C57.8968941,56.8041584 63.6953182,51.0567213 69.4234156,49.3495444 C90.3162605,43.1256449 97.2047457,68.4185875 109.00261,90.7009678 C115.335516,102.678751 124.562945,115.101935 129.402583,124.557925 C135.090242,135.691204 137.136745,141.920377 137.136745,141.920377 C137.136745,141.920377 149.187784,128.248897 159.19115,120.950759 C164.374216,117.157228 169.345717,111.381074 173.046652,109.583645 C178.168768,107.102876 191.772853,107.022587 198.367725,114.265049 C210.739923,127.838073 216.156239,154.729772 216.156239,154.729772 C216.156239,154.729772 227.20747,153.524844 234.528463,162.431115 C242.153033,171.688433 244.047748,176.457745 251.289038,195.191565 C251.289038,195.191565 262.280491,188.763132 272.30261,198.886639 C280.562463,207.227953 285.452502,223.224898 291.553916,240.715111 C295.748308,252.730401 303.504154,258.639589 303.504154,277.229826 C303.504154,298.380535 305.75226,323.611355 306.821223,347.61029 C307.537382,363.48768 306.235755,378.825313 308.827874,392.090658 C311.671411,406.788906 308.313318,398.847281 324.094595,428.604788 C326.546061,433.238135 327.816041,444.966259 321.583937,453.895386 C295.346274,491.518331 195.504262,541.102062 161.420501,490.349738 C153.202844,478.102369 148.815639,464.575644 140.839437,456.49278 C127.820821,443.28311 108.973893,443.207509 93.0408273,428.604788 C64.7654532,402.689455 34.3216772,382.743088 26.6478784,366.861596 C25.2061844,363.861583 23.1995332,351.99222 19.9422419,339.548524 C17.743951,331.128678 12.9441647,323.082149 11.2897323,315.730094 C6.63177049,295.149616 1.55888251,289.749124 1.27699043,280.008311 C1.04491297,272.490403 7.06486522,259.595444 5.41101931,248.687797 C4.71537281,244.114227 1.77103434,235.23257 0.762434434,228.623047 C-0.911337664,217.693716 2.51708191,207.312346 11.4714093,205.956215 C18.6710897,204.867912 25.4482246,206.924377 33.7778181,214.807397 C43.8819846,224.367705 52.9670025,238.779959 57.1016173,249.504757 C61.0445923,259.739614 58.0996679,269.187985 58.0996679,269.187985 C58.0996679,269.187985 60.9443766,271.739667 63.092267,278.621706 C63.9092271,281.223788 64.9072777,286.725082 65.9457667,289.481883 C68.5173743,296.249055 70.3218358,301.305534 71.3603247,304.90508 C72.3185241,308.202809 71.3603247,310.047709 71.3603247,310.047709 L76.4414185,313.461477 L76.4414185,313.461477 Z M74.534983,32.060349 C54.6794546,32.060349 38.5858102,48.159854 38.5858102,68.0224146 C38.5858102,87.8732548 54.6794546,103.972173 74.534983,103.972173 C94.3899255,103.972173 110.484742,87.8732548 110.484742,68.0224146 C110.484741,48.159854 94.3905114,32.060349 74.534983,32.060349 L74.534983,32.060349 Z M119.802423,68.0224152 C119.802423,93.0158836 99.5331402,113.277548 74.534983,113.277548 C49.5368258,113.277548 29.2786782,93.0158842 29.2786782,68.0224152 C29.2786782,43.0172252 49.5368258,22.7555611 74.534983,22.7555611 C99.5331402,22.7555611 119.802423,43.0172252 119.802423,68.0224152 L119.802423,68.0224152 Z M74.534983,8.74885727 C41.8026638,8.74885727 15.2825231,35.2877519 15.2825231,68.0230011 C15.2825231,100.745357 41.8026638,127.286596 74.534983,127.286596 C107.267888,127.286596 133.799164,100.745357 133.799164,68.0230011 C133.799164,35.2871654 107.267888,8.74885727 74.534983,8.74885727 L74.534983,8.74885727 Z M142.309262,68.0224152 C142.309262,105.449617 111.956324,135.792006 74.534983,135.792006 C37.1030925,135.792006 6.760704,105.449617 6.760704,68.0224152 C6.760704,30.5834919 37.1030925,0.240517441 74.534983,0.240517441 C111.956324,0.240516868 142.309262,30.5834919 142.309262,68.0224152 L142.309262,68.0224152 Z" id="Shape"></path>
            </g>
        </g>
    </g>
</svg>