<?xml version="1.0" standalone="no"?><!DOCTYPE svg PUBLIC "-//W3C//DTD SVG 1.1//EN" "http://www.w3.org/Graphics/SVG/1.1/DTD/svg11.dtd"><svg class="icon" width="200px" height="200.00px" viewBox="0 0 1024 1024" version="1.1" xmlns="http://www.w3.org/2000/svg"><path fill="#000000" d="M606.293 694.144c46.379-9.984 40.064-65.408 38.699-77.525-2.261-18.688-24.235-51.328-54.101-48.768-37.547 3.37-43.008 57.6-43.008 57.6-5.12 25.088 12.117 78.677 58.41 68.693z m49.238 96.427c-1.366 3.882-4.395 13.866-1.75 22.528 5.163 19.498 22.102 20.352 22.102 20.352h24.277v-59.392h-26.027c-11.69 3.541-17.322 12.629-18.602 16.512z m36.864-189.398c25.642 0 46.336-29.482 46.336-65.962 0-36.438-20.694-65.92-46.336-65.92-25.558 0-46.336 29.482-46.336 65.92-0.043 36.48 20.736 65.962 46.336 65.962z m110.336 4.352c34.261 4.438 56.277-32.085 60.629-59.818 4.48-27.648-17.621-59.819-41.856-65.323-24.277-5.59-54.613 33.323-57.387 58.71-3.328 31.06 4.438 62.037 38.614 66.431z m83.925 162.859s-52.992-41.003-83.925-85.29c-41.942-65.323-101.504-38.742-121.43-5.505-19.84 33.238-50.773 54.23-55.125 59.819-4.437 5.461-64 37.632-50.773 96.341 13.226 58.667 59.648 57.558 59.648 57.558s34.218 3.37 73.898-5.504c39.723-8.79 73.899 2.218 73.899 2.218s92.757 31.062 118.144-28.757c25.344-59.861-14.336-90.88-14.336-90.88z m-158.72 89.003h-60.288c-26.027-5.206-36.395-22.955-37.717-25.984-1.28-3.072-8.662-17.366-4.779-41.643 11.264-36.437 43.35-39.04 43.35-39.04h32.085v-39.467l27.349 0.427v145.707z m112.299-0.427h-69.376c-26.88-6.912-28.16-26.027-28.16-26.027v-76.757l28.16-0.47V822.7c1.706 7.338 10.837 8.704 10.837 8.704h28.587v-77.184h29.952V856.96z m98.261-204.885c0-13.27-11.008-53.163-51.84-53.163-40.875 0-46.379 37.675-46.379 64.299 0 25.386 2.134 60.885 52.95 59.733 50.816-1.11 45.269-57.557 45.269-70.87z m-473.984 86.357c4.181 9.173 10.624 16.384 19.37 21.675 8.747 5.29 18.134 7.936 28.118 7.936 9.984 0 19.37-2.646 28.117-7.936 8.747-5.291 15.36-12.502 19.798-21.675l3.328-7.083c-12.886-5.333-24.619-13.61-34.091-25.173-22.101-27.05-27.733-62.635-23.552-86.912 3.968-33.408 25.216-88.832 81.621-93.91a77.411 77.411 0 0 1 6.998-0.298c3.242 0 6.4 0.17 9.514 0.555 3.883-56.192 41.43-98.944 88.704-98.944 4.608 0 8.96 0.938 13.312 1.706l5.888-12.458c9.174-19.456 13.739-44.288 13.739-74.582 0-58.88-20.821-109.184-62.507-150.826C621.184 148.82 570.88 128 512 128c-58.88 0-109.184 20.821-150.827 62.507-41.685 41.642-62.506 91.946-62.506 150.826 0 30.294 4.565 55.168 13.738 74.582l152.107 322.517z m-27.947-472.533c20.822-20.822 45.952-31.232 75.435-31.232 29.44 0 54.57 10.41 75.435 31.232 20.821 20.821 31.232 45.952 31.232 75.392 0 29.44-10.411 54.57-31.232 75.434-20.822 20.822-45.995 31.232-75.435 31.232-29.44 0-54.57-10.41-75.435-31.232-20.821-20.821-31.232-45.952-31.232-75.434 0-29.398 10.411-54.528 31.232-75.392zM558.976 896H85.333L256 640h114.901l20.139 42.667H278.827L165.035 853.333H536.96c5.333 17.536 12.928 31.616 22.016 42.667z"  /></svg>