<?xml version="1.0" standalone="no"?><!DOCTYPE svg PUBLIC "-//W3C//DTD SVG 1.1//EN" "http://www.w3.org/Graphics/SVG/1.1/DTD/svg11.dtd"><svg class="icon" width="200px" height="200.00px" viewBox="0 0 1024 1024" version="1.1" xmlns="http://www.w3.org/2000/svg"><path fill="#000000" d="M692.01 545.195c0 39.808 13.313 68.565 39.553 85.461 21.461 13.824 46.421 15.915 59.349 15.915 3.157 0 5.675-0.128 7.424-0.256 0 0-4.096 26.752 15.744 53.248h-0.896c-34.39 0-146.517 7.168-146.517 99.37 0 93.782 102.997 98.56 123.648 98.56 1.621 0 2.56-0.042 2.56-0.042 0.213 0 1.706 0.042 4.224 0.042 13.269 0 47.53-1.664 79.36-17.152 41.301-20.053 62.208-54.912 62.208-103.594 0-47.062-31.915-75.094-55.211-95.531-14.208-12.459-26.496-23.253-26.496-33.707 0-10.666 8.96-18.688 20.31-28.842 18.389-16.427 35.669-39.808 35.669-84.011 0-38.87-5.035-64.939-36.096-81.493 3.242-1.664 14.677-2.859 20.352-3.627 16.81-2.304 41.429-4.907 41.429-18.645v-2.646H816c-1.195-0.042-123.99 4.523-123.99 116.95z m197.974 240.341c2.347 37.504-29.739 65.195-77.91 68.693-48.938 3.584-89.215-18.432-91.562-55.893-1.152-18.005 6.784-35.627 22.272-49.707 15.701-14.25 37.29-22.997 60.757-24.746 2.774-0.171 5.504-0.299 8.278-0.299 45.269 0 75.946 26.624 78.165 61.952z m-32.043-265.984c12.032 42.325-6.144 86.57-35.072 94.72a37.77 37.77 0 0 1-10.24 1.408c-26.538 0-52.821-26.837-62.549-63.787-5.419-20.778-4.992-38.912 1.237-56.362 6.144-17.152 17.152-28.758 31.019-32.683a37.77 37.77 0 0 1 10.24-1.408c32.043 0 52.65 13.27 65.365 58.112z m-393.429 218.88c4.181 9.173 10.624 16.384 19.37 21.675 8.747 5.29 18.134 7.936 28.118 7.936 9.984 0 19.37-2.646 28.117-7.936 8.747-5.291 15.36-12.502 19.798-21.675l81.578-173.483c-0.597-6.314-1.109-12.757-1.109-19.712 0-67.328 32.597-111.488 73.813-137.685 6.998-18.176 11.136-39.723 11.136-66.176 0-58.88-20.821-109.184-62.506-150.827C621.184 148.821 570.88 128 512 128c-58.88 0-109.184 20.821-150.827 62.507-41.685 41.642-62.506 91.946-62.506 150.826 0 30.294 4.565 55.168 13.738 74.582l152.107 322.517z m-27.947-472.533c20.822-20.822 45.952-31.232 75.435-31.232 29.44 0 54.57 10.41 75.435 31.232 20.821 20.821 31.232 45.952 31.232 75.392 0 29.44-10.411 54.57-31.232 75.434-20.822 20.822-45.995 31.232-75.435 31.232-29.44 0-54.57-10.41-75.435-31.232-20.821-20.821-31.232-45.952-31.232-75.434 0-29.398 10.411-54.528 31.232-75.392z m196.736 416.768L653.355 640h14.378a131.712 131.712 0 0 0 31.318 31.019c-7.339 3.498-14.123 7.424-20.608 11.648H633.3zM651.776 896H85.333L256 640h114.901l20.139 42.667H278.827L165.035 853.333h460.458c6.358 16.342 15.019 30.678 26.283 42.667z"  /></svg>