<?xml version="1.0" standalone="no"?><!DOCTYPE svg PUBLIC "-//W3C//DTD SVG 1.1//EN" "http://www.w3.org/Graphics/SVG/1.1/DTD/svg11.dtd"><svg class="icon" width="200px" height="200.00px" viewBox="0 0 1024 1024" version="1.1" xmlns="http://www.w3.org/2000/svg"><path fill="#000000" d="M511.924 961.079c-156.26 0-313.93-42.388-313.93-137.089 0-73.927 107.986-119.78 208.341-131.090l5.492-0.63-138.697-222.103c-4.471-8.010-8.689-16.51-12.413-25.113l-3.656-7.395-0.577-2.96c-12.191-31.573-18.362-64.626-18.362-98.205 0-150.964 122.849-273.79 273.836-273.79s273.819 122.825 273.819 273.79c0 33.614-6.19 66.65-18.413 98.205l-1.836 4.744h0.171l-1.41 2.908c-3.997 9.42-8.416 18.466-13.212 27.035l-239.269 397.093-56.672-92.56-2.141 0.186c-91.8 7.871-150.342 33.207-165.696 47.318l-2.773 2.551 2.773 2.568c20.029 18.601 97.037 48.032 219.122 48.898l10.899 0.017-0.017-0.017c121.862-0.85 199.022-30.212 219.221-48.779l2.84-2.618-2.891-2.551c-11.205-9.929-52.030-29.515-114.822-41.010l48.221-77.226c100.625 22.679 156.006 65.494 156.006 120.733-0.001 94.704-157.672 137.089-313.946 137.089zM511.917 188.798c-64.367 0-116.726 52.397-116.726 116.788 0 64.336 52.355 116.678 116.726 116.678 64.411 0 116.808-52.341 116.808-116.678 0-64.392-52.399-116.788-116.808-116.788z" /></svg>