<?xml version="1.0" standalone="no"?><!DOCTYPE svg PUBLIC "-//W3C//DTD SVG 1.1//EN" "http://www.w3.org/Graphics/SVG/1.1/DTD/svg11.dtd"><svg class="icon" width="200px" height="200.00px" viewBox="0 0 1024 1024" version="1.1" xmlns="http://www.w3.org/2000/svg"><path fill="#000000" d="M761.6 198.4c-137.6-137.6-361.6-137.6-499.2 0-137.6 137.6-137.6 358.4 0 496l227.2 224c12.8 12.8 32 12.8 44.8 0l22.4-22.4 211.2-211.2c131.2-137.6 128-352-6.4-486.4z m-160 742.4l-22.4 22.4c-38.4 38.4-99.2 38.4-134.4 0l-227.2-224c-163.2-163.2-163.2-425.6 0-585.6s425.6-163.2 588.8 0c163.2 163.2 163.2 425.6 0 585.6l-9.6 9.6-195.2 192z m-89.6-332.8c-105.6 0-192-86.4-192-192s86.4-192 192-192 192 86.4 192 192-86.4 192-192 192z m0-64c70.4 0 128-57.6 128-128s-57.6-128-128-128-128 57.6-128 128 57.6 128 128 128z" /></svg>