<?xml version="1.0" encoding="UTF-8"?>
<svg width="512px" height="512px" viewBox="0 0 512 512" version="1.1" xmlns="http://www.w3.org/2000/svg" xmlns:xlink="http://www.w3.org/1999/xlink">
    <!-- Generator: Sketch 47.1 (45422) - http://www.bohemiancoding.com/sketch -->
    <title>ctsi_dashboard</title>
    <desc>Created with Sketch.</desc>
    <defs></defs>
    <g id="icon图标库" stroke="none" stroke-width="1" fill="none" fill-rule="evenodd">
        <g id="ctsi_dashboard" fill-rule="nonzero" fill="#000000">
            <g id="仪表图" transform="translate(0.000000, 36.000000)">
                <path d="M491.364453,156.615667 C477.890252,125.088482 459.768658,97.8604588 436.908406,75.0215674 C414.11806,52.2098612 386.911396,34.0643183 355.294241,20.5901167 C323.767056,7.11591506 290.660534,0.3538944 256.043933,0.3538944 C221.451282,0.3538944 188.347349,7.11591506 156.771619,20.5901167 C125.24767,34.0643183 98.0196466,52.2105085 75.1807551,75.0215674 C52.3664599,97.8365099 34.223506,125.064533 20.7493044,156.615667 C7.25050659,188.211463 0.489780464,221.294036 0.489780464,255.908047 C0.489780464,291.292956 7.34371334,324.747709 21.0289247,356.320203 C34.7102524,387.868101 53.7147215,415.445002 78.0850517,439.048966 L434.005404,439.048966 C458.375087,415.445002 477.379556,387.844799 491.061531,356.320203 C504.769397,324.724407 511.600028,291.292956 511.600028,255.908047 C511.600675,221.315396 504.839302,188.21211 491.364453,156.615667 L491.364453,156.615667 Z M242.966508,55.0895616 L269.193853,55.0895616 L269.193853,101.880647 L242.966508,101.880647 L242.966508,55.0895616 L242.966508,55.0895616 Z M102.037893,245.640417 L55.8532987,237.114588 L60.4288442,211.445189 L106.616675,219.992378 L102.037893,245.640417 L102.037893,245.640417 Z M146.553181,146.392699 L116.304352,110.427836 L136.282962,93.9088808 L166.461885,129.849794 L146.553181,146.392699 L146.553181,146.392699 Z M294.542207,304.675246 C292.056046,315.152591 286.247453,323.331484 277.141671,329.231342 C268.011292,335.109841 258.112606,336.806333 247.496744,334.365481 C236.832985,331.903269 228.654093,326.093382 222.986604,316.964298 C215.018074,303.653208 214.786351,290.15441 222.383349,276.471788 L178.474553,169.208288 L257.186363,257.050477 C271.263173,257.44337 282.090043,263.531583 289.710343,275.286638 C295.401133,284.415075 297.029015,294.197253 294.542207,304.675246 L294.542207,304.675246 Z M365.58582,146.392699 L345.605916,129.850441 L375.854098,93.909528 L395.809405,110.428484 L365.58582,146.392699 L365.58582,146.392699 Z M410.05321,245.640417 L405.522326,219.971018 L451.707568,211.397291 L456.261106,237.04533 L410.05321,245.640417 L410.05321,245.640417 Z" id="Shape"></path>
            </g>
        </g>
    </g>
</svg>