<?xml version="1.0" encoding="UTF-8"?>
<svg width="512px" height="512px" viewBox="0 0 512 512" version="1.1" xmlns="http://www.w3.org/2000/svg" xmlns:xlink="http://www.w3.org/1999/xlink">
    <!-- Generator: Sketch 47.1 (45422) - http://www.bohemiancoding.com/sketch -->
    <title>ctsi_database_set</title>
    <desc>Created with Sketch.</desc>
    <defs></defs>
    <g id="icon图标库" stroke="none" stroke-width="1" fill="none" fill-rule="evenodd">
        <g id="ctsi_database_set" fill-rule="nonzero" fill="#000000">
            <g id="数据库配置">
                <path d="M428.9536,95.4624 C428.9536,148.1728 332.928,190.9248 214.4768,190.9248 C96.0256,190.9248 0,148.1728 0,95.4624 C0,42.752 96.0256,0 214.4768,0 C332.928,0 428.9536,42.752 428.9536,95.4624 Z M264.1408,446.08 C249.238189,442.248298 237.894389,430.146249 235.0336,415.0272 C228.185683,415.335748 221.331664,415.489387 214.4768,415.488 C96,415.4624 0,372.7616 0,320 L0,392.9856 C0,445.7216 96,488.448 214.4768,488.448 C231.5264,488.448 248.0128,487.4752 263.936,485.7856 C256.831662,473.483844 256.909939,458.307816 264.1408,446.08 L264.1408,446.08 Z" id="Shape"></path>
                <path d="M214.4768,389.2736 C221.184,389.2736 227.7632,389.0944 234.3168,388.8384 L234.3168,377.8816 C234.3168,359.552 246.8352,343.7824 264.3456,339.4304 C259.847713,331.840593 258.018356,322.964158 259.1488,314.2144 C244.736,315.5712 229.8112,316.288 214.4768,316.288 C96,316.3136 0,273.6128 0,220.8512 L0,293.8368 C0.0256,346.5472 96,389.2736 214.4768,389.2736 L214.4768,389.2736 Z" id="Shape"></path>
                <path d="M214.4768,290.0992 C235.648,290.0992 256.1024,288.6912 275.4304,286.1312 L291.456,270.1056 C304.181876,257.315716 323.953431,254.766586 339.5072,263.9104 C344.087676,246.482627 359.836347,234.329447 377.856,234.3168 L407.6032,234.3168 C408.1408,234.3168 408.6784,234.4448 409.1904,234.4448 C421.7344,222.336 428.9024,208.8704 428.9024,194.6368 L428.9024,121.6512 C428.9024,174.3872 332.9024,217.1136 214.4256,217.1136 C95.9488,217.1136 0.0256,174.3872 0.0256,121.6512 L0.0256,194.6368 C0.0256,247.3728 96,290.0992 214.4768,290.0992 Z M512,407.6288 L512,377.8816 L476.5952,372.096 C474.542304,363.821218 471.263368,355.9 466.8672,348.5952 L487.5008,319.2064 L466.4576,298.1632 L437.4272,319.0528 C430.09506,314.614632 422.13887,311.300991 413.824,309.2224 L407.6288,273.9968 L377.8816,273.9968 L372.1472,309.12 C363.6992,311.1936 355.712,314.4704 348.4672,318.8224 L319.5136,298.1632 L298.4704,319.2064 L318.848,348.3136 C314.366897,355.684813 311.03481,363.695632 308.9664,372.0704 L273.9968,377.8816 L273.9968,407.6288 L308.9408,413.824 C311.0144,422.3232 314.368,430.3104 318.8224,437.6064 L298.1632,466.4576 L319.2064,487.5264 L348.3648,467.1232 C355.6608,471.5008 363.6224,474.8032 372.0448,476.8768 L377.8816,512 L407.6288,512 L413.8752,476.7744 C422.272,474.6752 430.208,471.296 437.4272,466.9184 L466.7904,487.5264 L487.808,466.4576 L466.8416,437.3504 C471.1936,430.1056 474.4704,422.2208 476.544,413.7984 L512,407.6288 Z M392.9856,434.4832 C370.060039,434.4832 351.4752,415.898361 351.4752,392.9728 C351.4752,370.047239 370.060039,351.4624 392.9856,351.4624 C415.911161,351.4624 434.496,370.047239 434.496,392.9728 C434.496,415.898361 415.911161,434.4832 392.9856,434.4832 Z" id="Shape"></path>
            </g>
        </g>
    </g>
</svg>