<?xml version="1.0" encoding="UTF-8"?>
<svg width="512px" height="512px" viewBox="0 0 512 512" version="1.1" xmlns="http://www.w3.org/2000/svg" xmlns:xlink="http://www.w3.org/1999/xlink">
    <!-- Generator: Sketch 47.1 (45422) - http://www.bohemiancoding.com/sketch -->
    <title>ctsi_database_line</title>
    <desc>Created with Sketch.</desc>
    <defs></defs>
    <g id="icon图标库" stroke="none" stroke-width="1" fill="none" fill-rule="evenodd">
        <g id="ctsi_database_line" fill-rule="nonzero" fill="#000000">
            <g id="数据库-2" transform="translate(11.000000, 0.000000)">
                <path d="M465.938421,45.7437493 C453.121053,36.46983 435.171579,28.2484721 412.58,21.335704 C367.654737,7.56706301 308.132632,0 245,0 C181.867368,0 122.345263,7.59551061 77.42,21.335704 C54.8026316,28.2484721 36.8531579,36.46983 24.0615789,45.7437493 C8.09789474,57.3219247 0,70.6069563 0,85.3143683 L0,426.685632 C0,441.393044 8.09789474,454.706523 24.0615789,466.256251 C36.8789474,475.53017 54.8284211,483.751528 77.42,490.664296 C122.345263,504.432937 181.867368,512 245,512 C308.132632,512 367.654737,504.404489 412.58,490.635848 C435.197368,483.72308 453.146842,475.501722 465.938421,466.227803 C481.902105,454.678075 490,441.364596 490,426.657184 L490,85.2859207 C490,70.5785087 481.902105,57.2650294 465.938421,45.7153017 L465.938421,45.7437493 Z M84.3315789,48.7307479 C127.090526,35.6448494 184.136842,28.4191577 245,28.4191577 C305.863158,28.4191577 362.935263,35.6448494 405.668421,48.7307479 C451.960526,62.9261029 464.210526,78.8567619 464.210526,85.3143683 C464.210526,91.7719747 451.986316,107.702634 405.668421,121.897989 C362.909474,134.983887 305.863158,142.209579 245,142.209579 C184.136842,142.209579 127.064737,134.983887 84.3315789,121.897989 C38.0394737,107.702634 25.7894737,91.7719747 25.7894737,85.3143683 C25.7894737,78.8567619 38.0136842,62.9261029 84.3315789,48.7307479 Z M405.668421,463.269252 C362.909474,476.355151 305.863158,483.580842 245,483.580842 C184.136842,483.580842 127.064737,476.355151 84.3315789,463.269252 C38.0394737,449.073897 25.7894737,433.143238 25.7894737,426.685632 L25.7894737,353.689077 C38.4778947,362.479387 55.8084211,370.27403 77.42,376.902322 C122.345263,390.670963 181.867368,398.238026 245,398.238026 C308.132632,398.238026 367.654737,390.642516 412.58,376.873875 C434.191579,370.245583 451.547895,362.450939 464.210526,353.660629 L464.210526,426.657184 C464.210526,433.114791 451.986316,449.045449 405.668421,463.240805 L405.668421,463.269252 Z M405.668421,349.478831 C362.909474,362.564729 305.863158,369.790421 245,369.790421 C184.136842,369.790421 127.064737,362.564729 84.3315789,349.478831 C38.0394737,335.283476 25.7894737,319.352817 25.7894737,312.895211 L25.7894737,239.898655 C38.4778947,248.688965 55.8084211,256.483609 77.42,263.111901 C122.345263,276.880542 181.867368,284.447605 245,284.447605 C308.132632,284.447605 367.654737,276.852095 412.58,263.111901 C434.191579,256.483609 451.547895,248.688965 464.210526,239.898655 L464.210526,312.895211 C464.210526,319.352817 451.986316,335.283476 405.668421,349.478831 Z M405.668421,235.68841 C362.909474,248.774308 305.863158,256 245,256 C184.136842,256 127.064737,248.774308 84.3315789,235.68841 C38.0394737,221.493055 25.7894737,205.562396 25.7894737,199.104789 L25.7894737,126.108234 C38.4778947,134.898544 55.8084211,142.693188 77.42,149.32148 C122.345263,163.090121 181.867368,170.657184 245,170.657184 C308.132632,170.657184 367.654737,163.061674 412.58,149.32148 C434.191579,142.693188 451.547895,134.898544 464.210526,126.108234 L464.210526,199.104789 C464.210526,205.562396 451.986316,221.493055 405.668421,235.68841 Z" id="Shape"></path>
            </g>
        </g>
    </g>
</svg>