<?xml version="1.0" encoding="UTF-8"?>
<svg width="512px" height="512px" viewBox="0 0 512 512" version="1.1" xmlns="http://www.w3.org/2000/svg" xmlns:xlink="http://www.w3.org/1999/xlink">
    <!-- Generator: Sketch 47.1 (45422) - http://www.bohemiancoding.com/sketch -->
    <title>ctsi_database_query</title>
    <desc>Created with Sketch.</desc>
    <defs></defs>
    <g id="icon图标库" stroke="none" stroke-width="1" fill="none" fill-rule="evenodd">
        <g id="ctsi_database_query" fill-rule="nonzero" fill="#000000">
            <g id="数据库查询">
                <path d="M408.331102,140.286998 C408.160437,140.98185 407.977581,141.676703 407.758154,142.371555 C407.697202,142.5666 407.63625,142.773838 407.563108,142.981074 C407.404633,143.48088 407.246158,143.980686 407.075492,144.480492 C407.00235,144.687728 406.917017,144.894965 406.843875,145.114392 C406.782923,145.285058 406.69759,145.480104 406.624448,145.650769 C406.441592,146.126194 406.283117,146.601619 406.07588,147.064854 C406.002738,147.223329 405.929596,147.381804 405.856453,147.56466 C405.710169,147.905991 405.551694,148.259512 405.393218,148.600843 C405.320076,148.747128 405.259124,148.893413 405.185982,149.051887 C405.051887,149.320076 404.929984,149.600455 404.795889,149.868643 C404.734938,149.978357 404.673986,150.112451 404.613033,150.222165 C404.466749,150.502544 404.332654,150.795113 404.18637,151.075492 C404.040085,151.343681 403.905991,151.624059 403.759706,151.880057 C403.686564,152.001961 403.613422,152.136055 403.540279,152.257959 C403.284281,152.721194 403.040473,153.172238 402.772285,153.611093 C402.589429,153.940233 402.394383,154.257183 402.199336,154.574133 C402.00429,154.878893 401.821434,155.195843 401.626388,155.500603 C401.38258,155.854124 401.163153,156.219836 400.907155,156.561167 C400.73649,156.817165 400.578014,157.073163 400.395158,157.316971 C399.956304,157.987442 399.480879,158.633533 399.005454,159.279623 C399.005454,159.291814 398.981073,159.291814 398.981073,159.304004 C398.493457,159.950095 398.005842,160.596185 397.493845,161.242276 C397.445084,161.291038 397.396322,161.36418 397.347561,161.412942 C397.250038,161.534846 397.152515,161.644559 397.067182,161.766463 C396.725851,162.180936 396.37233,162.6076 396.018808,163.022073 C395.994427,163.058644 395.957856,163.083025 395.933476,163.119596 C395.872524,163.192739 395.787192,163.290262 395.726239,163.363404 C394.933864,164.277683 394.104917,165.191963 393.263781,166.094051 C393.25159,166.094051 393.25159,166.106242 393.25159,166.106242 C391.593697,167.849467 389.838281,169.568312 387.948771,171.250586 C387.93658,171.250586 387.93658,171.262776 387.92439,171.262776 C387.034491,172.067342 386.108022,172.859717 385.157171,173.652093 L384.901173,173.859329 C382.92633,175.492841 380.841774,177.114163 378.659694,178.686723 C389.399427,181.015088 399.736877,184.452777 409.53795,188.865698 L409.53795,140.262617 L408.331102,140.286998 L408.331102,140.286998 Z" id="Shape"></path>
                <path d="M204.800365,0 C91.6979355,0 0.0018285,41.264467 0.0018285,92.1593415 C0.0018285,92.951717 0.0262095,93.744092 0.0627805,94.5364675 C0.111542,95.206939 0.172494,95.8774105 0.233446,96.5356915 L0.233446,96.5356915 C4.5732245,138.324345 70.7670375,172.847528 158.550029,181.965938 C167.839106,182.928979 177.37199,183.59945 187.099921,183.977352 C192.939118,184.20897 198.839265,184.318683 204.812556,184.318683 C206.79959,184.318683 208.786623,184.306493 210.749276,184.282112 C224.573178,184.099256 238.043557,183.319072 251.062893,181.965938 C267.26392,180.283665 282.733524,177.723683 297.215706,174.420087 C298.459126,174.139708 299.678165,173.847139 300.897203,173.55457 C310.332564,171.299348 319.329072,168.727176 327.813582,165.838053 C329.471475,165.289486 331.092797,164.716537 332.689738,164.131399 C336.151808,162.887979 339.528547,161.595798 342.79557,160.254855 C345.136125,159.291815 347.415728,158.316583 349.646569,157.304781 C351.86522,156.305169 354.010729,155.281177 356.131856,154.244994 C357.094896,153.769569 358.033556,153.294143 358.972216,152.806528 C362.092956,151.209587 365.116172,149.551694 367.993104,147.845039 C368.017485,147.820658 368.054056,147.796278 368.090627,147.784087 C372.23536,145.309438 376.111903,142.761647 379.708068,140.116332 C380.573586,139.470242 381.439104,138.824151 382.26805,138.16587 C385.596026,135.569317 388.655814,132.887431 391.447413,130.132403 C392.154455,129.425361 392.824927,128.718318 393.495398,128.011276 C396.104142,125.231867 398.432506,122.391506 400.44392,119.478003 C401.394771,118.063918 402.28467,116.649833 403.113615,115.211367 C404.015704,113.638807 404.844651,112.041866 405.551693,110.432735 C405.953977,109.530646 406.319688,108.628557 406.673209,107.726468 C408.050724,104.044971 408.965002,100.314712 409.367285,96.5113105 C409.452618,95.840839 409.50138,95.182558 409.537951,94.5120865 C409.586712,93.7440925 409.598903,92.951717 409.598903,92.1593415 C409.598903,41.264467 317.914986,0 204.800365,0" id="Shape"></path>
                <path d="M229.242096,439.646383 C227.389157,439.743906 225.536217,439.85362 223.671088,439.914572 C223.171282,439.938953 222.683666,439.963333 222.183861,439.975524 C219.587308,440.073047 216.990755,440.15838 214.35763,440.219332 C213.930967,440.219332 213.492113,440.231522 213.065449,440.231522 C210.322612,440.280284 207.555394,440.316855 204.788175,440.316855 C202.008767,440.316855 199.253739,440.280284 196.510901,440.231522 C196.072047,440.231522 195.645384,440.219332 195.20653,440.207141 C192.597786,440.15838 189.989043,440.073047 187.39249,439.975524 C186.892684,439.951143 186.405069,439.938953 185.917453,439.914572 C183.29652,439.804858 180.687776,439.682954 178.103414,439.53667 C177.786464,439.512289 177.469514,439.487908 177.152563,439.475718 C174.580391,439.317243 172.008219,439.146577 169.460428,438.939341 C169.265382,438.92715 169.070335,438.90277 168.875289,438.90277 C166.278736,438.683343 163.694374,438.451725 161.122202,438.207918 C160.695538,438.159156 160.281065,438.110395 159.854401,438.073823 C157.330991,437.817825 154.844151,437.549637 152.369502,437.244877 C151.97941,437.208306 151.589317,437.159544 151.199225,437.110782 C148.639243,436.806023 146.103642,436.464692 143.580232,436.11117 C143.50709,436.09898 143.421757,436.09898 143.336424,436.086789 C140.813013,435.721078 138.289603,435.330985 135.790573,434.928702 C135.546765,434.892131 135.302957,434.85556 135.059149,434.818989 C132.608881,434.416706 130.195184,434.002233 127.793677,433.551188 C127.440156,433.490236 127.086635,433.417094 126.733113,433.343952 C124.331607,432.917288 121.954481,432.454053 119.613926,431.966438 C119.370118,431.905486 119.150691,431.856724 118.919074,431.807963 C114.030728,430.79616 109.239905,429.686835 104.558796,428.504367 C104.327178,428.443415 104.095561,428.382463 103.876134,428.333702 C101.596531,427.748563 99.36569,427.151234 97.147039,426.541715 C96.891041,426.468572 96.6350425,426.39543 96.3790445,426.334478 C94.136013,425.688388 91.9051715,425.042297 89.7109015,424.371826 C89.6499495,424.347445 89.601188,424.335255 89.540236,424.310874 C87.248443,423.603831 85.005411,422.896789 82.7867605,422.153175 C82.7623795,422.140984 82.737999,422.128794 82.713618,422.128794 C80.555919,421.409561 78.459172,420.665947 76.3746155,419.910143 C76.264902,419.861381 76.1308075,419.82481 76.021094,419.788239 L76.0332845,419.788239 C35.232053,404.964726 7.352633,383.16831 1.269629,358.39744 L0.0018285,358.39744 L0.0018285,419.837001 C0.0018285,461.17461 60.478349,496.148837 143.799658,507.83942 L143.799658,507.83942 C143.811849,507.83942 143.811849,507.83942 143.824039,507.83942 C145.969548,508.131989 148.139437,508.424558 150.309326,508.680557 C150.833513,508.753699 151.3577,508.826841 151.881887,508.887793 C154.039586,509.143791 156.197284,509.387599 158.379364,509.619217 C158.415935,509.631407 158.440316,509.631407 158.464697,509.631407 C160.683347,509.875215 162.914188,510.070261 165.145029,510.277498 C165.681406,510.326259 166.229974,510.375021 166.778541,510.411592 C169.009382,510.606638 171.228033,510.777304 173.471065,510.947969 L173.544207,510.947969 C175.81162,511.106444 178.091222,511.228348 180.383016,511.350253 C180.943774,511.386823 181.516722,511.423395 182.07748,511.447776 C184.357083,511.557489 186.648876,511.667203 188.952859,511.728154 C188.96505,511.740345 188.98943,511.740345 189.001621,511.740345 C191.305604,511.813487 193.64616,511.874439 195.974524,511.923201 C196.559662,511.935391 197.144801,511.935391 197.74213,511.959772 C200.094876,511.971962 202.43543,511.996343 204.800365,511.996343 C207.15311,511.996343 209.518046,511.971962 211.846411,511.947581 C212.431549,511.9232 213.016688,511.9232 213.601826,511.91101 C215.930191,511.862249 218.258555,511.801297 220.562538,511.728154 C220.586919,511.728154 220.59911,511.728154 220.6113,511.715964 C222.915283,511.642821 225.207076,511.533108 227.48668,511.435585 C228.047438,511.411204 228.620385,511.374633 229.181144,511.338062 C231.472937,511.216158 233.75254,511.082064 236.019952,510.935779 L236.093095,510.935779 C238.348317,510.765113 240.579158,510.594448 242.785618,510.399402 C243.334185,510.362831 243.870563,510.314069 244.41913,510.265307 C246.649971,510.058071 248.880812,509.863024 251.099463,509.619217 C251.123844,509.619217 251.148224,509.619217 251.184796,509.607026 C253.366875,509.375409 255.524574,509.131601 257.682273,508.875603 C258.206459,508.814651 258.730646,508.741508 259.267023,508.668366 C261.436913,508.412368 263.606802,508.119799 265.764501,507.827229 C265.764501,507.827229 265.776691,507.827229 265.788882,507.827229 C292.168884,504.121351 316.257093,498.087108 336.85885,490.260879 C294.411916,488.078799 256.341331,469.013031 229.242096,439.646383 L229.242096,439.646383 Z" id="Shape"></path>
                <path d="M0.111542,313.634331 C0.148113,314.121946 0.1846845,314.609562 0.233446,315.097177 C0.270017,315.353175 0.294398,315.621364 0.330969,315.877363 C0.3797305,316.352787 0.4406825,316.803832 0.513825,317.267067 C0.550396,317.523065 0.5991575,317.791253 0.635729,318.035061 C0.7210615,318.534867 0.830775,319.034673 0.9282985,319.534479 C0.9648695,319.741716 1.013631,319.936762 1.0502025,320.156189 C1.2086775,320.863232 1.379343,321.558084 1.574389,322.265127 C1.59877,322.326079 1.6231505,322.399222 1.635341,322.472364 C1.8060065,323.094074 2.0010525,323.727974 2.2082895,324.349684 C2.2692415,324.581301 2.354574,324.800728 2.439907,325.020155 C2.598382,325.49558 2.7690475,325.958815 2.9519035,326.446431 C3.0494265,326.690239 3.1347595,326.921855 3.2322825,327.177854 C3.4273285,327.641089 3.6101845,328.092133 3.805231,328.543178 C3.902754,328.786986 4.0124675,329.018602 4.122181,329.26241 C4.341608,329.762216 4.585416,330.274213 4.8292235,330.761828 C4.914556,330.944684 4.999889,331.12754 5.0852215,331.310396 C5.438743,331.980868 5.792264,332.651339 6.1579755,333.334 C6.2189275,333.431523 6.2798795,333.541237 6.328641,333.62657 C6.6577815,334.187328 6.986922,334.760276 7.328253,335.333224 C7.4623475,335.552651 7.5964415,335.747697 7.730536,335.967124 C8.010915,336.418169 8.3034845,336.881403 8.6204345,337.344638 C8.766719,337.564065 8.925194,337.783492 9.0836695,338.01511 C9.388429,338.466155 9.7053795,338.917199 10.03452,339.368243 C10.1808045,339.58767 10.3270895,339.782716 10.4855645,340.002143 C10.875657,340.526329 11.27794,341.050517 11.692413,341.562513 C11.789936,341.696607 11.887459,341.818511 11.972792,341.940415 C12.4969785,342.586505 13.033356,343.244786 13.594114,343.890877 C13.6794465,343.988401 13.7647795,344.085923 13.850112,344.171256 C14.313347,344.719824 14.788772,345.256201 15.2763875,345.792578 C15.447053,345.975435 15.6177185,346.15829 15.788384,346.341146 C16.2150475,346.804381 16.641711,347.255425 17.080565,347.706469 C17.275611,347.901515 17.4706575,348.084371 17.6535135,348.291608 C18.104558,348.742653 18.579983,349.193697 19.043218,349.656931 C19.2138835,349.815406 19.384549,349.973882 19.5552145,350.156737 C20.1525435,350.717495 20.762063,351.278253 21.383773,351.851201 C21.4325345,351.899963 21.4691055,351.948724 21.5300575,351.985296 C22.2371,352.619196 22.9441425,353.253096 23.675566,353.862616 C23.773089,353.947948 23.870612,354.021091 23.9681355,354.106424 C24.5898455,354.63061 25.211555,355.154797 25.857646,355.666794 C26.040502,355.813078 26.235548,355.959363 26.418404,356.117838 C26.9913525,356.568883 27.5643005,357.019927 28.1494395,357.458781 C28.356676,357.629447 28.5517225,357.763541 28.758959,357.922016 C29.380669,358.397441 30.014569,358.860676 30.6484695,359.323911 C30.8069445,359.433624 30.9654195,359.555528 31.136085,359.665242 C32.7817875,360.8599 34.488442,362.017987 36.2560485,363.163883 C36.329191,363.212645 36.4145235,363.261407 36.4998565,363.310168 C37.2800415,363.834354 38.084607,364.33416 38.889173,364.833966 C39.072029,364.95587 39.2548845,365.065584 39.4377405,365.175297 C40.181354,365.626342 40.924968,366.065196 41.6685815,366.51624 C41.8636275,366.625954 42.0464835,366.735667 42.24153,366.845381 C43.058286,367.320806 43.8872325,367.796231 44.7283695,368.271656 C44.838083,368.332608 44.9477965,368.39356 45.05751,368.454512 C47.0201625,369.551647 49.0559575,370.648782 51.140514,371.709346 C51.177085,371.733727 51.2258465,371.758108 51.2867985,371.782489 C52.249839,372.270105 53.2250705,372.745529 54.212492,373.245336 C54.370967,373.318478 54.5172515,373.39162 54.675727,373.476953 C55.590006,373.915807 56.516476,374.354661 57.4551355,374.781325 C57.60142,374.854467 57.7355145,374.927609 57.8939895,375.000752 C62.270339,377.024356 66.841735,378.950438 71.6081775,380.791187 C71.7057005,380.827758 71.8276045,380.876519 71.9251275,380.925281 C73.0466435,381.339754 74.1803495,381.766418 75.326246,382.193082 C75.387198,382.229653 75.4603405,382.254034 75.5334825,382.278414 C80.47059,384.070401 85.602744,385.789246 90.905563,387.386187 L91.027467,387.422758 C107.143162,392.286724 124.867987,396.138886 143.775281,398.796391 L143.775281,398.796391 C143.775281,398.796391 143.787471,398.796391 143.799662,398.796391 C144.433562,398.881724 145.067462,398.967057 145.689172,399.052389 C146.932592,399.223054 148.176012,399.381529 149.419431,399.540005 C149.69981,399.576575 149.99238,399.613147 150.284949,399.649718 C150.809135,399.722861 151.333322,399.796002 151.857509,399.844764 C152.015984,399.869145 152.150078,399.881335 152.296363,399.905716 C153.868923,400.100762 155.453674,400.271427 157.038424,400.429902 C157.489469,400.490854 157.928323,400.539616 158.354986,400.588377 C158.391557,400.600568 158.415938,400.600568 158.452509,400.600568 C159.122981,400.67371 159.805642,400.722472 160.476114,400.795614 C161.682962,400.917518 162.889811,401.039422 164.10885,401.136945 C164.450181,401.173516 164.791512,401.210087 165.132842,401.246658 C165.669219,401.29542 166.217787,401.331991 166.766354,401.380753 C166.900449,401.405134 167.022352,401.405134 167.156447,401.417324 C168.985005,401.575799 170.825754,401.709893 172.666503,401.843987 C172.922501,401.856178 173.202879,401.880558 173.471068,401.904939 L173.544211,401.904939 C174.226873,401.965891 174.897344,401.990272 175.580006,402.039034 C176.823425,402.112176 178.066845,402.197509 179.322455,402.270651 C179.688167,402.282842 180.029497,402.307222 180.395209,402.331603 C180.955967,402.355984 181.528915,402.392555 182.089673,402.429126 C182.175005,402.429126 182.272529,402.429126 182.357862,402.429126 C184.222991,402.52665 186.112502,402.611983 188.002012,402.672934 C188.318962,402.697316 188.648102,402.709505 188.965052,402.721696 C188.989433,402.733886 189.001623,402.733886 189.013814,402.733886 C189.672095,402.746077 190.330376,402.758267 190.988657,402.782648 C192.232076,402.819219 193.475496,402.8436 194.718916,402.880171 C195.145579,402.880171 195.560053,402.660744 195.986716,402.672934 C196.559664,402.697316 197.156993,402.477889 197.742132,402.477889 L197.827465,402.477889 C197.864035,402.477889 197.608038,402.721697 197.608038,402.721697 L197.608038,402.83141 C200.253352,402.855791 201.960007,402.928933 203.849516,402.941124 C193.317021,381.815179 187.380301,357.934207 187.380301,332.761054 C187.380301,332.127154 187.392492,331.834584 187.392492,330.810591 L187.380301,330.810591 C186.880495,330.810591 186.392879,330.859352 185.905264,330.847162 C183.284331,330.737448 180.687778,330.652116 178.091225,330.505831 C177.774275,330.49364 177.457325,330.49364 177.140374,330.457069 C174.568202,330.310785 172.00822,330.15231 169.448239,329.945073 C169.265383,329.932882 169.058146,329.920692 168.87529,329.908502 C166.266547,329.689075 163.694375,329.469648 161.122203,329.21365 C160.695539,329.164888 160.268876,329.128317 159.854402,329.091746 C157.343182,328.835748 154.844152,328.567559 152.381694,328.262799 C151.991601,328.226228 151.589318,328.177467 151.199226,328.128705 C148.651435,327.823945 146.103644,327.482614 143.580233,327.141283 C143.507091,327.129093 143.421758,327.116903 143.336425,327.104713 C140.800824,326.739001 138.289604,326.348908 135.790574,325.958816 C135.546766,325.910055 135.302959,325.873484 135.059151,325.836912 C132.608883,325.44682 130.182995,325.020156 127.781488,324.569112 C127.427966,324.50816 127.074445,324.447208 126.733115,324.374066 C124.331608,323.923021 121.954482,323.471977 119.601737,322.972171 C119.37012,322.9356 119.138502,322.886839 118.906885,322.825887 C114.018539,321.814084 109.227716,320.704759 104.546607,319.522291 C104.314989,319.461339 104.083372,319.412577 103.863945,319.339435 C101.596532,318.766486 99.3535005,318.156968 97.14704,317.559638 C96.891042,317.486495 96.6350435,317.401163 96.3790455,317.340211 C94.136014,316.69412 91.9051725,316.06022 89.7109025,315.389748 C89.662141,315.365367 89.601189,315.353178 89.540237,315.328797 C87.248444,314.621754 85.005412,313.914712 82.7867615,313.171098 C82.7623805,313.158907 82.738,313.146717 82.713619,313.146717 C80.5681105,312.415293 78.459173,311.939868 76.3746165,311.196254 C76.3502355,311.171873 76.325855,311.196254 76.289284,311.196254 L76.289284,311.196254 C76.2039515,311.232825 76.106428,311.318158 76.033286,311.318158 L76.033286,311.318158 C73.595208,310.403879 71.205892,309.465219 68.865337,308.514368 C68.7556235,308.465607 68.6337195,308.429036 68.524006,308.380274 C66.207832,307.417234 63.9282295,306.442002 61.697388,305.45458 C61.5876745,305.393628 61.44139,305.344867 61.3316765,305.283915 C59.1008355,304.284303 56.9065655,303.24812 54.773247,302.211937 C54.675724,302.163175 54.5660105,302.114414 54.4684875,302.053462 C52.2498365,300.956327 50.0799475,299.834811 47.9832005,298.713295 C47.97101,298.713295 47.9588195,298.713295 47.9588195,298.713295 C45.9839765,297.628351 44.057895,296.543406 42.180575,295.434081 C42.058671,295.360938 41.924577,295.287796 41.802673,295.214654 C37.816416,292.849718 34.0861565,290.39945 30.611896,287.88823 C30.611896,287.88823 30.611896,287.88823 30.5997055,287.876039 C16.800185,277.87992 7.1332065,266.676953 2.708095,254.68161 C2.110766,253.084669 1.61096,251.475538 1.208677,249.866407 L0.0018285,249.866406 L0.0018285,310.806161 C0.0018285,311.525394 0.0262095,312.232436 0.0627805,312.951669 C0.074971,313.158906 0.0993515,313.402714 0.111542,313.634331 L0.111542,313.634331 Z" id="Shape"></path>
                <path d="M0.111542,204.56692 C0.148113,205.054536 0.1846845,205.554342 0.233446,206.054147 C0.270017,206.310146 0.294398,206.566144 0.3187785,206.822142 C0.36754,207.297567 0.4406825,207.772992 0.5138245,208.224036 C0.5503955,208.480034 0.599157,208.736033 0.6357285,208.97984 C0.721061,209.491837 0.8307745,210.016023 0.940488,210.540211 C0.977059,210.723066 1.0136305,210.905922 1.0502015,211.088778 C1.3671515,212.527244 1.7694345,213.953519 2.232669,215.367604 C2.26924,215.501699 2.3180015,215.635793 2.3667635,215.782077 C2.5618095,216.367216 2.7690465,216.952355 3.0006635,217.525303 C3.0616155,217.671587 3.110377,217.805682 3.171329,217.951966 C3.427327,218.561486 3.671135,219.183196 3.9393235,219.792715 C3.9637045,219.865858 4.0002755,219.939 4.049037,220.024333 C18.8481695,253.14562 73.1075915,279.842572 143.799658,289.765549 L143.799658,289.765549 L143.824039,289.765549 C145.969548,290.058118 148.139436,290.350687 150.309326,290.606686 C150.833513,290.679828 151.3577,290.74078 151.881886,290.801732 C154.039585,291.05773 156.197284,291.313728 158.379364,291.545345 C158.415935,291.545345 158.440315,291.557536 158.476887,291.557536 C160.683347,291.789153 162.914188,291.99639 165.157219,292.191436 C165.705787,292.252388 166.254355,292.288959 166.790731,292.33772 C169.009383,292.532766 171.240224,292.703432 173.483255,292.861907 C173.507636,292.874097 173.532016,292.874097 173.556398,292.874097 C175.82381,293.032572 178.103412,293.154476 180.395206,293.27638 C180.955964,293.312951 181.528912,293.337332 182.08967,293.361713 C182.114051,293.373903 182.150622,293.373903 182.187193,293.373903 C185.527359,293.544569 188.904097,293.666473 192.293025,293.776186 C199.412213,265.933338 213.955347,241.028373 233.691587,221.328704 C233.264924,221.353085 232.85045,221.389656 232.423787,221.401846 C232.143407,221.426227 231.863028,221.450608 231.570459,221.462798 L231.485127,221.462798 C230.619609,221.51156 229.754092,221.548131 228.888574,221.596893 C227.157538,221.694416 225.426503,221.779749 223.695468,221.852891 C223.256614,221.865081 222.81776,221.889462 222.391097,221.901652 C222.330145,221.901652 222.269192,221.901652 222.20824,221.913843 L222.025385,221.913843 C219.489783,222.011366 216.941992,222.084508 214.382011,222.14546 C213.955347,222.157651 213.516493,222.157651 213.08983,222.169841 C210.334802,222.218603 207.579774,222.255174 204.800365,222.255174 C202.020957,222.255174 199.265929,222.218603 196.523091,222.169841 C196.084237,222.169841 195.657574,222.157651 195.21872,222.14546 C192.609976,222.096699 190.001233,222.023556 187.40468,221.913843 C187.282776,221.913843 187.148682,221.901652 187.026778,221.901652 C186.661067,221.889462 186.283164,221.865081 185.929643,221.852891 C183.966991,221.779748 182.028718,221.670035 180.066066,221.572512 C179.419975,221.535941 178.773885,221.51156 178.115604,221.474989 C178.054652,221.474989 177.993699,221.474989 177.920558,221.462798 C177.664559,221.450608 177.408561,221.438417 177.164754,221.414037 C176.299236,221.377466 175.458099,221.304323 174.592581,221.243371 C172.885927,221.133658 171.179273,221.023944 169.484808,220.88985 C169.338524,220.877659 169.192239,220.877659 169.045954,220.865469 C168.997193,220.853278 168.948432,220.853278 168.887479,220.853278 C167.388061,220.731374 165.913025,220.59728 164.437988,220.450995 C163.328662,220.353472 162.231527,220.255949 161.134392,220.146236 C160.988108,220.134045 160.841822,220.121855 160.695538,220.109665 C160.415159,220.085284 160.13478,220.048713 159.866592,220.024332 C157.355371,219.768334 154.856341,219.500146 152.393883,219.219767 C152.198837,219.195386 152.015981,219.171005 151.833125,219.146624 C151.625889,219.122243 151.418652,219.097863 151.223606,219.073482 C148.675814,218.768722 146.128023,218.439582 143.604613,218.07387 C143.580232,218.07387 143.543661,218.07387 143.51928,218.061679 C143.470519,218.061679 143.421757,218.049489 143.372996,218.049489 C142.190528,217.878823 141.020251,217.695967 139.849973,217.513112 C139.240454,217.415589 138.630934,217.330256 138.021414,217.244923 C137.289991,217.13521 136.546378,217.025496 135.814954,216.903592 C135.571146,216.867021 135.327338,216.83045 135.08353,216.793879 C134.339917,216.671975 133.608494,216.537881 132.86488,216.415977 C131.182606,216.135598 129.488142,215.843028 127.805868,215.538269 C127.623012,215.513888 127.452347,215.465126 127.281682,215.440746 C127.111016,215.404175 126.92816,215.367603 126.757495,215.343223 C124.355988,214.904369 121.978862,214.441134 119.638308,213.953518 C119.406691,213.904757 119.175073,213.855995 118.943456,213.807234 C116.505378,213.295237 114.079491,212.771051 111.677984,212.222483 C109.288668,211.673916 106.923732,211.100967 104.570987,210.503638 C104.35156,210.454877 104.119943,210.393925 103.900515,210.332973 C101.645293,209.674693 99.4022615,209.077363 97.195801,208.455654 C96.939803,208.394702 96.6838045,208.32156 96.4278065,208.248418 C94.1725845,207.614518 91.9539335,206.980617 89.7596635,206.285765 C89.710902,206.273575 89.64995,206.261384 89.588998,206.237004 C87.309395,205.529961 85.054173,204.822919 82.847713,204.079305 C82.823332,204.079305 82.7989515,204.067114 82.7623805,204.054924 C80.616872,203.33569 78.5079345,202.604267 76.4355685,201.848463 C76.3136645,201.811892 76.1917605,201.775321 76.069857,201.726559 L76.0820475,201.726559 C74.6070105,201.190182 73.156354,200.641615 71.717888,200.093047 C71.279034,199.922382 70.84018,199.751716 70.401326,199.581051 C69.3895235,199.178767 68.3777215,198.776485 67.3781095,198.362011 C66.9148745,198.179156 66.45164,197.984109 65.976215,197.789063 C64.940032,197.3624 63.916039,196.923545 62.8920465,196.484691 C62.538525,196.326216 62.1728135,196.167742 61.8314825,196.021456 C60.4539685,195.424127 59.088645,194.802417 57.7598925,194.180708 C57.6623695,194.144137 57.5648465,194.095375 57.467323,194.046613 C56.2360935,193.473665 55.017055,192.888526 53.8223965,192.303388 C53.493256,192.144913 53.1641155,191.962057 52.8227845,191.803582 C51.835363,191.315966 50.860132,190.81616 49.897091,190.316354 C49.5679505,190.157879 49.2510005,189.975023 48.92186,189.804358 C47.8125345,189.219219 46.72759,188.63408 45.6426455,188.036751 C45.508551,187.963609 45.3866475,187.890467 45.252553,187.817324 C43.9847525,187.110282 42.741333,186.391049 41.5101035,185.671816 C41.4857225,185.659625 41.4491515,185.623054 41.4125805,185.610864 C40.2788745,184.940392 39.1573585,184.257731 38.0602235,183.562878 C37.852987,183.428784 37.6579405,183.30688 37.450704,183.184976 C36.475473,182.563266 35.512432,181.929366 34.561582,181.295466 C34.403107,181.185752 34.244632,181.088229 34.086157,180.978516 C30.7459905,178.711103 27.6130605,176.382739 24.711748,173.981232 C24.614225,173.8959 24.516702,173.810566 24.4191785,173.725234 C23.5170895,172.96943 22.6271915,172.213626 21.7616735,171.433441 C21.7251025,171.39687 21.676341,171.360298 21.627579,171.323727 C19.7624495,169.641454 18.0070335,167.94699 16.361331,166.215954 C15.4714325,165.277294 14.605915,164.326444 13.7769685,163.363403 C13.7403975,163.314642 13.691636,163.26588 13.642874,163.217119 C13.606303,163.180548 13.5697315,163.143976 13.5331605,163.095215 C13.167449,162.668551 12.8139275,162.241888 12.4604065,161.815224 C12.4238355,161.778653 12.3994545,161.742081 12.375074,161.70551 C12.301931,161.522656 12.1922175,161.400752 12.0946945,161.278848 C11.582698,160.632757 11.082892,159.986667 10.583086,159.328386 C10.583086,159.328386 10.583086,159.316195 10.5708955,159.304005 C10.08328,158.645724 9.620045,157.999633 9.169001,157.341352 C8.986145,157.097544 8.82767,156.853737 8.6570045,156.609929 C8.4131965,156.244217 8.1815795,155.878505 7.949962,155.537175 C7.754916,155.232415 7.57206,154.927655 7.3770135,154.622896 C7.1819675,154.293755 6.9747305,153.964615 6.7796845,153.635474 C6.511496,153.172239 6.267688,152.721195 6.01169,152.25796 C5.950738,152.136056 5.8775955,152.014152 5.8044535,151.892249 C5.658169,151.62406 5.511884,151.331491 5.3655995,151.063302 C5.316838,150.941398 5.255886,150.843875 5.194934,150.734162 C5.0486495,150.441592 4.9023645,150.161213 4.75608,149.868644 C4.6219855,149.600456 4.500082,149.332267 4.3659875,149.064079 C4.317226,148.978746 4.280655,148.881223 4.2440835,148.79589 C4.0490375,148.405798 3.878372,148.003515 3.7077065,147.613423 C3.634564,147.430567 3.5492315,147.247711 3.476089,147.077046 C3.281043,146.613811 3.098187,146.138386 2.9275215,145.662961 C2.8665695,145.480105 2.781237,145.297249 2.720285,145.114393 C2.6471425,144.907157 2.56181,144.68773 2.500858,144.480493 C2.3301925,143.980687 2.159527,143.493072 2.001052,142.981075 C1.9279095,142.773839 1.8669575,142.554412 1.806006,142.359365 C1.5987695,141.676703 1.4159135,140.994042 1.245248,140.299189 L0.0018285,140.299189 L0.0018285,201.73875 C0.0018285,202.457983 0.0262095,203.177216 0.0627805,203.884258 C0.074971,204.115875 0.0993515,204.335303 0.111542,204.56692 L0.111542,204.56692 Z" id="Shape"></path>
                <path d="M451.875173,418.922722 L451.862982,418.947103 L451.875173,418.922722 Z" id="Shape"></path>
                <path d="M416.827804,449.776597 L416.754661,449.800977 L416.827804,449.776597 Z" id="Shape"></path>
                <path d="M419.595022,448.021181 L419.716926,447.935848 L419.595022,448.021181 Z" id="Shape"></path>
                <path d="M422.374431,446.168242 L422.532906,446.058528 L422.374431,446.168242 Z" id="Shape"></path>
                <path d="M425.129458,444.24216 L425.287934,444.120256 L425.129458,444.24216 Z" id="Shape"></path>
                <path d="M427.823534,442.242936 L427.98201,442.121033 L427.823534,442.242936 Z" id="Shape"></path>
                <path d="M430.48104,440.18276 L430.615134,440.073047 L430.48104,440.18276 Z" id="Shape"></path>
                <path d="M433.065402,438.073824 L433.199496,437.96411 L433.065402,438.073824 Z" id="Shape"></path>
                <path d="M435.613193,435.879553 L435.735097,435.78203 L435.613193,435.879553 Z" id="Shape"></path>
                <path d="M438.112223,433.636522 L438.197556,433.551189 L438.112223,433.636522 Z" id="Shape"></path>
                <path d="M440.562491,431.332538 L440.623443,431.259396 L440.562491,431.332538 Z" id="Shape"></path>
                <path d="M442.939617,428.955412 L442.988379,428.918841 L442.939617,428.955412 Z" id="Shape"></path>
                <path d="M449.741854,421.507085 L449.729664,421.519275 L449.741854,421.507085 Z" id="Shape"></path>
                <path d="M447.547584,424.030495 L447.523204,424.054876 L447.547584,424.030495 Z" id="Shape"></path>
                <path d="M445.292362,426.492953 L445.255791,426.529525 L445.292362,426.492953 Z" id="Shape"></path>
                <path d="M510.145233,472.499482 L453.959729,416.313978 C453.959729,416.313978 453.947539,416.313978 453.947539,416.326169 C471.721126,393.18881 482.290193,364.236636 482.290193,332.797623 C482.290193,257.009974 420.862822,195.582603 345.075173,195.582603 C269.299715,195.582603 207.872344,257.009974 207.872344,332.797623 C207.872344,408.585272 269.311905,470.012643 345.075173,470.012643 C370.150804,470.012643 393.653874,463.283548 413.88992,451.532013 L472.513501,510.143404 C475.353862,512.995955 480.486016,512.50834 483.948086,509.046269 L509.060288,483.934067 C512.497978,480.471996 512.997783,475.352033 510.145233,472.499482 Z M345.075174,438.037252 C286.951398,438.037252 239.835545,390.921398 239.835545,332.797623 C239.835545,274.661658 286.951399,227.545804 345.075174,227.545804 C403.198949,227.545804 450.326993,274.661658 450.326993,332.797623 C450.314803,390.909208 403.186758,438.037252 345.075174,438.037252 Z" id="Shape"></path>
            </g>
        </g>
    </g>
</svg>