<?xml version="1.0" encoding="UTF-8"?>
<svg width="512px" height="512px" viewBox="0 0 512 512" version="1.1" xmlns="http://www.w3.org/2000/svg" xmlns:xlink="http://www.w3.org/1999/xlink">
    <!-- Generator: Sketch 47.1 (45422) - http://www.bohemiancoding.com/sketch -->
    <title>ctsi_database_fill</title>
    <desc>Created with Sketch.</desc>
    <defs></defs>
    <g id="icon图标库" stroke="none" stroke-width="1" fill="none" fill-rule="evenodd">
        <g id="ctsi_database_fill" fill-rule="nonzero" fill="#000000">
            <g id="数据库" transform="translate(26.000000, 0.000000)">
                <path d="M230.003,175.587 C338.76,175.587 459.934,139.531 459.934,87.793 C459.934,36.06 338.76,0 230.004,0 C121.241,0 0.065,36.06 0.065,87.793 C0.065,139.531 121.241,175.587 230.002,175.587 L230.003,175.587 Z M0.066,366.645 L0.066,424.205 C0.066,475.938 121.242,512 230.003,512 C338.76,512 459.934,475.938 459.934,424.205 L459.934,366.645 C418.989,404.321 332.581,429.806 230.004,429.806 C127.423,429.806 41.015,404.321 0.066,366.645 Z M0.066,248.606 L0.066,306.168 C0.066,357.901 121.242,393.961 230.003,393.961 C338.76,393.961 459.934,357.901 459.934,306.168 L459.934,248.606 C418.989,286.278 332.581,311.769 230.004,311.769 C127.423,311.769 41.015,286.282 0.066,248.606 Z M0.066,143.109 L0.066,188.129 C0.066,239.864 121.242,275.922 230.003,275.922 C338.76,275.922 459.934,239.864 459.934,188.129 L459.934,143.11 C418.989,180.784 332.581,206.271 230.004,206.271 C127.423,206.271 41.015,180.784 0.066,143.108 L0.066,143.109 Z" id="Shape"></path>
            </g>
        </g>
    </g>
</svg>