<?xml version="1.0" encoding="UTF-8"?>
<svg width="512px" height="512px" viewBox="0 0 512 512" version="1.1" xmlns="http://www.w3.org/2000/svg" xmlns:xlink="http://www.w3.org/1999/xlink">
    <!-- Generator: Sketch 47.1 (45422) - http://www.bohemiancoding.com/sketch -->
    <title>ctsi_database_diamond</title>
    <desc>Created with Sketch.</desc>
    <defs></defs>
    <g id="icon图标库" stroke="none" stroke-width="1" fill="none" fill-rule="evenodd">
        <g id="ctsi_database_diamond" fill-rule="nonzero" fill="#000000">
            <g id="数据-0" transform="translate(0.000000, 9.000000)">
                <path d="M256.019697,39.3968723 C264.449976,39.3968723 270.752989,41.0515411 273.628739,42.5092251 L443.652508,127.567072 L273.628739,212.546125 C270.75299,214.00381 264.449977,215.658478 256.019697,215.658478 C247.589417,215.658478 241.286405,214.003809 238.410655,212.546125 L68.3474924,127.527675 L238.410655,42.5092251 C241.286405,41.0515406 247.589417,39.3968723 256.019697,39.3968723 L256.019697,39.3968723 Z M256.019697,0 C243.256096,0 230.492495,2.40320917 220.801613,7.24902425 L15.4809728,109.917273 C-3.90079166,119.608904 -3.90079166,135.446447 15.4809728,145.138077 L220.76222,247.806326 C230.492495,252.652141 243.256096,255.05535 256.019697,255.055351 C268.783297,255.055351 281.546899,252.652141 291.237781,247.806326 L496.519027,145.138077 C515.900792,135.446446 515.900792,119.608904 496.519027,109.917273 L291.237781,7.24902425 C281.546899,2.40320917 268.783298,1.77690966e-15 256.019697,0 Z" id="Shape"></path>
                <path d="M256.014243,380.682606 C240.260833,380.682606 224.546806,377.529837 211.983462,371.263708 L10.8911799,270.690366 C1.15764287,265.814932 -2.78324445,253.966794 2.08896171,244.226808 C6.96116787,234.486823 18.8014622,230.543325 28.5349992,235.418759 L229.587898,336.03151 C243.450899,342.967603 268.577588,342.967603 282.440589,336.03151 L483.493487,235.418759 C493.227024,230.554208 505.058502,234.506528 509.919833,244.246513 C514.781164,253.986499 510.83146,265.825815 501.097923,270.690366 L300.045025,371.263708 C286.266611,377.688457 271.213469,380.908568 256.014243,380.682606 L256.014243,380.682606 Z" id="Shape"></path>
                <path d="M256.007896,503.498155 C240.254095,503.498155 224.539679,500.34496 211.976023,494.077983 L10.9181396,393.451629 C1.15078316,388.603591 -2.78766702,376.779107 2.09601144,367.043616 C6.97968989,357.308124 18.755656,353.406045 28.5230119,358.214668 L229.580896,458.841023 C243.44424,465.778053 268.571553,465.778053 282.434897,458.841023 L483.49278,358.214668 C493.226559,353.349459 505.05833,357.302313 509.919781,367.043616 C514.781233,376.784918 510.831431,388.625835 501.097653,393.491044 L300.03977,494.077983 C287.476113,500.384374 271.761697,503.498155 256.007896,503.498155 L256.007896,503.498155 Z" id="Shape"></path>
            </g>
        </g>
    </g>
</svg>