<?xml version="1.0" standalone="no"?><!DOCTYPE svg PUBLIC "-//W3C//DTD SVG 1.1//EN" "http://www.w3.org/Graphics/SVG/1.1/DTD/svg11.dtd"><svg class="icon" width="200px" height="200.00px" viewBox="0 0 1024 1024" version="1.1" xmlns="http://www.w3.org/2000/svg"><path fill="#000000" d="M558.781466 959.222671c-1.287319 0-2.570545-0.080841-3.88754-0.26913-12.33698-1.725294-22.049179-11.437493-23.77652-23.806195l-40.142256-402.949328-401.50135-39.480176c-12.364609-1.721201-22.051225-11.435447-23.774473-23.802102-1.74883-12.366655 4.923126-24.350594 16.306384-29.430286L919.167397 67.107397c10.562567-4.63967 22.901593-2.397606 31.080879 5.785773 8.179286 8.167007 10.453073 20.537755 5.773494 31.125905L584.281233 942.613388C579.737754 952.810634 569.69912 959.222671 558.781466 959.222671L558.781466 959.222671zM170.705893 446.792882l334.642616 47.948035c12.366655 1.729387 22.051225 11.437493 23.774473 23.804149l47.25628 333.921185 320.268234-725.942627L170.705893 446.792882z" /></svg>