<?xml version="1.0" encoding="utf-8"?>
<!-- Generator: Adobe Illustrator 15.0.0, SVG Export Plug-In . SVG Version: 6.00 Build 0)  -->
<!DOCTYPE svg PUBLIC "-//W3C//DTD SVG 1.1//EN" "http://www.w3.org/Graphics/SVG/1.1/DTD/svg11.dtd">
<svg version="1.1" id="图层_1" xmlns="http://www.w3.org/2000/svg" xmlns:xlink="http://www.w3.org/1999/xlink" x="0px" y="0px"
	 width="512px" height="512px" viewBox="0 0 512 512" enable-background="new 0 0 512 512" xml:space="preserve">

	<path fill-rule="evenodd" clip-rule="evenodd" fill="#050101" d="M482.45,493.77H255.923c-0.008,0-0.018,0-0.027,0
		s-0.016,0-0.023,0H29.342c-16.319,0-29.55-13.228-29.55-29.551V316.467c0-16.319,13.231-29.552,29.55-29.552
		c16.318,0,29.551,13.232,29.551,29.552v118.202h394.006V316.467c0-16.319,13.231-29.552,29.551-29.552
		c16.317,0,29.55,13.232,29.55,29.552v147.752C512,480.542,498.768,493.77,482.45,493.77z M366.513,227.883l-88.651,98.5h-0.003
		c-5.409,6.002-13.241,9.782-21.962,9.782c-8.719,0-16.555-3.78-21.961-9.782h-0.005l-88.651-98.5h0.005
		c-4.718-5.239-7.589-12.167-7.589-19.766c0-16.321,13.231-29.553,29.551-29.553c8.72,0,16.554,3.778,21.96,9.785l0.005-0.002
		l37.135,41.261V50.512l0,0c0-16.319,13.231-29.55,29.551-29.55c16.32,0,29.55,13.231,29.55,29.55l0,0v179.096l37.136-41.261
		l0.004,0.002c5.407-6.007,13.241-9.785,21.961-9.785c16.319,0,29.551,13.231,29.551,29.553c0,7.599-2.872,14.527-7.589,19.766
		H366.513z"/>

</svg>
