<?xml version="1.0" encoding="UTF-8"?>
<svg width="512px" height="512px" viewBox="0 0 512 512" version="1.1" xmlns="http://www.w3.org/2000/svg" xmlns:xlink="http://www.w3.org/1999/xlink">
    <!-- Generator: Sketch 47.1 (45422) - http://www.bohemiancoding.com/sketch -->
    <title>ctsi_fingerprint</title>
    <desc>Created with Sketch.</desc>
    <defs></defs>
    <g id="icon图标库" stroke="none" stroke-width="1" fill="none" fill-rule="evenodd">
        <g id="ctsi_fingerprint" fill-rule="nonzero" fill="#000000">
            <g id="指纹识别">
                <path d="M506.523077,410.584615 L489.6,410.584615 C486.769231,410.584615 484.492308,412.861538 484.492308,415.692308 L484.492308,460.738462 C484.492308,471.815385 471.569231,484.738462 460.492308,484.738462 L414.584615,484.738462 C411.753846,484.738462 409.476923,487.015385 409.476923,489.846154 L409.476923,506.769231 C409.476923,509.6 411.753846,511.876923 414.584615,511.876923 L460.492308,511.876923 C488.676923,511.815385 511.569231,488.923077 511.630769,460.738462 L511.630769,415.630769 C511.630769,412.861538 509.353846,410.584615 506.523077,410.584615 L506.523077,410.584615 Z M98.2769231,0.553846154 L51.5692308,0.553846154 C23.3846154,0.615384615 0.553846154,23.5076923 0.430769231,51.6923077 L0.430769231,99.2615385 C0.430769231,102.092308 2.70769231,104.369231 5.53846154,104.369231 L22.4,104.369231 C25.2307692,104.369231 27.5076923,102.092308 27.5076923,99.2615385 L27.5076923,51.6923077 C27.5076923,40.6153846 40.4307692,27.6923077 51.5076923,27.6923077 L98.2153846,27.6923077 C101.046154,27.6923077 103.323077,25.4153846 103.323077,22.5846154 L103.323077,5.66153846 C103.384615,2.83076923 101.107692,0.553846154 98.2769231,0.553846154 L98.2769231,0.553846154 Z M460.492308,0.553846154 L414.584615,0.553846154 C411.753846,0.553846154 409.476923,2.83076923 409.476923,5.66153846 L409.476923,22.5846154 C409.476923,25.4153846 411.753846,27.6923077 414.584615,27.6923077 L460.492308,27.6923077 C471.569231,27.6923077 484.492308,40.6153846 484.492308,51.6923077 L484.492308,99.2615385 C484.492308,102.092308 486.769231,104.369231 489.6,104.369231 L506.461538,104.369231 C509.292308,104.369231 511.569231,102.092308 511.569231,99.2615385 L511.569231,51.6923077 C511.507692,23.5076923 488.676923,0.676923077 460.492308,0.553846154 Z M98.2769231,484.8 L51.5692308,484.8 C40.4923077,484.8 27.5692308,471.876923 27.5692308,460.8 L27.5692308,415.753846 C27.5692308,412.923077 25.2923077,410.646154 22.4615385,410.646154 L5.6,410.646154 C2.76923077,410.646154 0.492307692,412.923077 0.492307692,415.753846 L0.492307692,460.8 C0.553846154,489.046154 23.3846154,511.876923 51.6307692,511.938462 L98.3384615,511.938462 C101.169231,511.938462 103.446154,509.661538 103.446154,506.830769 L103.446154,489.907692 C103.384615,487.076923 101.046154,484.8 98.2769231,484.8 L98.2769231,484.8 Z M0.369230769,282.030769 L511.569231,282.030769 L511.569231,305.415385 L0.369230769,305.415385 L0.369230769,282.030769 Z" id="Shape"></path>
                <path d="M116.123077,345.353846 C116.123077,346.830769 116.369231,348.246154 116.8,349.538462 C118.523077,354.523077 123.323077,358.092308 128.861538,358.153846 C130.338462,358.153846 131.815385,357.846154 133.169231,357.353846 C140.8,354.769231 150.523077,352.369231 160.8,349.846154 L160.8,349.907692 C182.523077,344.615385 208.430769,338.276923 232.553846,325.846154 L151.569231,325.846154 C141.907692,328.246154 132.8,330.523077 124.861538,333.230769 C119.753846,335.015385 116.123077,339.753846 116.123077,345.353846 L116.123077,345.353846 Z M380.8,357.846154 C381.6,358.030769 382.584615,358.153846 383.569231,358.153846 C390.523077,358.030769 396.123077,352.307692 396.123077,345.353846 C396.123077,339.323077 392,334.276923 386.4,332.923077 L386.338462,332.923077 C378.4,331.2 370.953846,328.861538 363.261538,325.907692 L311.015385,325.907692 C319.569231,333.292308 329.230769,339.507692 338.523077,343.507692 C351.261538,348.923077 365.230769,354.4 380.8,357.846154 L380.8,357.846154 Z M373.476923,373.723077 C349.661538,368.676923 333.230769,359.938462 318.769231,352.246154 C304.430769,344.615385 292.123077,338.092308 277.538462,338.092308 C265.969231,338.092308 252.430769,342.4 231.938462,348.923077 C210.215385,355.876923 180.492308,365.353846 139.323077,373.723077 C133.415385,374.953846 129.107692,380.123077 129.107692,386.276923 C129.107692,387.2 129.169231,388.061538 129.353846,388.923077 C130.584615,394.707692 135.692308,399.076923 141.846154,399.076923 C142.769231,399.076923 143.630769,398.953846 144.492308,398.830769 C186.830769,390.215385 217.353846,380.492308 239.630769,373.353846 C257.169231,367.753846 269.846154,363.753846 277.415385,363.753846 C285.6,363.753846 294.830769,368.676923 306.646154,374.953846 C321.846154,383.015385 340.676923,393.046154 368,398.892308 C368.8,399.076923 369.784615,399.2 370.707692,399.2 C377.6,399.076923 383.2,393.353846 383.2,386.4 C383.261538,380.123077 379.076923,375.076923 373.476923,373.723077 Z" id="Shape"></path>
                <path d="M349.661538,409.784615 L349.6,409.784615 C340.123077,407.261538 329.230769,402.153846 318.646154,397.169231 C302.523077,389.6 287.323077,382.523077 273.969231,382.523077 C264.184615,382.523077 247.446154,387.261538 220.923077,394.953846 C201.723077,400.553846 179.938462,406.830769 164.246154,409.538462 C157.723077,410.215385 152.676923,415.630769 152.676923,422.276923 C152.676923,429.353846 158.4,435.076923 165.476923,435.076923 C166.584615,435.076923 167.630769,434.953846 168.615385,434.707692 C185.661538,431.815385 208.184615,425.292308 228,419.507692 C246.4,414.153846 267.261538,408.123077 273.969231,408.123077 C281.661538,408.123077 294.953846,414.338462 307.815385,420.369231 C319.384615,425.784615 331.323077,431.384615 343.015385,434.523077 C344,434.769231 345.169231,434.953846 346.338462,434.953846 C353.415385,434.953846 359.138462,429.230769 359.138462,422.153846 C359.076923,416.184615 355.076923,411.261538 349.661538,409.784615 L349.661538,409.784615 Z" id="Shape"></path>
                <path d="M316.553846,440.738462 L316.492308,440.676923 C313.415385,439.569231 310.215385,438.153846 306.830769,436.676923 C296,431.938462 283.753846,426.523077 267.938462,426.523077 C260.738462,426.523077 250.4,428.923077 234.153846,432.8 C222.338462,435.630769 208.861538,438.830769 199.076923,440 C192.246154,440.307692 186.892308,445.969231 186.892308,452.8 C186.892308,459.876923 192.615385,465.6 199.692308,465.6 C200.553846,465.6 201.353846,465.538462 202.153846,465.353846 C213.353846,464 227.569231,460.615385 240.061538,457.661538 C251.015385,455.015385 263.384615,452.061538 267.938462,452.061538 C278.4,452.061538 287.2,455.938462 296.553846,460.061538 C300.184615,461.661538 303.876923,463.261538 307.692308,464.676923 C308.984615,465.169231 310.523077,465.476923 312.123077,465.476923 C319.076923,465.415385 324.738462,459.692308 324.738462,452.676923 C324.738462,447.261538 321.353846,442.584615 316.553846,440.738462 Z" id="Shape"></path>
                <path d="M311.692308,185.661538 C311.692308,171.2 305.907692,158.153846 296.553846,148.615385 C286.276923,138.092308 271.938462,131.507692 256.061538,131.507692 L256,131.507692 C240,131.569231 225.6,138.338462 215.507692,149.230769 C205.476923,159.938462 202.769231,174.215385 200.8,184.553846 C192.738462,226.892308 165.415385,247.753846 117.169231,248.307692 C110.153846,248.369231 104.553846,254.092308 104.553846,261.107692 L104.553846,261.292308 C104.553846,268.246154 110.276923,273.907692 117.230769,273.907692 L117.476923,273.907692 C177.169231,273.230769 215.692308,243.2 225.907692,189.353846 C227.753846,179.507692 229.538462,171.630769 234.153846,166.646154 C239.569231,160.8 247.323077,157.107692 255.938462,157.107692 L256.307692,157.107692 C264.861538,157.107692 272.676923,160.676923 278.215385,166.4 C283.138462,171.384615 286.153846,178.215385 286.153846,185.723077 L286.153846,186.584615 C284.676923,232.8 270.646154,262.338462 250.584615,282.092308 L284.184615,282.092308 C299.815385,259.630769 310.4,229.292308 311.753846,187.384615 C311.692308,186.830769 311.692308,186.215385 311.692308,185.661538 L311.692308,185.661538 Z" id="Shape"></path>
                <path d="M351.753846,239.323077 C351.815385,231.323077 352.307692,225.969231 352.8,220.369231 C353.6,212.184615 354.092308,202.707692 354.092308,193.107692 C354.092308,190.953846 354.092308,188.8 354.030769,186.707692 C353.292308,133.046154 309.353846,89.1692308 256.123077,89.1692308 C207.569231,89.1692308 169.538462,122.276923 159.261538,173.476923 C153.169231,204 137.169231,204.984615 122.646154,203.569231 C122.276923,203.507692 121.846154,203.507692 121.353846,203.507692 C114.769231,203.507692 109.353846,208.492308 108.676923,214.892308 C108.615385,215.323077 108.615385,215.753846 108.615385,216.246154 C108.615385,222.830769 113.6,228.307692 120,228.984615 C163.876923,233.353846 179.2,203.938462 184.307692,178.523077 C192.184615,139.2 219.692308,114.769231 256.123077,114.769231 C295.446154,114.769231 327.876923,147.384615 328.430769,187.446154 C328.492308,189.169231 328.492308,191.2 328.492308,193.230769 C328.492308,202.030769 328.061538,210.707692 327.2,219.261538 C326.769231,224.061538 326.215385,230.153846 326.153846,239.2 C325.969231,257.661538 330.215385,271.569231 336.615385,282.153846 L371.938462,282.153846 C359.876923,274.584615 351.507692,262.523077 351.753846,239.323077 L351.753846,239.323077 Z" id="Shape"></path>
                <path d="M399.076923,248.923077 L399.015385,248.861538 C397.907692,248.123077 392.8,244 394.030769,232.615385 C395.815385,216.123077 396.738462,189.169231 396.738462,188 L396.738462,187.569231 C396.738462,110.030769 333.6,46.8923077 256.061538,46.8923077 C198.707692,46.8923077 146.092308,82.8923077 125.107692,136.492308 C122.646154,142.830769 120.738462,150.338462 119.076923,156.984615 C118.153846,160.615385 117.169231,164.738462 116.553846,166.215385 C116,167.569231 115.692308,169.169231 115.692308,170.892308 C115.692308,176.307692 119.015385,180.861538 123.692308,182.769231 C125.169231,183.323077 126.769231,183.692308 128.430769,183.692308 C133.846154,183.692308 138.461538,180.369231 140.307692,175.630769 C141.538462,172.492308 142.584615,168.430769 143.876923,163.2 C145.353846,157.292308 147.015385,150.646154 148.923077,145.846154 C166.092308,101.969231 209.107692,72.4923077 256.061538,72.4923077 C319.446154,72.4923077 370.953846,124 371.076923,187.384615 C370.953846,189.969231 370.092308,215.076923 368.492308,229.907692 C365.476923,258.092308 383.569231,271.630769 392.307692,273.538462 C393.107692,273.723077 394.092308,273.846154 395.015385,273.846154 C401.969231,273.723077 407.630769,268.061538 407.630769,261.046154 C407.692308,255.446154 404.123077,250.646154 399.076923,248.923077 L399.076923,248.923077 Z" id="Shape"></path>
                <path d="M268.861538,187.076923 C268.923077,186.646154 268.923077,186.153846 268.923077,185.6 C268.923077,178.523077 263.2,172.8 256.123077,172.8 C249.046154,172.8 243.323077,178.523077 243.323077,185.6 L243.323077,186.092308 C240.861538,249.169231 200.246154,270.953846 159.815385,282.030769 L221.661538,282.030769 C247.2,263.815385 267.015385,234.892308 268.861538,187.076923 L268.861538,187.076923 Z" id="Shape"></path>
            </g>
        </g>
    </g>
</svg>