<?xml version="1.0" encoding="UTF-8"?>
<svg width="512px" height="512px" viewBox="0 0 512 512" version="1.1" xmlns="http://www.w3.org/2000/svg" xmlns:xlink="http://www.w3.org/1999/xlink">
    <!-- Generator: Sketch 47.1 (45422) - http://www.bohemiancoding.com/sketch -->
    <title>ctsi_form</title>
    <desc>Created with Sketch.</desc>
    <defs></defs>
    <g id="icon图标库" stroke="none" stroke-width="1" fill="none" fill-rule="evenodd">
        <g id="ctsi_form" fill-rule="nonzero" fill="#000000">
            <g id="表格" transform="translate(0.000000, 18.000000)">
                <path d="M0,0 L0,475.428571 L512,475.428571 L512,0 L0,0 Z M347.428571,118.857143 L475.428571,118.857143 L475.428571,201.142857 L347.428571,201.142857 L347.428571,118.857143 Z M164.571429,438.857143 L36.5714286,438.857143 L36.5714286,354.742857 L164.571429,354.742857 L164.571429,438.857143 Z M164.571429,318.171429 L36.5714286,318.171429 L36.5714286,237.714286 L164.571429,237.714286 L164.571429,318.171429 Z M164.571429,201.142857 L36.5714286,201.142857 L36.5714286,118.857143 L164.571429,118.857143 L164.571429,201.142857 L164.571429,201.142857 Z M310.857143,438.857143 L201.142857,438.857143 L201.142857,354.742857 L310.857143,354.742857 L310.857143,438.857143 Z M310.857143,318.171429 L201.142857,318.171429 L201.142857,237.714286 L310.857143,237.714286 L310.857143,318.171429 Z M310.857143,201.142857 L201.142857,201.142857 L201.142857,118.857143 L310.857143,118.857143 L310.857143,201.142857 L310.857143,201.142857 Z M475.428571,438.857143 L347.428571,438.857143 L347.428571,354.742857 L475.428571,354.742857 L475.428571,438.857143 Z M475.428571,318.171429 L347.428571,318.171429 L347.428571,237.714286 L475.428571,237.714286 L475.428571,318.171429 Z" id="Shape"></path>
            </g>
        </g>
    </g>
</svg>