<?xml version="1.0" encoding="UTF-8"?>
<svg width="512px" height="512px" viewBox="0 0 512 512" version="1.1" xmlns="http://www.w3.org/2000/svg" xmlns:xlink="http://www.w3.org/1999/xlink">
    <!-- Generator: Sketch 47.1 (45422) - http://www.bohemiancoding.com/sketch -->
    <title>ctsi_funnelplot</title>
    <desc>Created with Sketch.</desc>
    <defs></defs>
    <g id="icon图标库" stroke="none" stroke-width="1" fill="none" fill-rule="evenodd">
        <g id="ctsi_funnelplot" fill-rule="nonzero" fill="#000000">
            <g id="图表-漏斗图" transform="translate(0.000000, 18.000000)">
                <path d="M241.042286,466.491429 L2.56,27.7257143 C0.877706927,24.9532928 -0.00804999753,21.7708947 1.26882554e-14,18.528 C0.0434494104,13.7219115 1.99443255,9.12995094 5.42371254,5.76239799 C8.85299253,2.39484504 13.4796294,0.527582765 18.2857143,0.571428571 L493.714286,0.571428571 C503.808,0.571428571 512,8.61714286 512,18.528 C512.004691,21.7646871 511.119059,24.9403132 509.44,27.7074286 L273.334857,466.436571 C270.096092,472.317435 263.918467,475.974835 257.204747,475.98624 C250.491028,475.997645 244.301013,472.361254 241.042286,466.491429 Z M184.850286,287.968 L256,419.387429 L327.131429,287.968 L184.868571,287.968 L184.850286,287.968 Z M165.412571,252.036571 L346.587429,252.036571 L385.481143,180.173714 L126.518857,180.173714 L165.412571,252.036571 Z M404.827429,144.443429 L463.268571,36.5028571 L48.7314286,36.5028571 L107.172571,144.443429 C107.995429,144.333714 108.854857,144.260571 109.714286,144.260571 L402.285714,144.260571 C403.145143,144.260571 404.004571,144.333714 404.845714,144.443429 L404.827429,144.443429 Z" id="Shape"></path>
            </g>
        </g>
    </g>
</svg>