<?xml version="1.0" encoding="UTF-8"?>
<svg width="512px" height="512px" viewBox="0 0 512 512" version="1.1" xmlns="http://www.w3.org/2000/svg" xmlns:xlink="http://www.w3.org/1999/xlink">
    <!-- Generator: Sketch 47.1 (45422) - http://www.bohemiancoding.com/sketch -->
    <title>ctsi_paper</title>
    <desc>Created with Sketch.</desc>
    <defs></defs>
    <g id="icon图标库" stroke="none" stroke-width="1" fill="none" fill-rule="evenodd">
        <g id="ctsi_paper" fill-rule="nonzero" fill="#000000">
            <g id="hand-stop-o" transform="translate(23.000000, 0.000000)">
                <path d="M251.330365,36.5714285 C242.571882,36.5714285 235.051012,39.7142857 228.767753,46 C222.484493,52.2857143 219.342864,59.8095238 219.342864,68.5714285 L219.342864,256 L210.203578,256 L210.203578,105.142857 C210.203578,96.3809523 207.061948,88.8571428 200.778689,82.5714285 C194.49543,76.2857142 186.974559,73.142857 178.216077,73.142857 C169.457595,73.142857 161.936724,76.2857142 155.653464,82.5714285 C149.370205,88.8571428 146.228575,96.3809523 146.228576,105.142857 L146.228576,329.142857 L102.245762,270.571429 C95.010494,260.857143 85.3000026,256 73.1142878,256 C63.0229929,256 54.407312,259.571429 47.2672449,266.714286 C40.1271779,273.857143 36.5571442,282.47619 36.5571439,292.571429 C36.5571439,300.761905 39.0323672,308.095238 43.9828138,314.571429 L153.654245,460.857143 C160.889514,470.571429 170.600005,475.428572 182.78572,475.428572 L379.280369,475.428572 C385.754029,475.428572 391.561284,473.333333 396.702133,469.142857 C401.842981,464.952381 405.079812,459.619047 406.412624,453.142857 L428.118428,337.428572 C429.070437,331.333334 429.546442,325.714286 429.546441,320.571429 L429.546441,178.285715 C429.546441,169.52381 426.404812,162 420.121553,155.714286 C413.838294,149.428571 406.317423,146.285714 397.55894,146.285715 C388.800457,146.285715 381.279587,149.428572 374.996328,155.714286 C368.71307,161.999999 365.57144,169.523809 365.571439,178.285715 L365.571439,256 L356.432154,256 L356.432154,105.142857 C356.432154,96.3809523 353.290524,88.8571428 347.007265,82.5714285 C340.724006,76.2857142 333.203135,73.142857 324.444653,73.142857 C315.68617,73.142857 308.165299,76.2857142 301.88204,82.5714285 C295.598781,88.8571428 292.457152,96.3809523 292.457152,105.142857 L292.457152,256 L283.317866,256 L283.317866,68.5714285 C283.317866,59.8095238 280.176236,52.2857143 273.892977,46 C267.609718,39.7142857 260.088847,36.5714285 251.330365,36.5714285 Z M251.330365,0 C264.277687,0 276.225399,3.38095233 287.173502,10.142857 C298.121605,16.9047617 306.546884,26.0952378 312.44934,37.7142855 C316.066974,36.9523808 320.065411,36.5714285 324.444653,36.5714285 C343.29443,36.5714285 359.430982,43.2857142 372.854308,56.7142855 C386.277634,70.1428568 392.989297,86.285714 392.989297,105.142857 L392.989297,110 C412.981485,108.857143 430.165247,114.952381 444.540582,128.285714 C458.915918,141.619048 466.103585,158.285714 466.103586,178.285714 L466.103586,320.571428 C466.103586,328.190476 465.341978,336.095238 463.818764,344.285714 L442.11296,459.714285 C439.447335,474.761904 432.164466,487.238095 420.264354,497.142857 C408.364242,507.047619 394.702914,512 379.280369,512 L182.78572,512 C171.361613,512 160.46111,509.380952 150.084212,504.142857 C139.707314,498.904762 131.091633,491.809524 124.237169,482.857143 L14.565737,336.571428 C4.85524566,323.619047 0,308.952381 0,292.571428 C0,272.380952 7.1400672,255.142857 21.4202016,240.857143 C35.700336,226.571429 52.9316981,219.428572 73.1142878,219.428571 C87.9656276,219.428571 100.151342,222.666667 109.671432,229.142857 L109.671432,105.142857 C109.671432,86.285714 116.383095,70.1428568 129.806421,56.7142855 C143.229748,43.2857142 159.3663,36.5714285 178.216077,36.5714285 C182.595318,36.5714285 186.593756,36.9523808 190.21139,37.7142855 C196.113845,26.0952378 204.539125,16.9047617 215.487227,10.142857 C226.43533,3.38095233 238.383043,2.36847579e-15 251.330365,0 Z" id="Shape"></path>
            </g>
        </g>
    </g>
</svg>