<?xml version="1.0" standalone="no"?><!DOCTYPE svg PUBLIC "-//W3C//DTD SVG 1.1//EN" "http://www.w3.org/Graphics/SVG/1.1/DTD/svg11.dtd"><svg class="icon" width="200px" height="200.00px" viewBox="0 0 1024 1024" version="1.1" xmlns="http://www.w3.org/2000/svg"><path fill="#000000" d="M527.28666 46.89403c-247.526513 0-448.186625 200.659089-448.186625 448.184579 0 247.527536 200.660112 448.186625 448.186625 448.186625 247.52549 0 448.184579-200.659089 448.184579-448.186625C975.471239 247.553119 774.812149 46.89403 527.28666 46.89403zM527.28666 898.445446c-222.773759 0-403.366837-180.592055-403.366837-403.367861 0-222.772736 180.592055-403.365814 403.366837-403.365814 222.771713 0 403.365814 180.593078 403.365814 403.365814C930.652474 717.852368 750.059396 898.445446 527.28666 898.445446zM187.09977 319.447543 347.709725 319.447543 488.232179 444.812785 617.65176 444.812785 617.65176 570.395992 358.371552 875.375008 287.483038 831.367725 297.508369 605.523023 187.09977 575.408145ZM244.386498 202.352661l106.644879 35.719526 140.747581-65.798589 35.741016-82.946131C527.519973 89.327468 377.858372 72.411193 244.386498 202.352661zM704.88145 134.140093l-66.161862 63.944358 22.902616 100.008738 107.930151 43.415812 61.740156 67.294662 28.039613 130.401955L730.836589 866.577644l173.024705-142.851499 60.168358-265.329994-78.039377-197.050911L745.183342 134.140093 704.88145 134.140093z" /></svg>