<?xml version="1.0" standalone="no"?><!DOCTYPE svg PUBLIC "-//W3C//DTD SVG 1.1//EN" "http://www.w3.org/Graphics/SVG/1.1/DTD/svg11.dtd"><svg class="icon" width="200px" height="200.00px" viewBox="0 0 1024 1024" version="1.1" xmlns="http://www.w3.org/2000/svg"><path fill="#000000" d="M510.897276 958.254276a453.069256 453.069256 0 0 1-74.323836-6.14536c-45.478938-7.402691-89.429216-21.851761-130.620123-42.993969l-40.48033-20.759275 2.430704-1.747772C153.918633 812.80215 79.594797 691.059113 65.540947 556.642424l-0.122866-1.256307a448.120818 448.120818 0 0 1-2.294527-45.233206c0-247.063529 200.874014-448.07372 447.773722-448.07372 246.927352 0 447.801366 201.010191 447.801366 448.07372-0.001024 247.09015-200.875038 448.101365-447.801366 448.101365z m-65.255284-61.349161a390.31942 390.31942 0 0 0 62.169293 4.998608c214.230598 0 388.527621-174.433199 388.527621-388.855264 0-36.574208-4.998608-72.330331-14.913914-106.855745a97.809717 97.809717 0 0 1-3.578479 10.789704c-10.216328 25.457885-31.411778 34.280705-50.095637 42.03766-5.873006 2.430704-12.373654 5.108164-19.393412 8.658998-3.468923 1.721151-5.954917 3.031724-7.730334 4.015678a97.724735 97.724735 0 0 1-1.229687 7.648424c0.355288 0.437199 0.710576 0.901019 1.092486 1.393507 3.441279 4.452877 8.631353 11.199258 12.94703 21.114564 10.352505 23.682468 10.352505 29.991649 10.352505 64.981906 0 30.784136-13.438495 46.135249-21.469852 55.285712-1.256307 1.420129-2.540259 2.676436-3.441278 4.151855-1.475419 17.672261-6.091094 39.551666-25.020686 63.88942-6.146384 7.921801-11.663078 12.865119-16.525509 17.236086-7.730334 6.937847-14.394804 12.920409-26.796103 36.629497-20.623098 39.415489-38.51447 73.149439-81.07124 69.434783-41.51855-3.824212-39.715488-50.149903-39.060201-67.604076 0.191467-4.916697 0.491465-12.346009 0-14.777737l-2.758347-11.772633c-4.425232-18.328571-9.915305-41.136641-9.915306-60.366231 0-12.565121 0-50.80519-6.500648-62.496937-8.467532-15.269202-10.079127-32.258531-11.253523-44.65983-0.382933-4.1795-0.51911-8.030333-1.365863-10.92588-4.206121-6.500648-7.702689-12.319388-20.513543-20.895452-3.606124-2.430704-7.593134-5.29963-11.827923-8.413265-13.98525-10.216328-31.357512-22.917625-46.653335-22.917626-40.453709 0-62.90649-17.672261-91.34081-40.01651-19.639144-15.433024-24.200554-33.542483-24.583486-45.998048-0.928664-31.111779 22.971891-55.804822 33.269105-64.981906 7.675044-6.80167 13.957605-11.909834 19.14768-16.115955 5.16243-4.1795 9.641928-7.812245 11.143968-9.833395 6.146384-8.249444 15.870223-14.476715 26.468459-20.78692-6.14536-8.30371-13.138496-18.24666-17.945638-29.773561-1.256307-3.005103-11.526901-8.467532-24.555842-8.467532-6.637849 0-10.242949 1.393508-11.199257 1.829683-14.368183 6.528293-16.525509 17.781816-16.525509 23.928201 0 29.500184-10.680148 43.894988-26.959925 62.469291-0.874398 1.63924-1.829683 8.795175-2.404083 13.084231-1.884973 14.094805-5.380517 40.316509-31.739421 49.112707-5.190075 1.721151-9.997216 2.567904-14.750092 2.567904-20.459277 0-29.855472-14.640536-33.515862-20.541187-11.117347-3.223191-20.431632-10.106772-27.123746-20.103988-21.414562 27.233302-64.818084 30.346937-83.693411 31.685155l-4.288031 0.163821c-15.473979 0-28.325788-6.364471-36.056122-17.481818-13.233718 35.83701-20.964052 73.177084-23.094757 111.66391 9.219063-4.970963 19.953477-6.937847 34.895035-5.517718 33.378662 3.250836 60.188075 27.287568 79.759643 44.823652 6.28256 5.627274 14.886269 13.356584 18.219016 14.913913 2.512615 1.010575 6.446382 2.048795 10.980146 3.359368 24.829219 7.129314 62.387381 17.919017 74.924856 49.139329 4.64332 11.554546 7.32078 30.21076-6.254915 53.536915-28.844897 49.494617-52.416785 82.245636-70.035804 97.323372-1.939239 2.731726-4.533764 16.471243-2.404083 35.727455 2.841282 9.997216 31.767066 50.669013 60.120499 68.424208l7.456957 4.0423c1.529685 0.764842 2.785992 1.420129 3.768921 1.994528a388.474379 388.474379 0 0 0 114.342394 38.102869zM125.168957 579.013295c11.485946 64.298975 38.842114 124.419473 78.953845 175.006575 2.03446-17.672261 7.907466-35.946566 21.83845-47.883021 4.561409-3.906123 22.193738-21.387941 58.085015-83.010479 2.322172-3.960388 2.458349-5.76345 2.458348-5.791096-3.742301-5.052874-29.691651-12.509831-38.213448-14.968179-6.74638-1.911594-12.509831-3.66039-16.497864-5.244341-11.8955-4.780521-22.411826-14.203337-34.594013-25.130241-14.450094-12.94703-32.395732-29.03534-47.404867-30.756491-1.516374 8.221799-4.151855 21.660294-15.801622 31.357512-2.582239 2.131729-5.518742 4.398611-8.823844 6.419761z m306.050586-382.299327c26.904635 0 63.016046 11.226903 76.181164 42.884413 2.785992 6.692114 8.549442 14.367159 13.603341 21.114563 8.631353 11.526901 31.548979 42.091926 4.12421 63.697954-4.889052 3.851857-11.9641 8.139888-19.20297 12.42792-4.752876 2.813637-12.728942 7.511223-14.886268 9.560017-4.69861 6.418737-11.335434 11.772633-19.721056 18.574304-4.64332 3.769946-10.297215 8.357976-17.154174 14.450094-10.106772 8.986641-14.668181 18.137105-14.558626 21.496472 0.027645 0.710576 1.365863 2.240261 3.250836 3.714656 27.096101 21.30603 36.629497 28.05241 56.760107 28.05241 33.542483 0 60.202409 19.475323 79.650087 33.679684 3.550834 2.594525 6.855936 5.026253 9.915306 7.075048 23.245269 15.542579 31.685155 29.60974 38.486825 40.889884 5.899627 9.86104 6.965492 21.224119 8.002688 32.17662 0.792487 8.331355 1.693506 17.754172 4.479498 22.753804 12.48321 22.480426 13.52143 58.071704 13.52143 89.674948 0 12.592766 4.64332 31.822356 8.357976 47.282l3.005103 12.728943c1.747772 7.948422 1.721151 16.497864 1.420129 24.938775 5.627274-8.82282 11.308813-19.639144 14.532004-25.813173 17.072264-32.613819 29.199162-43.513079 38.950646-52.280609 3.195546-2.867903 6.336826-5.571984 9.751484-9.969571 9.915305-12.755563 12.673653-23.189979 14.285248-37.967716 1.803062-16.08831 10.516326-26.03126 16.252132-32.587198 5.545363-6.336826 7.620778-8.685619 7.620778-18.437103 0-29.60974 0-29.60974-5.653895-42.584415-1.583951-3.6051-3.441279-6.036828-6.036828-9.36855-6.336826-8.249444-16.990353-22.070872-11.690722-46.189515 0.601021-2.759371 0.764842-4.807142 0.901019-6.500648 2.266882-24.965396 15.842578-33.488217 37.940071-44.550274 8.331355-4.1795 16.006399-7.375046 22.971891-10.270594 14.094805-5.845361 18.355192-8.030333 19.639144-11.171613 3.195546-8.003712 4.206121-19.584878 5.080519-29.800182 0.846753-9.615307 1.665861-18.71048 4.343322-26.740813 2.02115-6.254915 5.709185-17.727551 14.941558-25.375974C782.434735 197.041611 655.720735 118.019166 510.897276 118.019166c-131.193498 0-247.528373 64.845729-318.669973 164.190251 7.034092 4.998608 11.868879 12.592766 14.368182 19.475322 4.548099 12.565121 2.772681 25.730238-4.479498 36.547587 19.16099-3.441279 20.991697-8.057978 21.142208-9.178108 1.05153-7.648423 1.338218-13.438495 1.583951-17.945638 0.696242-13.274673 1.747772-33.296751 27.574255-44.386453 19.283856-8.276065 40.644152-3.687011 52.390165 11.007791 8.604732 10.707793 11.44499 25.211128 7.976066 40.807974-1.229686 5.490073-0.764842 10.789704 0 13.629961a46.834563 46.834563 0 0 1 7.675045 2.922169c1.939239-10.051482 5.517718-21.30603 13.957604-31.002224 12.701297-14.50436 13.138496-16.060665 13.138497-25.675972 0-32.368087 18.901947-61.049162 49.330795-74.842946 9.833395-4.478474 21.715584-6.854912 34.33497-6.854912z"  /></svg>