<?xml version="1.0" encoding="UTF-8"?>
<svg width="512px" height="512px" viewBox="0 0 512 512" version="1.1" xmlns="http://www.w3.org/2000/svg" xmlns:xlink="http://www.w3.org/1999/xlink">
    <!-- Generator: Sketch 47.1 (45422) - http://www.bohemiancoding.com/sketch -->
    <title>ctsi_grab</title>
    <desc>Created with Sketch.</desc>
    <defs></defs>
    <g id="icon图标库" stroke="none" stroke-width="1" fill="none" fill-rule="evenodd">
        <g id="ctsi_grab" fill-rule="nonzero" fill="#000000">
            <g id="hand-rock-o" transform="translate(0.000000, 22.000000)">
                <path d="M256,42.6314049 C244.222222,42.6314049 234.166667,46.7946281 225.833333,55.1210746 C217.5,63.4475211 213.333333,73.4947663 213.333333,85.2628103 L213.333333,127.894215 L202.666667,127.894215 L202.666667,96.9198351 C202.666667,86.261984 199.111111,77.2139123 192,69.77562 C184.888888,62.3373276 176,58.6181816 165.333334,58.618182 C155.111112,58.618182 146.333334,62.2818184 139,69.6090912 C131.666666,76.936364 128,85.7068874 128,95.9206614 L128,238.802479 L117.333333,228.810744 L117.333333,171.524794 C117.333333,160.866943 113.777778,151.818871 106.666667,144.380579 C99.5555557,136.942286 90.6666668,133.22314 79.9999999,133.223141 C69.7777778,133.223141 61,136.886777 53.6666666,144.21405 C46.3333333,151.541323 42.6666666,160.311846 42.6666666,170.52562 L42.6666666,245.130579 C42.6666666,255.566391 46.5555555,264.669973 54.3333332,272.441323 L157.666666,371.026446 C166.333333,379.68595 170.666666,391.009917 170.666667,404.998347 C170.666667,410.77135 172.777778,415.767218 177,419.98595 C181.222223,424.204683 186.222222,426.31405 192,426.31405 L405.333333,426.31405 C411.111111,426.31405 416.111111,424.204683 420.333333,419.98595 C424.555556,415.767218 426.666667,410.77135 426.666667,404.998347 L426.666667,396.671901 C426.666667,387.56832 427.777778,379.019835 430,371.026446 L466,225.813223 C468.222222,217.819835 469.333333,209.27135 469.333333,200.167769 L469.333333,118.235537 C469.333333,107.577686 465.777778,98.5296146 458.666666,91.0913227 C451.555555,83.6530307 442.666666,79.9338846 432,79.9338842 C421.777778,79.9338842 413,83.5975206 405.666667,90.9247933 C398.333333,98.2520661 394.666667,107.02259 394.666667,117.236363 L394.666667,127.894215 L384,127.894215 L384,86.2619834 C384,77.3804407 381.222222,69.3315427 375.666667,62.1152895 C370.111111,54.8990363 363,50.4027553 354.333334,48.6264466 C351.222222,48.1823695 348.666667,47.960331 346.666666,47.960331 C336.444444,47.960331 327.666667,51.6239672 320.333333,58.9512396 C313,66.2785119 309.333333,75.0490355 309.333333,85.2628103 L309.333333,127.894215 L298.666667,127.894215 L298.666667,87.2611571 C298.666667,75.9371903 295.055556,66.0009644 287.833334,57.4524796 C280.611112,48.9039947 271.444445,44.0746558 260.333333,42.964463 C259.222222,42.7424242 257.777778,42.6314049 256,42.6314049 Z M256,0 C274.666667,0 291.222222,5.55096427 305.666667,16.6528928 C318.333333,9.10358168 332,5.32892592 346.666666,5.32892553 C359.777778,5.32892553 372.111111,8.3264463 383.666667,14.3214878 C395.222222,20.3165294 404.777778,28.7539949 412.333333,39.6338843 C418.333333,38.0796143 424.888889,37.3024793 432,37.3024793 C454.222222,37.3024793 473.111111,45.2403581 488.666667,61.1161158 C504.222222,76.9918734 512,96.0316805 512,118.235537 L512,200.167769 C512,211.491736 510.555555,223.481818 507.666666,236.138016 L471.333333,381.35124 C470,386.680166 469.333333,394.562535 469.333333,404.998347 C469.333333,422.761432 463.111111,437.860055 450.666667,450.294215 C438.222222,462.728375 423.111111,468.945455 405.333333,468.945455 L192,468.945455 C173.333333,468.945455 158,462.450826 146,449.46157 C134,436.472314 128,420.652066 128,402.000826 L25.3333337,303.415703 C8.44444494,287.206887 3.88888888e-07,267.778512 0,245.130579 L0,170.52562 C0,148.543802 7.83333328,129.726033 23.4999998,114.072314 C39.1666664,98.4185953 57.9999997,90.5917358 79.9999999,90.5917358 C82.4444442,90.5917358 84.222222,90.702755 85.3333331,90.9247933 C86.6666663,69.8311296 95.0555554,52.0680442 110.5,37.6355374 C125.944445,23.2030306 144.222223,15.9867772 165.333334,15.9867772 C176.888889,15.9867772 187.777778,18.3181821 198,22.9809921 C214,7.66033107 233.333333,3.88567492e-07 256,0 Z" id="Shape"></path>
            </g>
        </g>
    </g>
</svg>