<?xml version="1.0" encoding="UTF-8"?>
<svg width="512px" height="512px" viewBox="0 0 512 512" version="1.1" xmlns="http://www.w3.org/2000/svg" xmlns:xlink="http://www.w3.org/1999/xlink">
    <!-- Generator: Sketch 47.1 (45422) - http://www.bohemiancoding.com/sketch -->
    <title>ctsi_histogram_fill</title>
    <desc>Created with Sketch.</desc>
    <defs></defs>
    <g id="icon图标库" stroke="none" stroke-width="1" fill="none" fill-rule="evenodd">
        <g id="ctsi_histogram_fill" fill-rule="nonzero" fill="#000000">
            <g id="数据-1">
                <path d="M496.14511,479.465175 L480.035382,479.465175 L480.035382,287.773909 C480.035382,269.714321 465.586192,255.714604 447.78378,255.714604 L384.462414,255.714604 C366.337363,255.714604 352.178665,270.066185 352.178665,287.773909 L352.178665,479.465175 L320.214047,479.465175 L320.214047,32.1896466 C320.214047,14.3515803 305.764857,0.000584490524 287.962444,0.000584490524 L224.608347,0.000584490524 C206.517197,0.000584490524 192.356745,14.4170433 192.356745,32.1896466 L192.356745,479.465175 L160.392711,479.465175 L160.392711,159.694501 C160.392711,142.081464 145.945275,127.857302 128.141109,127.857302 L64.7864274,127.857302 C46.6952767,127.857302 32.5348248,142.114195 32.5348248,159.694501 L32.5348248,479.465175 L16.425097,479.465175 C7.79450991,479.465175 0.570207037,486.6246 0.570207037,495.447484 C0.570207037,504.012608 7.665922,511.429793 16.425097,511.429793 L496.111794,511.429793 C504.774528,511.429793 511.999416,504.270369 511.999416,495.447484 C512,486.881775 504.903116,479.465175 496.14511,479.465175 Z" id="Shape"></path>
            </g>
        </g>
    </g>
</svg>