<?xml version="1.0" encoding="UTF-8"?>
<svg width="512px" height="512px" viewBox="0 0 512 512" version="1.1" xmlns="http://www.w3.org/2000/svg" xmlns:xlink="http://www.w3.org/1999/xlink">
    <!-- Generator: Sketch 47.1 (45422) - http://www.bohemiancoding.com/sketch -->
    <title>ctsi_histogram_line</title>
    <desc>Created with Sketch.</desc>
    <defs></defs>
    <g id="icon图标库" stroke="none" stroke-width="1" fill="none" fill-rule="evenodd">
        <g id="ctsi_histogram_line" fill-rule="nonzero" fill="#000000">
            <g id="图表-3" transform="translate(0.000000, 18.000000)">
                <path d="M475.428571,475.428571 L402.285714,475.428571 C382.089143,475.428571 365.714286,459.053714 365.714286,438.857143 L365.714286,182.857143 C365.714286,162.660571 382.089143,146.285714 402.285714,146.285714 L475.428571,146.285714 C495.625143,146.285714 512,162.660571 512,182.857143 L512,438.857143 C512,459.053714 495.625143,475.428571 475.428571,475.428571 Z M475.428571,182.857143 L402.285714,182.857143 L402.285714,438.857143 L475.428571,438.857143 L475.428571,182.857143 Z M292.571429,475.428571 L219.428571,475.428571 C199.232,475.428571 182.857143,459.053714 182.857143,438.857143 L182.857143,36.5714286 C182.857143,16.3748571 199.232,0 219.428571,0 L292.571429,0 C312.768,0 329.142857,16.3748571 329.142857,36.5714286 L329.142857,438.857143 C329.142857,459.053714 312.768,475.428571 292.571429,475.428571 Z M292.571429,36.5714286 L219.428571,36.5714286 L219.428571,438.857143 L292.571429,438.857143 L292.571429,36.5714286 Z M109.714286,475.428571 L36.5714286,475.428571 C16.3748571,475.428571 0,459.053714 0,438.857143 L0,256 C0,235.803429 16.3748571,219.428571 36.5714286,219.428571 L109.714286,219.428571 C129.910857,219.428571 146.285714,235.803429 146.285714,256 L146.285714,438.857143 C146.285714,459.053714 129.910857,475.428571 109.714286,475.428571 Z M109.714286,256 L36.5714286,256 L36.5714286,438.857143 L109.714286,438.857143 L109.714286,256 Z" id="Shape"></path>
            </g>
        </g>
    </g>
</svg>