<?xml version="1.0" encoding="UTF-8"?>
<svg width="512px" height="512px" viewBox="0 0 512 512" version="1.1" xmlns="http://www.w3.org/2000/svg" xmlns:xlink="http://www.w3.org/1999/xlink">
    <!-- Generator: Sketch 47.1 (45422) - http://www.bohemiancoding.com/sketch -->
    <title>ctsi_histogram_brokenline</title>
    <desc>Created with Sketch.</desc>
    <defs></defs>
    <g id="icon图标库" stroke="none" stroke-width="1" fill="none" fill-rule="evenodd">
        <g id="ctsi_histogram_brokenline" fill-rule="nonzero" fill="#000000">
            <g id="折线图-2" transform="translate(0.000000, 48.000000)">
                <path d="M257.035364,289.064436 L257.035364,407.580013 C257.035364,409.663491 257.833548,411.748137 259.41883,413.345024 C261.00353,414.94191 263.09993,415.740645 265.184078,415.740645 L325.117908,415.740645 C327.214309,415.740645 329.298456,414.94191 330.895408,413.345024 C332.480107,411.748138 333.278875,409.663492 333.278875,407.580013 L333.278875,249.646371 L272.333894,302.103828 L257.035364,289.064436 Z" id="Shape"></path>
                <path d="M0.877169461,407.580013 C0.877169461,409.663492 1.67593735,411.759807 3.27288873,413.345025 C4.85758803,414.941911 6.94173534,415.740646 9.03813588,415.740646 L68.9597132,415.740646 C71.0561137,415.740646 73.1402611,414.941911 74.7249604,413.345025 C76.3219123,411.748138 77.1206796,409.663493 77.1206796,407.580013 L77.1206802,286.681067 L0.877169461,349.56992 L0.877169461,407.580013 Z" id="Shape"></path>
                <path d="M128.931469,243.919285 L128.931469,407.580013 C128.931469,409.663492 129.730237,411.748138 131.327189,413.345025 C132.924141,414.941911 135.008288,415.740646 137.091852,415.740646 L197.038518,415.740646 C199.134919,415.740646 201.219066,414.941911 202.803766,413.345025 C204.400718,411.748138 205.199485,409.663493 205.199485,407.580013 L205.199485,244.942062 L167.090275,212.499655 L128.931469,243.919285 Z" id="Shape"></path>
                <path d="M385.11417,407.580013 C385.11417,409.663492 385.900684,411.759807 387.485384,413.345025 C389.082336,414.941911 391.178736,415.740646 393.2623,415.740646 L453.221803,415.740646 C455.318204,415.740646 457.401768,414.941911 458.986466,413.345025 C460.584002,411.748138 461.382186,409.663493 461.382186,407.580013 L461.382186,139.353855 L385.11417,205.025153 L385.11417,407.580013 Z" id="Shape"></path>
                <path d="M371.962218,0.4743298 C370.888637,0.4743298 369.865818,1.09803132 369.441636,2.15873283 C369.005203,3.20659841 369.291685,4.36765192 370.040274,5.12846339 L427.35375,61.4664062 L272.333894,194.943239 L167.090275,105.301726 L0.440735644,242.771067 L0.440735644,302.153421 L167.090858,164.696332 L272.333894,254.312757 L459.586271,93.1229141 L506.929446,139.690502 C507.690871,140.426808 508.851389,140.688775 509.899298,140.251776 C510.934953,139.814776 511.559264,138.817087 511.559264,137.756385 L511.559264,3.18209368 C511.559264,2.49596351 511.297287,1.79699742 510.76108,1.26081254 C510.22429,0.736879751 509.537548,0.4743298 508.839137,0.4743298 L371.962218,0.4743298 Z" id="Shape"></path>
            </g>
        </g>
    </g>
</svg>