<?xml version="1.0" encoding="UTF-8"?>
<svg width="512px" height="512px" viewBox="0 0 512 512" version="1.1" xmlns="http://www.w3.org/2000/svg" xmlns:xlink="http://www.w3.org/1999/xlink">
    <!-- Generator: Sketch 47.1 (45422) - http://www.bohemiancoding.com/sketch -->
    <title>ctsi_histogram_refresh</title>
    <desc>Created with Sketch.</desc>
    <defs></defs>
    <g id="icon图标库" stroke="none" stroke-width="1" fill="none" fill-rule="evenodd">
        <g id="ctsi_histogram_refresh" fill-rule="nonzero" fill="#000000">
            <g id="图表变更" transform="translate(0.000000, 73.000000)">
                <path d="M413.526047,434.120005 C364.222156,431.621694 326.203275,388.73401 328.742257,338.618652 C328.935589,334.760534 330.654993,331.137598 333.521589,328.548181 C336.388184,325.958763 340.166718,324.615371 344.024565,324.814028 C347.883017,325.006375 351.506635,326.725078 354.096824,329.59136 C356.687013,332.457642 358.03117,336.236239 357.833063,340.094399 C356.101675,374.212815 381.780058,403.350101 414.961123,405.029199 C423.376847,405.464749 431.787759,404.084287 439.622752,400.981547 C447.129307,398.024243 455.580959,401.703927 458.538264,409.162065 C461.493621,416.646966 457.831058,425.1115 450.351935,428.08145 C438.651701,432.711831 426.092342,434.771263 413.526047,434.120005 L413.526047,434.120005 Z M496.167873,359.548307 C492.309237,359.356467 488.685311,357.637913 486.095017,354.771514 C483.504722,351.905115 482.160745,348.126227 482.359375,344.267936 C484.08689,310.147583 458.414317,281.012233 425.231314,279.331199 C417.301881,278.914881 409.370467,280.112698 401.917612,282.852075 C394.362657,285.630085 385.985619,281.761426 383.201578,274.208691 C380.421207,266.652058 384.291319,258.272017 391.846898,255.488784 C402.993521,251.404033 414.851856,249.618694 426.707061,250.240392 C476.010952,252.736767 514.029833,295.630261 511.490851,345.741746 C511.039605,353.76152 504.18571,359.956945 496.167873,359.548307 L496.167873,359.548307 Z" id="Shape"></path>
                <polygon id="Shape" points="192.165948 66.7093813 260.555778 66.7093813 260.555778 320.452634 192.165948 320.452634"></polygon>
                <path d="M33.6548511,354.330903 L33.6548511,0.231050786 L0.41955879,0.231050786 L0.41955879,387.558448 L17.0381733,387.558448 L17.0381733,387.566194 L302.382164,387.566194 C298.378978,376.86405 295.754347,365.695866 294.571551,354.330903 L33.6548511,354.330903 L33.6548511,354.330903 Z M356.428973,225.886696 L356.428973,129.345347 L288.039143,129.345347 L288.039143,320.452634 L295.262944,320.452634 C301.038111,280.733352 324.034198,246.624619 356.428973,225.886696 L356.428973,225.886696 Z M452.302168,206.518002 L452.302168,33.4721528 L383.912338,33.4721528 L383.912338,212.393876 C398.51167,207.194392 413.895649,204.541304 429.393231,204.550339 C437.071365,204.559074 444.735,205.217308 452.302168,206.518002 Z" id="Shape"></path>
                <polygon id="Shape" points="95.0164844 190.065942 163.404377 190.065942 163.404377 320.450697 95.0164844 320.450697"></polygon>
                <path d="M346.152971,291.532256 C340.279034,290.130102 338.869134,285.39493 343.01943,281.00836 L374.939719,247.275342 C379.090015,242.888772 383.896844,244.035284 385.620486,249.822071 L398.877031,294.330752 C400.600673,300.117539 397.20568,303.708136 391.331743,302.305983 L346.152971,291.532256 L346.152971,291.532256 Z M490.683207,390.130353 C496.624928,391.207145 498.296279,395.857103 494.391941,400.464455 L464.377341,435.907557 C460.473002,440.514908 455.613883,439.635658 453.572627,433.951515 L437.88749,390.240744 C435.846234,384.5566 439.041749,380.785893 444.98347,381.862684 L490.683207,390.130353 L490.683207,390.130353 Z" id="Shape"></path>
            </g>
        </g>
    </g>
</svg>