<?xml version="1.0" encoding="utf-8"?>
<!-- Generator: Adobe Illustrator 21.0.0, SVG Export Plug-In . SVG Version: 6.00 Build 0)  -->
<svg version="1.1" id="图层_1" xmlns="http://www.w3.org/2000/svg" xmlns:xlink="http://www.w3.org/1999/xlink" x="0px" y="0px"
	 viewBox="0 0 512 512" style="enable-background:new 0 0 512 512;" xml:space="preserve">
<path d="M508.4,256.3c0,139.6-113.1,252.7-252.7,252.7S3,395.9,3,256.3S116.1,3.6,255.7,3.6S508.4,116.8,508.4,256.3z M57.8,176.9
	v152.8h33V176.9H57.8z M149.5,271h24c34.1-1.7,51.8-17.3,52.9-47.1c0-31.9-20.7-47.6-62-47.1h-47.1v152.8h32.2V271z M159.4,202.5
	c21.5-0.5,32.2,6.6,32.2,21.5c0.5,17.1-10.2,24.5-32.2,22.3c-5-0.5-8.3-0.8-9.9-0.8v-43C151.2,203,154.5,203,159.4,202.5z
	 M309,329.7l38-106.6h-29.7l-24.8,72.7l-24-72.7h-33.9l39.7,106.6H309z M414.7,180.2c-40.2-0.5-59.5,29.2-57.8,89.2
	c-0.6,41.3,16.5,62,51.2,62c17.1-0.6,31.1-5.8,42.1-15.7c7.7-8.8,11.8-20.7,12.4-35.5c-2.2-28.1-17.3-43.2-45.4-45.4
	c-12.1,0-21.2,3.6-27.3,10.7c0-28.6,6.9-43.2,20.7-43.8c5,0,9.1,1.1,12.4,3.3c2.2,3.3,3.6,8,4.1,14h31.4
	C457.9,194.8,443.3,181.8,414.7,180.2z M409.8,311.5c-12.7-0.5-19.3-9.9-19.8-28.1c1.1-17.1,7.7-26.2,19.8-27.3
	c12.7,0.6,19.3,9.6,19.8,27.3C428.5,301.6,421.9,311,409.8,311.5z"/>
</svg>
