<?xml version="1.0" encoding="utf-8"?>
<!-- Generator: Adobe Illustrator 21.0.0, SVG Export Plug-In . SVG Version: 6.00 Build 0)  -->
<svg version="1.1" id="图层_1" xmlns="http://www.w3.org/2000/svg" xmlns:xlink="http://www.w3.org/1999/xlink" x="0px" y="0px"
	 viewBox="0 0 512 512" style="enable-background:new 0 0 512 512;" xml:space="preserve">
<path d="M44.3,156.3v191H3v-191H44.3z M117.6,347.3H77.4v-191h58.9c51.6-0.7,77.4,18.9,77.4,58.9c-1.4,37.2-23.4,56.8-66.1,58.9
	h-29.9V347.3z M117.6,188.3V242c2.1,0,6.2,0.4,12.4,1c27.5,2.8,41-6.5,40.3-27.9c0-18.6-13.4-27.5-40.3-26.8
	C123.8,189,119.7,189,117.6,188.3z M273.6,347.3L224,214.1h42.3l29.9,90.9l31-90.9h37.2l-47.5,133.2H273.6z M503.8,208.9h-39.2
	c-0.7-7.6-2.4-13.4-5.2-17.6c-4.1-2.7-9.3-4.1-15.5-4.1c-17.2,0.7-25.8,18.9-25.8,54.7c7.6-8.9,18.9-13.4,34.1-13.4
	c35.1,2.8,54,21.7,56.8,56.8c-0.7,18.6-5.9,33.4-15.5,44.4c-13.8,12.4-31.3,18.9-52.7,19.6c-43.4,0-64.7-25.8-64-77.4
	c-2.1-75,22-112.2,72.3-111.5C484.9,162.5,503.1,178.6,503.8,208.9z M467.7,289.5c-0.7-22-9-33.4-24.8-34.1
	c-15.2,1.4-23.4,12.7-24.8,34.1c0.7,22.7,8.9,34.4,24.8,35.1C458,323.9,466.3,312.2,467.7,289.5z"/>
</svg>
