<?xml version="1.0" encoding="UTF-8"?>
<svg width="512px" height="512px" viewBox="0 0 512 512" version="1.1" xmlns="http://www.w3.org/2000/svg" xmlns:xlink="http://www.w3.org/1999/xlink">
    <!-- Generator: Sketch 47.1 (45422) - http://www.bohemiancoding.com/sketch -->
    <title>ctsi_lizard</title>
    <desc>Created with Sketch.</desc>
    <defs></defs>
    <g id="icon图标库" stroke="none" stroke-width="1" fill="none" fill-rule="evenodd">
        <g id="ctsi_lizard" fill-rule="nonzero" fill="#000000">
            <g id="hand-lizard" transform="translate(0.000000, 57.000000)">
                <path d="M494.832,229.905058 L364.736,29.1927546 C352.889778,10.9127139 332.815111,0 311.037333,0 L49.7777778,0 C22.3297778,0 0,22.3394067 0,49.7972603 L0,56.9111546 C0,96.1371679 31.9004444,128.050098 71.1111111,128.050098 L245.370667,128.050098 L229.074667,170.733464 L128,170.733464 C84.8684444,170.733464 49.7777778,205.837865 49.7777778,248.986301 C49.7777778,276.445044 72.1075556,298.783562 99.5555556,298.783562 L216.490667,298.783562 C219.145778,298.783562 221.747556,299.271753 224.221333,300.233907 L312.888889,334.724734 L312.888889,398.378082 L512,398.378082 L512,287.960661 C512,267.308136 506.063111,247.232726 494.832,229.905058 Z M469.333333,355.694716 L355.555556,355.694716 L355.555556,334.724734 C355.555556,316.986239 344.876444,301.371241 328.352,294.943837 L239.684444,260.452121 C232.291197,257.57044 224.425253,256.094527 216.490667,256.100196 L99.5555556,256.100196 C95.6346667,256.100196 92.4444444,252.908725 92.4444444,248.986301 C92.4444444,229.373295 108.394667,213.41683 128,213.41683 L229.074667,213.41683 C246.645333,213.41683 262.662222,202.384069 268.932444,185.963422 L290.756444,128.802392 C298.752889,107.858198 283.264889,85.3667319 260.863111,85.3667319 L71.1111111,85.3667319 C55.4266667,85.3667319 42.6666667,72.6017378 42.6666667,56.9111546 L42.6666667,49.7972603 C42.6666667,45.8748368 45.8568889,42.6833659 49.7777778,42.6833659 L311.037333,42.6833659 C318.296,42.6833659 324.986667,46.3203444 328.936889,52.4133949 L459.032889,253.127477 C465.763437,263.496766 469.341598,275.597092 469.333333,287.960661 L469.333333,355.694716 L469.333333,355.694716 Z" id="Shape"></path>
            </g>
        </g>
    </g>
</svg>