<?xml version="1.0" standalone="no"?><!DOCTYPE svg PUBLIC "-//W3C//DTD SVG 1.1//EN" "http://www.w3.org/Graphics/SVG/1.1/DTD/svg11.dtd"><svg class="icon" width="200px" height="200.00px" viewBox="0 0 1024 1024" version="1.1" xmlns="http://www.w3.org/2000/svg"><path fill="#000000" d="M804.688387 438.623226h-55.160504V307.322806C749.630222 176.227064 643.095743 69.590246 512 69.590246S274.472117 176.329402 274.472117 307.527484v131.095742h-54.546472c-18.93264 0-34.488107 15.043774-34.488108 33.874076v396.664401c0 47.178093 38.68399 85.452728 85.862083 85.452728h482.219469c47.178093 0 85.248051-38.274635 85.248051-85.452728V472.497302c-0.204677-18.830302-15.146112-33.874076-34.078753-33.874076zM342.731961 307.527484c0-93.435139 75.935239-169.472716 169.268039-169.472717s169.268039 75.935239 169.268039 169.370378v131.30042H342.731961V307.527484z m427.570657 561.736558c0 9.415151-7.470718 17.090546-16.885868 17.090545H271.197282c-9.415151 0-17.4999-7.675395-17.4999-17.090545v-362.278633h516.502898v362.278633z"  /><path fill="#000000" d="M512 799.162103c18.93264 0 34.181091-15.35079 34.181091-34.181092V641.765341c0-18.93264-15.248451-34.181091-34.181091-34.181092s-34.181091 15.35079-34.181091 34.181092v123.113332c0 18.93264 15.35079 34.28343 34.181091 34.28343z"  /></svg>