<?xml version="1.0" standalone="no"?><!DOCTYPE svg PUBLIC "-//W3C//DTD SVG 1.1//EN" "http://www.w3.org/Graphics/SVG/1.1/DTD/svg11.dtd"><svg class="icon" width="200px" height="200.00px" viewBox="0 0 1024 1024" version="1.1" xmlns="http://www.w3.org/2000/svg"><path fill="#000000" d="M820.096 419.392l-76.672 0L743.424 249.856C743.424 111.936 639.808 0 512 0S280.64 111.936 280.64 249.856l0 169.472L203.904 419.328c-19.136 0-34.688 16.704-34.688 37.504l0 529.728C169.216 1007.296 184.768 1024 203.904 1024l616.192 0c19.2 0 34.688-16.832 34.688-37.504L854.784 456.896C854.784 436.16 839.296 419.392 820.096 419.392zM581.696 854.528 442.304 854.528l22.976-127.872c-14.912-14.144-24.768-34.24-24.768-57.408 0-42.688 32-77.248 71.424-77.248 39.488 0 71.488 34.56 71.488 77.248 0 21.632-8.384 41.088-21.632 55.104L581.696 854.528zM673.088 419.392 354.048 419.392 354.048 251.392c0-107.392 62.464-182.976 161.856-182.976s157.184 75.584 157.184 182.976L673.088 419.392z" /></svg>