<?xml version="1.0" standalone="no"?><!DOCTYPE svg PUBLIC "-//W3C//DTD SVG 1.1//EN" "http://www.w3.org/Graphics/SVG/1.1/DTD/svg11.dtd"><svg class="icon" width="200px" height="200.00px" viewBox="0 0 1024 1024" version="1.1" xmlns="http://www.w3.org/2000/svg"><path fill="#000000" d="M807.103 340.337h-26.243c0.076-0.983 0.12-1.974 0.115-2.971l0.585-57.248c-0.571-128.028-76.836-230.729-194.278-261.626-23.637-6.219-48.594-9.311-74.163-9.198-74.863 0.344-142.728 28.999-191.085 80.692-47.059 50.314-72.792 118.694-72.445 192.43l-2.179 57.178 2.824 0.743h-35.213c-74.128 0-134.431 60.301-134.431 134.42v394.725c0 74.118 60.301 134.42 134.431 134.42h592.081c74.118 0 134.42-60.301 134.42-134.42v-394.726c0-74.118-60.302-134.419-134.42-134.419zM513.441 80.786c19.063-0.089 37.597 2.193 55.087 6.795 85.56 22.509 141.126 98.216 141.562 192.824l-0.584 57.243c0.004 0.905 0.054 1.8 0.125 2.691h-390.774l2.201-58.123c-0.526-116.209 80.382-200.926 192.384-201.43zM870.045 869.482c0 34.708-28.238 62.942-62.942 62.942h-592.081c-34.714 0-62.952-28.239-62.952-62.942v-394.725c0-34.706 28.239-62.936 62.952-62.936h592.081c34.703 0 62.942 28.23 62.942 62.936v394.725zM511.061 537.7c-37.842 0-68.631 30.788-68.631 68.63 0 23.86 12.558 46.158 32.888 58.587v105.888c0 19.704 16.030 35.735 35.744 35.735 19.703 0 35.735-16.031 35.735-35.735v-105.888c20.339-12.42 32.897-34.723 32.897-58.587-0.002-37.843-30.791-68.63-68.633-68.63z" /></svg>