<?xml version="1.0" standalone="no"?><!DOCTYPE svg PUBLIC "-//W3C//DTD SVG 1.1//EN" "http://www.w3.org/Graphics/SVG/1.1/DTD/svg11.dtd"><svg class="icon" width="200px" height="200.00px" viewBox="0 0 1024 1024" version="1.1" xmlns="http://www.w3.org/2000/svg"><path fill="#000000" d="M260.348 323.096q5.735 21.986 12.904 47.794t16.251 52.574 20.551 53.051 24.853 49.228v376.618l-238.971 59.265v-597.427zM332.040 290.596q0-4.78-0.478-9.081t-0.478-9.081q0-43.015 16.728-80.294t45.404-65.478 66.912-44.449 82.206-16.251 82.206 16.251 66.912 44.449 45.404 65.478 16.728 80.294v11.471q0 5.735-0.956 11.471-5.735 50.662-22.463 97.022t-42.537 89.375-59.265 82.684-71.692 75.992q-6.692 6.692-14.339 6.692t-14.339-6.692q-39.192-36.324-72.647-76.471t-59.265-84.118-42.537-91.287-21.508-97.978zM542.334 184.493q-19.118 0-35.368 6.692t-28.198 18.639-19.118 28.198-7.169 34.412 7.169 34.412 19.118 28.198 28.198 18.639 35.368 6.692 35.845-6.692 28.676-18.639 19.118-28.198 7.169-34.412-7.169-34.412-19.118-28.198-28.676-18.639-35.845-6.692zM394.172 603.171q27.721 30.588 54.008 55.441t47.316 43.971q24.853 21.986 46.839 39.192 11.471-9.559 25.809-21.986 12.427-10.515 28.676-26.765t37.28-36.324v304.927l-239.927-59.265v-299.192zM932.334 303.979v598.382l-238.971 59.265v-366.103q5.735-5.735 10.992-11.949t10.992-11.949q19.118-21.029 35.368-50.184t29.155-62.133 22.941-65.956 17.684-61.655z" /></svg>