<?xml version="1.0" encoding="UTF-8"?>
<svg width="512px" height="512px" viewBox="0 0 512 512" version="1.1" xmlns="http://www.w3.org/2000/svg" xmlns:xlink="http://www.w3.org/1999/xlink">
    <!-- Generator: Sketch 47.1 (45422) - http://www.bohemiancoding.com/sketch -->
    <title>ctsi_order_descending</title>
    <desc>Created with Sketch.</desc>
    <defs></defs>
    <g id="icon图标库" stroke="none" stroke-width="1" fill="none" fill-rule="evenodd">
        <g id="ctsi_order_descending" fill-rule="nonzero" fill="#000000">
            <g id="图表排序降序">
                <path d="M15.0309808,46.0857723 C6.53420519,46.0857723 0.253979707,52.7354228 0.253979707,60.8627734 C0.253979707,69.359549 6.90363021,75.6397745 15.0309808,75.6397745 L256.634949,75.6397745 C265.131725,75.6397745 271.41195,68.990124 271.41195,60.8627734 C271.41195,52.3659977 264.7623,46.0857723 256.634949,46.0857723 L15.0309808,46.0857723 Z M57.5148591,174.276257 C49.0180834,174.276257 42.7378579,180.925908 42.7378579,189.053258 C42.7378579,197.550034 49.3875085,203.830259 57.5148591,203.830259 L256.634949,203.830259 C265.131725,203.830259 271.41195,197.180609 271.41195,189.053258 C271.41195,180.556483 264.7623,174.276257 256.634949,174.276257 L57.5148591,174.276257 Z M101.476437,305.791567 C92.9796618,305.791567 86.6994363,312.441218 86.6994363,320.568568 C86.6994363,328.695919 93.3490868,335.345569 101.476437,335.345569 L256.634949,335.345569 C265.131725,335.345569 271.41195,328.695919 271.41195,320.568568 C271.41195,312.441218 264.7623,305.791567 256.634949,305.791567 L101.476437,305.791567 Z M145.438016,437.306877 C136.94124,437.306877 130.661015,443.956528 130.661015,452.083878 C130.661015,460.580654 137.310665,466.860879 145.438016,466.860879 L256.634949,466.860879 C265.131725,466.860879 271.41195,460.211229 271.41195,452.083878 C271.41195,443.587103 264.7623,437.306877 256.634949,437.306877 L145.438016,437.306877 Z M324.239729,409.6 C319.067779,409.6 316.851229,415.5108 320.176054,419.205051 L411.054611,510.083608 C413.271161,512.300158 416.965411,512.300158 419.181962,510.083608 L510.060519,419.205051 C513.754769,415.5108 511.168794,409.6 506.366268,409.6 L430.634138,409.6 L430.634138,15.0540699 C430.634138,6.55729425 423.984487,0.277068771 415.857136,0.277068771 C407.360361,0.277068771 401.080135,6.92671928 401.080135,15.0540699 L401.080135,409.6 L324.239729,409.6 Z" id="Shape"></path>
            </g>
        </g>
    </g>
</svg>