<?xml version="1.0" encoding="UTF-8"?>
<svg width="512px" height="512px" viewBox="0 0 512 512" version="1.1" xmlns="http://www.w3.org/2000/svg" xmlns:xlink="http://www.w3.org/1999/xlink">
    <!-- Generator: Sketch 47.1 (45422) - http://www.bohemiancoding.com/sketch -->
    <title>ctsi_order_ascending</title>
    <desc>Created with Sketch.</desc>
    <defs></defs>
    <g id="icon图标库" stroke="none" stroke-width="1" fill="none" fill-rule="evenodd">
        <g id="ctsi_order_ascending" fill-rule="nonzero" fill="#000000">
            <g id="图表排序升序">
                <path d="M497.210235,465.233297 C505.71435,465.233297 512,458.589744 512,450.469845 C512,441.98086 505.344606,435.706392 497.210235,435.706392 L255.397582,435.706392 C246.893468,435.706392 240.607818,442.349946 240.607818,450.469845 C240.607818,458.95883 247.263212,465.233297 255.397582,465.233297 L497.210235,465.233297 Z M454.689662,337.160347 C463.193776,337.160347 469.479426,330.516793 469.479426,322.396894 C469.479426,313.907909 462.824032,307.633442 454.689662,307.633442 L255.397582,307.633442 C246.893468,307.633442 240.607818,314.276995 240.607818,322.396894 C240.607818,330.885879 247.263212,337.160347 255.397582,337.160347 L454.689662,337.160347 L454.689662,337.160347 Z M410.690112,205.765619 C419.194226,205.765619 425.479876,199.122066 425.479876,191.002167 C425.479876,182.882268 418.824482,176.238714 410.690112,176.238714 L255.397582,176.238714 C246.893468,176.238714 240.607818,182.882268 240.607818,191.002167 C240.607818,199.122066 247.263212,205.765619 255.397582,205.765619 L410.690112,205.765619 Z M366.690562,74.370892 C375.194676,74.370892 381.480326,67.7273384 381.480326,59.6074395 C381.480326,51.1184543 374.824932,44.843987 366.690562,44.843987 L255.397582,44.843987 C246.893468,44.843987 240.607818,51.4875406 240.607818,59.6074395 C240.607818,68.0964247 247.263212,74.370892 255.397582,74.370892 L366.690562,74.370892 Z M187.734409,102.052365 C192.910826,102.052365 195.129291,96.1469845 191.801594,92.4561213 L100.844541,1.66088841 C98.6260763,-0.553629469 94.9286352,-0.553629469 92.7101704,1.66088841 L1.75311748,92.4561213 C-1.9443237,96.1469845 0.643885123,102.052365 5.45055865,102.052365 L81.2481028,102.052365 L81.2481028,496.236547 C81.2481028,504.725533 87.9034969,511 96.0378675,511 C104.541982,511 110.827632,504.356446 110.827632,496.236547 L110.827632,102.052365 L187.734409,102.052365 Z" id="Shape"></path>
            </g>
        </g>
    </g>
</svg>