<?xml version="1.0" encoding="UTF-8"?>
<svg width="512px" height="512px" viewBox="0 0 512 512" version="1.1" xmlns="http://www.w3.org/2000/svg" xmlns:xlink="http://www.w3.org/1999/xlink">
    <!-- Generator: Sketch 47.1 (45422) - http://www.bohemiancoding.com/sketch -->
    <title>ctsi_pointto_2</title>
    <desc>Created with Sketch.</desc>
    <defs></defs>
    <g id="icon图标库" stroke="none" stroke-width="1" fill="none" fill-rule="evenodd">
        <g id="ctsi_pointto_2" fill-rule="nonzero" fill="#000000">
            <g id="右-手势" transform="translate(0.000000, 13.000000)">
                <path d="M323.301953,431.174512 C323.301953,420.074478 319.934224,409.782699 314.168673,401.188256 C335.156358,393.806194 350.243782,373.815357 350.243782,350.349024 C350.243782,339.24899 346.876053,328.957211 341.110502,320.362768 C362.098187,312.980706 377.185612,292.989869 377.185612,269.523535 C377.185612,259.71671 374.545312,250.502604 369.938259,242.581706 L458.0111,242.581706 C487.727938,242.581706 511.894758,218.414885 511.894758,188.698047 C511.894758,158.981209 487.727938,134.814388 458.0111,134.814388 L259.368992,134.814388 L322.22428,98.5506861 C335.021649,91.5188687 344.127987,80.0416493 347.899843,66.2474327 C351.563932,52.8034598 349.62412,38.8206504 342.457593,26.8584781 C327.801238,2.42223885 294.662788,-6.89963412 268.583097,6.11326948 C266.939646,6.92152436 231.726675,24.1104115 124.44431,77.7785357 C73.9283799,103.049972 37.7993866,130.773114 17.1080617,160.193592 C0.862138541,183.28274 0.0269418294,199.232303 0.0269418294,202.195904 L0.0269418294,336.905051 C0.0269418294,359.751722 6.62769003,380.874116 19.6944773,399.706455 C32.3032534,417.919132 50.7314647,433.626218 74.4672164,446.423587 C121.426825,471.721965 188.862224,485.085112 269.445236,485.085112 C299.162074,485.085112 323.328895,460.918291 323.328895,431.201454 L323.301953,431.174512 Z M87.2107017,422.687836 C59.7030939,407.896771 26.9418294,380.981884 26.9418294,336.878109 L26.9418294,202.43838 C27.0226549,201.387649 28.2889209,190.045139 41.0862898,172.937077 C53.856717,155.882899 80.7446627,129.695441 136.460366,101.864531 C245.682542,47.253443 280.087258,30.4686832 280.41056,30.3070323 C280.464444,30.2800904 280.491386,30.2800904 280.518328,30.2531486 C294.070068,23.4907494 311.824733,28.2863951 319.28762,40.7335202 C322.655349,46.3374208 323.544429,52.8842853 321.847094,59.1886734 C320.01505,65.8971889 315.488822,71.5280312 309.13055,75.0035272 C309.049725,75.0574109 308.941958,75.1112946 308.861132,75.1651782 L235.983484,117.221374 C220.276397,125.815817 213.675649,135.487934 216.34289,145.968306 C219.010131,156.475619 229.517445,161.78316 247.514587,161.78316 L457.984158,161.78316 C472.829106,161.78316 484.925987,173.880041 484.925987,188.724989 C484.925987,203.569937 472.829106,215.666818 457.984158,215.666818 L282.862267,215.666818 C275.426322,215.666818 269.391352,221.701788 269.391352,229.137733 C269.391352,236.573678 275.426322,242.608648 282.862267,242.608648 L323.275011,242.608648 C338.119959,242.608648 350.21684,254.705529 350.21684,269.550477 C350.21684,284.395425 338.119959,296.492307 323.275011,296.492307 L282.862267,296.492307 C275.426322,296.492307 269.391352,302.527276 269.391352,309.963221 C269.391352,317.399166 275.426322,323.434136 282.862267,323.434136 L296.333182,323.434136 C311.178129,323.434136 323.275011,335.531017 323.275011,350.375965 C323.275011,365.220913 311.178129,377.317795 296.333182,377.317795 L255.920437,377.317795 C248.484492,377.317795 242.449523,383.352765 242.449523,390.78871 C242.449523,398.224654 248.484492,404.259624 255.920437,404.259624 L269.391352,404.259624 C284.2363,404.259624 296.333182,416.356506 296.333182,431.201454 C296.333182,446.046402 284.2363,458.143283 269.391352,458.143283 C193.253742,458.143283 130.236803,445.884751 87.1837599,422.714777 L87.2107017,422.687836 Z" id="Shape"></path>
            </g>
        </g>
    </g>
</svg>