<?xml version="1.0" encoding="UTF-8"?>
<svg width="512px" height="512px" viewBox="0 0 512 512" version="1.1" xmlns="http://www.w3.org/2000/svg" xmlns:xlink="http://www.w3.org/1999/xlink">
    <!-- Generator: Sketch 47.1 (45422) - http://www.bohemiancoding.com/sketch -->
    <title>ctsi_pointto_1</title>
    <desc>Created with Sketch.</desc>
    <defs></defs>
    <g id="icon图标库" stroke="none" stroke-width="1" fill="none" fill-rule="evenodd">
        <g id="ctsi_pointto_1" fill-rule="nonzero" fill="#000000">
            <g id="手指右" transform="translate(0.000000, 37.000000)">
                <path d="M73.142857,347.5 C73.142857,342.547619 71.3333332,338.261905 67.7142855,334.642857 C64.0952378,331.023809 59.8095235,329.214285 54.8571425,329.214285 C49.9047615,329.214286 45.6190472,331.023809 41.9999995,334.642857 C38.3809518,338.261905 36.571428,342.547619 36.571428,347.5 C36.571428,352.452381 38.3809518,356.738095 41.9999995,360.357143 C45.6190472,363.976191 49.9047615,365.785714 54.8571425,365.785714 C59.8095235,365.785714 64.0952378,363.976191 67.7142855,360.357143 C71.3333332,356.738095 73.142857,352.452381 73.142857,347.5 Z M475.428571,182.928572 C475.428571,173.214286 471.714286,164.690476 464.285714,157.357143 C456.857143,150.02381 448.380953,146.357143 438.857143,146.357143 L274.285714,146.357143 C274.285714,142.547619 275.714286,137.928572 278.571429,132.5 C281.428572,127.071428 284.571429,121.833333 288,116.785715 C291.428572,111.738096 294.571429,105.261905 297.428572,97.357143 C300.285715,89.4523807 301.714286,81.4047617 301.714286,73.214286 C301.714286,60.4523813 297.476191,51.166667 289.000001,45.357143 C280.523811,39.547619 269.523811,36.6428572 256.000001,36.6428575 C251.428572,36.6428575 242.857144,49.8809527 230.285715,76.357143 C225.714287,84.7380953 222.190477,90.9285715 219.714287,94.9285715 C212.095239,107.119048 201.428573,120.928572 187.714287,136.357143 C174.190477,151.785714 164.57143,161.880952 158.857144,166.642857 C145.714287,177.5 132.380954,182.928572 118.857144,182.928572 L109.714287,182.928572 L109.714287,365.785715 L118.857144,365.785715 C132.57143,365.785715 148.476191,368.833334 166.571429,374.928572 C184.666667,381.02381 203.095239,387.119048 221.857144,393.214286 C240.619049,399.309525 257.714287,402.357144 273.142858,402.357143 C309.142858,402.357143 327.142858,386.452382 327.142858,354.642858 C327.142858,349.690477 326.666668,344.357144 325.714287,338.642858 C331.428573,335.595239 335.952382,330.595239 339.285715,323.642858 C342.619049,316.690477 344.285715,309.690477 344.285715,302.642858 C344.285715,295.595239 342.57143,289.02381 339.142858,282.928572 C349.238096,273.404763 354.285715,262.071429 354.285715,248.928572 C354.285715,244.166668 353.333334,238.880953 351.428572,233.071429 C349.52381,227.261905 347.142858,222.738096 344.285715,219.500001 L438.857144,219.500001 C448.761906,219.500001 457.333334,215.880953 464.571429,208.642858 C471.809524,201.404763 475.428572,192.833334 475.428572,182.928572 L475.428571,182.928572 Z M512,182.642857 C512,202.642857 504.809524,219.880952 490.428571,234.357142 C476.047619,248.833333 458.857143,256.071428 438.857143,256.071428 L390.571428,256.071428 C389.809524,267.880952 386.285714,279.214285 380,290.071428 C380.571429,294.071428 380.857143,298.166666 380.857143,302.357142 C380.857143,321.595238 375.142857,338.547619 363.714286,353.214286 C363.904762,379.690476 355.809524,400.595238 339.428571,415.928571 C323.047619,431.261904 301.428571,438.928571 274.571428,438.928571 C249.238095,438.928571 218.571428,432.357142 182.571428,419.214285 C151.333333,407.97619 130.095238,402.357142 118.857143,402.357142 L36.5714285,402.357142 C26.4761905,402.357142 17.8571428,398.785714 10.7142855,391.642857 C3.57142817,384.5 -3.33333401e-07,375.880952 -6.75015599e-14,365.785714 L-6.75015599e-14,182.928571 C-6.75015599e-14,172.833333 3.5714285,164.214285 10.7142855,157.071428 C17.8571425,149.928571 26.4761902,146.357142 36.5714285,146.357142 L118.857143,146.357142 C120.761905,146.357142 122.809524,145.928571 125,145.071428 C127.190476,144.214285 129.428571,142.880952 131.714285,141.071428 C134,139.261904 136.142857,137.547619 138.142857,135.928571 C140.142857,134.309523 142.428571,132.166666 145,129.499999 C147.571429,126.833333 149.52381,124.785714 150.857143,123.357142 C152.190476,121.928571 154,119.880952 156.285714,117.214285 C158.571429,114.547619 159.904762,112.928571 160.285714,112.357142 C172.666667,98.2619045 182.190476,85.9761902 188.857143,75.4999995 C191.333333,71.4999995 194.47619,65.5952377 198.285714,57.785714 C202.095238,49.9761903 205.619048,43.1190475 208.857143,37.2142855 C212.095238,31.3095235 215.952381,25.3095235 220.428571,19.2142855 C224.904762,13.1190475 230.142857,8.40476183 236.142857,5.0714285 C242.142857,1.73809517 248.761904,0.0714285 256,0.0714285 C279.809524,0.0714285 299.47619,6.45238083 315,19.2142855 C330.52381,31.9761902 338.285715,49.9761902 338.285714,73.2142855 C338.285714,86.1666665 336.190476,98.3571427 332,109.785714 L438.857143,109.785714 C458.666667,109.785714 475.809524,117.023809 490.285714,131.499999 C504.761905,145.97619 512,163.023809 512,182.642856 L512,182.642857 Z" id="Shape"></path>
            </g>
        </g>
    </g>
</svg>