<?xml version="1.0" encoding="UTF-8"?>
<svg width="512px" height="512px" viewBox="0 0 512 512" version="1.1" xmlns="http://www.w3.org/2000/svg" xmlns:xlink="http://www.w3.org/1999/xlink">
    <!-- Generator: Sketch 47.1 (45422) - http://www.bohemiancoding.com/sketch -->
    <title>ctsi_radermap_circular</title>
    <desc>Created with Sketch.</desc>
    <defs></defs>
    <g id="icon图标库" stroke="none" stroke-width="1" fill="none" fill-rule="evenodd">
        <g id="ctsi_radermap_circular" fill-rule="nonzero" fill="#000000">
            <g id="雷达图">
                <path d="M436.963431,75.0231247 C431.514048,69.5737418 425.777856,64.4111685 420.041663,59.5354048 C420.615282,58.1013567 420.041663,56.6673085 418.894425,55.8068796 L413.445042,51.5047352 C412.297803,50.6443063 410.576945,50.6443063 409.429707,51.2179256 C309.333147,-23.9261969 166.501952,-16.182337 75.2964902,75.0231247 C-24.5132604,174.832875 -24.5132604,336.593505 75.2964902,436.403256 C175.106241,536.213007 336.866871,536.213007 436.676621,436.403256 C536.773182,336.593505 536.773182,174.832875 436.963431,75.0231247 Z M417.747186,417.187011 C328.549392,506.384805 183.997339,506.384805 94.7995449,417.187011 C5.60175055,327.989217 5.60175055,183.437164 94.7995449,94.2393698 C175.96667,13.0722451 303.310144,5.61519475 392.794748,72.4418381 L342.889873,136.113575 C285.241138,94.2393698 203.787204,99.4019431 151.874661,151.314486 C94.2259256,208.963221 94.2259256,302.46316 151.874661,359.825085 C181.702862,389.653287 221.282591,403.993768 260.57551,402.84653 C262.583177,406.575055 264.877654,410.01677 268.03256,413.171676 C283.52028,428.659396 308.759527,428.659396 324.534057,413.171676 C333.711965,403.993768 337.44049,391.660954 335.719632,379.61495 C344.610731,373.878757 352.92821,367.282136 360.38526,359.825085 C418.033996,302.17635 418.033996,208.676411 360.38526,151.027676 C358.090783,148.733199 355.796306,146.725532 353.21502,144.431055 L403.119895,80.4725077 C407.995659,84.4878425 412.871422,89.0767965 417.460376,93.6657505 C506.94498,183.437164 506.94498,327.989217 417.747186,417.187011 Z M324.534057,356.670179 C309.046337,341.18246 283.52028,340.89565 268.03256,356.670179 C257.994223,366.708516 254.552508,380.475379 257.133794,393.381812 C221.5694,393.668621 185.718197,380.188569 158.758092,352.941654 C104.837882,299.021444 104.837882,211.544508 158.758092,157.911107 C207.228919,109.44028 282.946661,104.564516 336.866871,143.570626 L266.598512,233.342039 C257.420604,229.039895 246.235028,230.760753 239.064788,238.217803 C229.60007,247.682521 229.60007,263.45705 239.064788,272.921768 C248.816315,282.386486 264.304035,282.386486 273.768753,272.921768 C282.086232,264.891098 283.23347,251.984665 277.210468,242.519947 L347.192018,153.035344 C347.478827,152.748534 347.765637,152.748534 347.765637,152.461724 C349.773304,154.182582 352.067781,156.190249 354.075449,158.197917 C407.708849,212.118127 407.995659,299.595063 354.075449,353.228464 C347.765637,359.538276 340.882206,365.274468 333.425155,370.150232 C331.417488,365.274468 328.549392,360.685514 324.534057,356.670179 L324.534057,356.670179 Z" id="Shape"></path>
            </g>
        </g>
    </g>
</svg>