<?xml version="1.0" encoding="UTF-8"?>
<svg width="512px" height="512px" viewBox="0 0 512 512" version="1.1" xmlns="http://www.w3.org/2000/svg" xmlns:xlink="http://www.w3.org/1999/xlink">
    <!-- Generator: Sketch 47.1 (45422) - http://www.bohemiancoding.com/sketch -->
    <title>ctsi_radermap_fill</title>
    <desc>Created with Sketch.</desc>
    <defs></defs>
    <g id="icon图标库" stroke="none" stroke-width="1" fill="none" fill-rule="evenodd">
        <g id="ctsi_radermap_fill" fill-rule="nonzero" fill="#000000">
            <g id="雷达图-2" transform="translate(0.000000, 23.000000)">
                <path d="M256,28.8593702 L484.283734,184.077436 L397.134797,441.73617 L114.865203,441.73617 L27.7162665,184.379552 L256,28.8593702 L256,28.8593702 Z M256,0.181560102 L0.363120749,175.47874 L98.0164085,464.975887 L414.006831,464.975887 L511.636879,175.176624 L256,0.181560102 L256,0.181560102 Z" id="Shape"></path>
                <path d="M256,112.708266 L395.786894,211.012266 L342.428505,372.017021 L169.548255,372.017021 L116.189866,211.198185 L256,112.708266 L256,112.708266 Z M256,84.0304569 L88.8367207,202.320613 L152.699461,395.256738 L359.323779,395.256738 L423.163279,202.111455 L256,84.0304569 L256,84.0304569 Z" id="Shape"></path>
                <polygon id="Shape" points="256 56.4913931 139.801419 242.385884 372.198581 428.326854"></polygon>
            </g>
        </g>
    </g>
</svg>