<?xml version="1.0" encoding="UTF-8"?>
<svg width="512px" height="512px" viewBox="0 0 512 512" version="1.1" xmlns="http://www.w3.org/2000/svg" xmlns:xlink="http://www.w3.org/1999/xlink">
    <!-- Generator: Sketch 47.1 (45422) - http://www.bohemiancoding.com/sketch -->
    <title>ctsi_radermap_line</title>
    <desc>Created with Sketch.</desc>
    <defs></defs>
    <g id="icon图标库" stroke="none" stroke-width="1" fill="none" fill-rule="evenodd">
        <g id="ctsi_radermap_line" fill-rule="nonzero" fill="#000000">
            <g id="雷达图-3" transform="translate(0.000000, 13.000000)">
                <path d="M256,0.044 L0,185.9 L97.792,486.956 L414.208,486.956 L512,185.9 L256,0.044 Z M459.008,184.364 L426.24,191.788 L271.104,97.068 L271.104,47.916 L459.008,184.364 Z M231.68,255.02 L160,365.612 L138.24,234.028 L231.68,255.02 L231.68,255.02 Z M149.76,206.124 L240.896,132.908 L240.896,226.604 L149.76,206.124 Z M256,272.684 L289.024,323.372 L193.792,368.428 L256,272.684 Z M280.32,255.02 L380.416,232.492 L313.088,305.196 L280.32,255.02 Z M270.848,226.604 L270.848,128.556 L388.352,200.236 L270.848,226.604 L270.848,226.604 Z M241.152,47.916 L241.152,98.604 L116.224,198.7 L52.992,184.62 L241.152,47.916 Z M39.936,212.012 L109.824,227.628 L138.24,399.148 L113.152,437.548 L39.936,212.012 Z M136.192,457.004 L165.888,411.436 L303.872,346.412 L375.808,457.26 L136.192,457.26 L136.192,457.004 Z M398.848,437.548 L327.936,328.492 L426.752,222.252 L472.064,212.012 L398.848,437.548 L398.848,437.548 Z" id="Shape"></path>
            </g>
        </g>
    </g>
</svg>