<?xml version="1.0" encoding="UTF-8"?>
<svg width="512px" height="512px" viewBox="0 0 512 512" version="1.1" xmlns="http://www.w3.org/2000/svg" xmlns:xlink="http://www.w3.org/1999/xlink">
    <!-- Generator: Sketch 47.1 (45422) - http://www.bohemiancoding.com/sketch -->
    <title>ctsi_ring_line</title>
    <desc>Created with Sketch.</desc>
    <defs></defs>
    <g id="icon图标库" stroke="none" stroke-width="1" fill="none" fill-rule="evenodd">
        <g id="ctsi_ring_line" fill-rule="nonzero" fill="#000000">
            <g id="环状图">
                <path d="M235.912855,412.23782 C157.673996,402.389602 98.6619706,335.327262 98.6619706,256.385342 C98.6619706,177.599061 157.438927,110.615078 235.443254,100.532864 C241.305493,99.7514465 245.68218,94.8273375 245.68218,88.8872788 L245.68218,13.4617358 C245.68218,10.1793543 244.274985,7.05261216 241.852377,4.78618029 C239.429233,2.59756813 236.146851,1.50379874 232.863933,1.73779455 C169.47522,7.36496436 110.776621,36.3627338 67.5539455,83.3379287 C24.0962013,130.625476 0.179253669,192.059572 0.179253669,256.385878 C0.179253669,320.790004 24.1745577,382.302994 67.7879413,429.590541 C111.167329,476.643556 169.944285,505.562432 233.410818,511.034499 C233.72317,511.034499 234.114415,511.112855 234.426767,511.112855 C237.318977,511.112855 240.21065,510.019086 242.320906,508.06447 C244.74405,505.875857 246.150709,502.671296 246.150709,499.388914 L246.150709,423.963371 C246.150709,417.944956 241.773484,412.943027 235.911782,412.23943 L235.912855,412.23782 Z M222.703899,486.178348 C110.074096,469.999363 23.6287463,371.438289 23.6287463,256.385342 C23.6287463,139.535027 108.12109,42.9280335 222.235371,26.6712285 L222.235371,78.9607044 C183.077031,86.3079581 147.27943,106.629635 120.548092,136.721711 C91.316327,169.705459 75.2151614,212.225073 75.2151614,256.386415 C75.2151614,343.692075 137.978096,418.257845 222.782792,433.967765 L222.782792,486.178885 L222.703899,486.178348 Z M496.110289,286.085635 L419.512621,286.085635 C414.119447,286.085635 409.42987,289.759262 408.179388,294.917904 C392.156579,358.462792 337.522314,405.749803 272.414055,412.627992 C266.473459,413.253233 261.940595,418.255161 261.940595,424.273577 L261.940595,499.620763 C261.940595,502.903145 263.269434,505.95153 265.692579,508.218499 C267.881191,510.250935 270.695044,511.344704 273.664537,511.344704 L274.52431,511.344704 C303.443723,509.234449 331.503899,502.35626 358.000168,490.788495 C383.715019,479.611438 407.241258,464.29169 428.032537,445.299388 C469.92691,407.078642 498.298901,355.414407 507.834767,299.764193 C508.382189,296.325635 507.443522,292.886004 505.255447,290.228864 C502.832302,287.571723 499.54992,286.086709 496.110826,286.086709 L496.110289,286.085635 Z M285.232302,486.647413 L285.232302,434.514113 C352.450818,423.414876 408.257208,374.721208 428.344889,309.535128 L481.728671,309.535128 C459.765266,403.952973 381.526407,474.532763 285.232302,486.64795 L285.232302,486.647413 Z M285.545191,0.096067086 C280.542725,-0.529174004 276.087681,3.37844864 276.087681,8.45927044 L276.087681,93.6541384 C276.087681,97.7184738 278.979891,101.157568 282.887514,101.939522 C353.388411,115.539723 407.163438,175.88005 410.914885,249.428797 C411.149417,253.962197 414.823044,257.479648 419.356444,257.479648 L503.535363,257.479648 C508.303296,257.479648 512.133099,253.493669 511.976922,248.725736 C507.755874,120.620008 410.524176,15.9632369 285.545191,0.096067086 L285.545191,0.096067086 Z" id="Shape"></path>
            </g>
        </g>
    </g>
</svg>