<?xml version="1.0" encoding="UTF-8"?>
<svg width="512px" height="512px" viewBox="0 0 512 512" version="1.1" xmlns="http://www.w3.org/2000/svg" xmlns:xlink="http://www.w3.org/1999/xlink">
    <!-- Generator: Sketch 47.1 (45422) - http://www.bohemiancoding.com/sketch -->
    <title>ctsi_ring_fill</title>
    <desc>Created with Sketch.</desc>
    <defs></defs>
    <g id="icon图标库" stroke="none" stroke-width="1" fill="none" fill-rule="evenodd">
        <g id="ctsi_ring_fill" fill-rule="nonzero" fill="#000000">
            <g id="图表1">
                <path d="M364.989764,185.873346 L483.563034,137.890032 C444.216975,61.8945228 368.652595,8.26600926 279.384318,0.108634691 L279.384318,128.162621 C314.646081,134.797681 345.613577,155.674351 364.989764,185.873346 L364.989764,185.873346 Z M127.110775,255.391941 C127.029719,193.173162 171.447118,139.795455 232.644463,128.56908 L232.644463,0.108634691 C102.786668,11.9229664 0.497017112,121.685707 0.497017112,255.391941 C0.386068166,310.423793 18.0323566,364.023069 50.8139463,408.225833 L146.239021,322.823029 C134.424689,302.956461 127.110775,279.746592 127.110775,255.391941 Z M501.016692,180.960007 L382.418752,228.943322 C384.099214,237.513029 385.244582,245.984646 385.244582,254.972561 C385.244582,326.165744 327.626074,384.257671 256.125697,384.257671 C227.557918,384.338901 199.808921,374.71868 177.421831,356.972051 L81.9961698,442.381317 C127.843224,485.057755 188.797986,511.093455 256.125109,511.093455 C397.347899,511.093455 511.85188,396.410914 511.85188,254.985482 C511.950558,229.362115 507.880681,204.588671 501.016692,180.960007 Z" id="Shape"></path>
            </g>
        </g>
    </g>
</svg>