<?xml version="1.0" encoding="UTF-8"?>
<svg width="512px" height="512px" viewBox="0 0 512 512" version="1.1" xmlns="http://www.w3.org/2000/svg" xmlns:xlink="http://www.w3.org/1999/xlink">
    <!-- Generator: Sketch 47.1 (45422) - http://www.bohemiancoding.com/sketch -->
    <title>ctsi_rock_line</title>
    <desc>Created with Sketch.</desc>
    <defs></defs>
    <g id="icon图标库" stroke="none" stroke-width="1" fill="none" fill-rule="evenodd">
        <g id="ctsi_rock_line" fill-rule="nonzero" fill="#000000">
            <g id="hand" transform="translate(56.000000, 0.000000)">
                <path d="M206.602462,325.485367 L205.126356,330.873626 C204.783559,332.126068 204.370644,333.496528 204.146267,334.111052 C203.886572,335.008922 203.413928,335.800731 203.083596,336.379902 L202.150771,338.222952 C196.163764,353.961928 183.705677,363.296758 166.252617,364.797193 C164.800403,364.915211 163.359615,364.97396 161.966092,364.97396 C146.154824,364.97396 133.6261,357.447867 125.561013,343.03204 L121.805824,335.576654 C121.29786,333.993034 120.743152,332.161422 120.388928,330.719735 L119.077988,325.509283 L124.439131,325.225417 C126.021192,325.130795 128.064472,325.15471 129.823646,325.130795 L183.824098,325.379308 L197.781663,325.225417 C198.430901,325.225417 199.777159,325.225417 201.028889,325.26077 L206.601943,325.485367 L206.602462,325.485367 Z M374.294773,323.618921 C371.354506,392.092017 335.397661,443.33766 270.321219,471.81422 C245.641368,482.614132 221.386377,488.013828 197.651816,488.013828 C157.172123,488.013828 118.21632,472.310206 81.2082291,440.96275 L80.2992967,440.206294 C77.7007889,438.020628 75.2565399,435.988334 73.9341731,433.022296 L73.1665148,431.994451 C42.5947042,401.036401 26.0391501,361.252505 24.456569,314.426025 C23.9724976,300.388686 24.1376636,286.07944 24.291403,272.242783 L24.385932,262.40001 C24.6103084,237.433304 42.4529107,219.165528 66.8019106,218.964846 C85.0106828,218.810955 103.207509,218.764164 121.404335,218.764164 L200.851777,218.89414 C209.849688,218.89414 216.639673,221.067847 222.177928,225.723565 L223.181389,226.266862 C233.785773,230.355366 244.826445,248.256612 242.689155,266.866483 C240.846879,283.030738 227.208219,298.947 211.632754,303.082816 C201.442323,305.788382 189.574263,305.067799 177.978883,305.055841 C161.092478,305.055841 144.300601,305.11459 127.473407,305.173859 L99.7951171,305.233128 L99.6528043,310.833506 C99.3697368,320.546304 99.0742039,330.554406 102.286111,340.18454 C110.257188,364.016821 126.186878,378.597976 149.650318,383.53704 C173.963999,388.665347 195.372213,381.091423 211.538225,361.654389 L214.903872,357.601238 L219.922217,361.59512 C236.277287,382.379219 264.263055,390.473044 289.580717,381.623282 C314.768012,372.843707 331.760373,349.082133 331.854902,322.484497 L331.890221,313.468886 C332.032014,278.469643 332.185753,242.301141 331.795692,206.723247 C331.512624,180.894025 318.865479,161.066545 295.225447,149.392679 C291.658796,147.631773 289.29713,146.48591 289.35634,141.854108 C289.521506,129.801754 289.498134,117.749399 289.462296,105.709002 C289.415551,92.4161628 289.379713,79.1472388 289.627981,65.8658373 C289.934421,50.6821165 297.822916,37.1766374 310.741182,29.7207312 C323.83708,22.170203 339.695612,22.1468074 353.181053,29.6261092 C363.088416,34.9083076 374.991275,45.1638829 375.085804,63.7976695 C375.180332,85.4448047 375.428601,107.126773 375.664404,128.785346 C376.372852,192.579849 377.093246,258.54806 374.294773,323.618401 L374.294773,323.618921 Z M24.551098,65.7353421 C24.704318,50.7408653 32.4629648,37.3175307 45.2986481,29.838229 C58.2054879,22.2996585 74.6659936,22.2289519 88.0569047,29.6255893 C102.026416,37.0580999 109.619378,48.8385461 109.938283,63.6671742 C110.445727,87.6772614 110.37509,112.266519 110.292507,133.972403 C110.245243,145.197074 110.209405,156.410828 110.233297,167.624062 C110.233297,171.712566 108.379075,175.056052 106.419416,178.577345 C105.25027,180.668908 104.081123,182.748514 103.302038,184.970052 C99.0861499,196.809247 97.3498293,198.924206 84.9987368,198.924206 C79.8619704,198.924206 73.6152677,198.830104 67.887955,198.711567 L61.3696113,198.605507 C51.0373875,199.420712 41.0593875,203.048064 31.2818721,209.641454 L24.385932,214.308609 L24.3147756,171.759877 C24.2441385,136.406581 24.1615555,101.053285 24.551098,65.7353421 L24.551098,65.7353421 Z M122.466488,192.957298 C126.930644,180.349689 136.459891,170.578141 148.587127,166.123626 C161.175061,161.503262 174.483389,163.370228 185.996706,171.393347 C193.624986,174.96195 199.127402,181.6614 203.213443,192.744658 L205.397997,198.688171 L163.560619,198.830104 C155.518905,198.865458 147.453818,198.900811 139.400157,198.900811 C135.137524,198.900811 130.874372,198.888853 126.623165,198.865458 L120.388928,198.830104 L122.466488,192.957298 L122.466488,192.957298 Z M250.73087,167.931323 C265.798371,161.184563 279.25992,162.318468 291.871746,171.32264 C304.057672,177.714828 311.178508,189.19997 311.426777,203.343368 C312.18197,246.89707 311.910329,289.328304 311.544159,325.118837 C311.35562,343.410009 297.007993,359.53839 276.650505,364.347478 C273.922669,364.997355 271.147568,365.304617 268.372468,365.304617 C254.037306,365.304617 239.724997,356.915488 231.636018,343.078831 L228.861437,337.111923 C226.853995,333.933246 226.311233,329.809388 225.850014,324.799618 C225.507736,321.018375 226.652991,318.974642 230.231068,316.941828 C251.120412,305.173339 261.901389,287.047496 263.212329,261.513578 C262.090447,236.428335 250.636341,217.475329 229.145024,205.624176 L226.322659,204.087867 L226.251503,200.543179 C229.274352,184.792766 237.505124,173.815568 250.73035,167.931323 L250.73087,167.931323 Z M400.355682,68.346287 C400.332309,30.075304 372.794775,2.00062762 333.401126,0.0743928776 C316.775454,-0.788123569 299.014916,6.40783191 285.813062,19.1927276 C272.233613,32.3202383 264.924238,49.9376177 265.207306,68.7601285 C265.420256,82.4787671 265.372472,96.2088436 265.325727,109.93892 C265.313781,119.474432 265.278462,129.021901 265.325727,138.580809 C265.325727,139.195332 265.325727,139.644527 265.313781,139.987142 C265.183933,139.9991 265.04214,140.010538 264.8884,140.010538 C245.132885,140.802348 228.754443,149.368763 216.178454,165.485707 C201.465177,147.088476 181.839509,138.450834 157.620356,139.857167 C149.531377,140.329757 142.210057,142.763416 135.24348,145.6941 L135.254906,119.817047 L135.24348,69.1152211 C135.184789,30.4652301 107.96616,2.08329194 69.0571017,0.0863506101 C52.0294222,-0.858830162 34.6942639,5.99451029 21.3864552,18.7196173 C7.48758063,31.989581 -0.104861366,49.772289 0.0010941795,68.8079594 C0.284681081,118.221989 0.249362566,167.647977 0.214044051,217.062527 C0.190152114,249.579761 0.178206146,282.108953 0.237416598,314.626707 C0.249362566,324.374858 0.993128946,333.863059 2.45728916,342.796005 C18.7178297,442.498539 102.226901,512.011958 201.30053,512 C208.723431,511.998917 216.14128,511.612458 223.524186,510.84218 C322.455503,500.574127 400.107933,414.577234 400.332309,315.063944 C400.486049,244.168107 400.438784,173.27279 400.379574,102.364996 L400.356201,68.3468069 L400.355682,68.346287 Z" id="Shape"></path>
            </g>
        </g>
    </g>
</svg>