<?xml version="1.0" encoding="UTF-8"?>
<svg width="512px" height="512px" viewBox="0 0 512 512" version="1.1" xmlns="http://www.w3.org/2000/svg" xmlns:xlink="http://www.w3.org/1999/xlink">
    <!-- Generator: Sketch 47.1 (45422) - http://www.bohemiancoding.com/sketch -->
    <title>ctsi_rock_fill</title>
    <desc>Created with Sketch.</desc>
    <defs></defs>
    <g id="icon图标库" stroke="none" stroke-width="1" fill="none" fill-rule="evenodd">
        <g id="ctsi_rock_fill" fill-rule="nonzero" fill="#000000">
            <g id="摇滚手势" transform="translate(87.000000, 0.000000)">
                <path d="M277.895347,262.170605 C288.194111,263.279709 294.430208,272.256645 304.760993,287.115435 C307.839015,291.539839 321.511996,310.206419 324.317839,313.773971 C324.317839,313.773971 317.557398,251.844327 316.268552,236.873425 C315.019732,222.423041 316.624786,202.102815 316.624786,202.102815 L324.217773,33.1386303 C326.435229,10.3439409 311.94171,1.12676598 300.037891,0.145789683 C283.755196,-1.19554549 267.864758,6.58419843 266.187657,29.0785888 L245.538093,213.454114 L251.494006,258.63909 C261.268426,260.084529 270.330378,261.349788 277.895347,262.170605 L277.895347,262.170605 Z M177.189199,249.169664 C189.61336,249.69819 208.7059,252.240721 238.365382,256.689149 L239.137889,256.805265 L232.073249,203.187895 C230.380137,189.838607 218.244166,179.792607 203.830698,179.792608 C202.597888,179.792608 201.353071,179.868683 200.120261,180.016831 L197.246373,180.369181 C189.673399,181.290098 183.041043,184.961753 178.566104,190.711476 C173.522791,197.185921 171.493458,205.642338 172.702252,215.167819 L177.189199,249.169664 L177.189199,249.169664 Z M114.335915,333.085193 C116.021021,346.402449 128.15299,356.444444 142.558453,356.444444 C143.795265,356.444444 145.048088,356.368369 146.2849,356.216217 L149.158788,355.863866 C156.735765,354.946953 163.372124,351.275299 167.84306,345.525575 C172.309994,339.791868 174.391361,332.492603 173.967083,324.276425 C164.640957,316.977159 159.169363,309.585801 156.327497,304.917155 C142.462389,282.142485 150.103408,259.688134 157.276119,252.729207 C158.84515,251.211697 161.170677,250.170661 164.624947,249.590083 L161.891151,228.008601 C160.206044,214.687341 148.070073,204.645345 133.660608,204.645345 C132.427798,204.645345 131.18298,204.721421 129.950171,204.873572 L127.060273,205.22192 C119.495304,206.142836 112.86695,209.814491 108.388008,215.564214 C103.528817,221.806427 101.503486,229.902486 102.448107,239.011553 L114.335915,333.085193 L114.335915,333.085193 Z" id="Shape"></path>
                <path d="M261.779392,496.957138 C243.554663,507.343114 216.009743,512 191.9539,512 C115.625855,512 70.3238135,463.470766 56.4554338,425.999636 C42.5830574,388.520505 38.3386138,354.277989 35.0693534,292.798291 C34.3819295,279.86383 1.08982486,94.9526452 1.08982486,94.9526452 C-3.05070601,73.0364749 4.77873387,59.2458509 21.6525955,55.8652075 C43.5902138,51.4723717 54.1493664,66.9473162 58.8654144,84.7387017 L90.6547784,237.015677 C90.7227216,238.415943 102.784615,334.222173 102.784614,334.222173 C105.222572,353.509843 122.452135,368.056611 142.859036,368.056611 C144.5736,368.056611 146.312143,367.952591 148.030703,367.744552 L150.900298,367.392484 C161.65129,366.084236 171.123353,360.807231 177.569952,352.521655 C182.15411,346.628534 184.951766,339.439166 185.886983,331.617677 C196.937723,337.814856 211.433577,343.135869 230.413674,345.488317 C230.628223,348.655595 231.244665,351.782651 232.248137,354.794087 C220.665841,360.215119 194.691605,374.713877 185.267502,399.202537 C184.6948,400.686874 184.735286,402.338265 185.380035,403.792693 C186.024784,405.247121 187.220863,406.385182 188.704622,406.956012 C190.491125,407.648144 192.393531,407.400097 193.916255,406.491924 C195.031321,405.827798 195.950551,404.819606 196.454129,403.515358 C206.52569,377.342378 241.76816,363.731788 242.123862,363.591761 C243.727766,362.982722 244.994756,361.715896 245.605025,360.111049 C246.215295,358.506202 246.110534,356.716672 245.317186,355.194163 C244.278057,353.205785 241.544348,346.40049 242.59147,341.339527 C242.937936,339.661486 242.551795,337.915208 241.530253,336.540287 C240.50871,335.165365 238.949073,334.292769 237.243951,334.142158 C236.876259,334.110152 236.548534,334.054141 236.188835,334.022135 C232.150234,333.63498 228.129952,333.075699 224.138931,332.345816 C207.049251,329.233223 182.789578,315.398591 181.514647,314.390399 C180.611403,313.682264 168.005966,300.223704 166.85493,298.327343 C156.843318,281.872212 161.759199,265.641123 165.611972,261.348306 C165.643945,261.336304 166.435282,260.624169 168.773322,260.516148 C186.070829,259.703994 269.848631,273.046532 276.710882,273.786673 C281.562816,274.310773 286.898346,281.996236 294.979574,293.630449 C298.104955,298.135306 325.498003,334.074145 326.840877,335.762466 C333.391389,344.008035 338.171383,350.537277 338.475129,354.430018 C339.86996,372.397436 333.711121,394.773694 317.880385,429.248254 L317.836422,429.340272 C305.063125,457.13356 285.399601,483.498577 261.779392,496.957138 L261.779392,496.957138 Z" id="Shape"></path>
            </g>
        </g>
    </g>
</svg>