<?xml version="1.0" standalone="no"?><!DOCTYPE svg PUBLIC "-//W3C//DTD SVG 1.1//EN" "http://www.w3.org/Graphics/SVG/1.1/DTD/svg11.dtd"><svg class="icon" width="200px" height="200.00px" viewBox="0 0 1024 1024" version="1.1" xmlns="http://www.w3.org/2000/svg"><path fill="#000000" d="M929.675728 218.97013c-132.937708-4.807493-417.805688-153.844877-417.805688-153.844877l-4.748141 0c0 0-277.04685 149.037385-409.984558 153.844877-11.078313 56.089459 7.164167 402.240177 100.537787 540.059056 61.813834 92.947925 251.857145 175.691441 308.655755 196.71322 0 0 3.520173 3.240811 11.078313 0.401136 73.339332-27.562752 237.346663-92.947925 311.728744-197.113333C932.006819 601.980337 940.542216 276.407284 929.675728 218.97013zM679.611415 482.619856l-134.493134 0 0 62.958914 134.493134 0 0 52.206012-134.493134 0 0 120.002095-63.832817 0L481.285464 597.784782 347.910804 597.784782 347.910804 545.57877l133.373637 0 0-62.958914L347.910804 482.619856l0-52.717665 108.434641 0-70.610174-125.798101 69.910233 0c0 0 55.241139 102.014418 57.684794 111.272269 2.864234-10.024308 58.542324-111.272269 58.542324-111.272269l69.968561 0L570.302871 429.90219l109.308545 0L679.611415 482.619856z" /></svg>