<?xml version="1.0" standalone="no"?><!DOCTYPE svg PUBLIC "-//W3C//DTD SVG 1.1//EN" "http://www.w3.org/Graphics/SVG/1.1/DTD/svg11.dtd"><svg class="icon" width="200px" height="200.00px" viewBox="0 0 1024 1024" version="1.1" xmlns="http://www.w3.org/2000/svg"><path fill="#000000" d="M953.6 179.2c0-6.4-6.4-19.2-12.8-19.2-6.4-6.4-19.2-6.4-25.6-6.4-44.8 6.4-83.2 6.4-128 0-44.8-12.8-96-32-140.8-57.6C595.2 64 556.8 32 531.2 6.4c-6.4-6.4-32-6.4-38.4 0-25.6 25.6-64 57.6-115.2 89.6-44.8 25.6-96 44.8-140.8 57.6-44.8 12.8-89.6 12.8-128 0-6.4 0-19.2 0-25.6 6.4-6.4 6.4-12.8 12.8-12.8 19.2-6.4 64-19.2 179.2 12.8 313.6 6.4 44.8 25.6 89.6 44.8 140.8 6.4 12.8 19.2 19.2 32 19.2h12.8c6.4-6.4 19.2-25.6 12.8-38.4-19.2-44.8-32-89.6-38.4-128-25.6-108.8-25.6-204.8-19.2-262.4 38.4 6.4 83.2 0 121.6-6.4 51.2-12.8 108.8-32 160-64 44.8-32 76.8-57.6 102.4-76.8 25.6 19.2 57.6 51.2 102.4 76.8 51.2 32 108.8 51.2 160 64 38.4 6.4 83.2 12.8 121.6 6.4 0 32 6.4 76.8 0 128 0 19.2 12.8 32 32 32s32-12.8 32-32c6.4-70.4 0-134.4-6.4-172.8zM921.6 422.4c-19.2 0-32 6.4-38.4 25.6v12.8c0 6.4 0 12.8-6.4 25.6-44.8 224-166.4 384-371.2 473.6-128-57.6-224-147.2-288-262.4-6.4-12.8-25.6-19.2-44.8-12.8-12.8 6.4-19.2 25.6-12.8 44.8C236.8 864 345.6 960 492.8 1024h25.6c230.4-102.4 371.2-281.6 416-524.8 0-6.4 0-19.2 6.4-25.6v-12.8c12.8-19.2 0-38.4-19.2-38.4z"  /><path fill="#000000" d="M256 659.2h12.8l544-192c19.2-12.8 25.6-32 19.2-44.8-6.4-19.2-25.6-25.6-38.4-19.2l-544 192c-19.2 6.4-25.6 25.6-19.2 38.4 0 12.8 12.8 25.6 25.6 25.6z"  /></svg>