<?xml version="1.0" standalone="no"?><!DOCTYPE svg PUBLIC "-//W3C//DTD SVG 1.1//EN" "http://www.w3.org/Graphics/SVG/1.1/DTD/svg11.dtd"><svg class="icon" width="200px" height="200.00px" viewBox="0 0 1024 1024" version="1.1" xmlns="http://www.w3.org/2000/svg"><path fill="#000000" d="M511.970809 947.048873c-66.764523 0-156.377446-45.963173-233.868615-119.953799C193.060167 745.886859 144.283667 650.568222 144.283667 565.573631L144.283667 225.743658c0-16.643999 13.351445-30.213163 29.994227-30.479535l33.515447-0.546124 0.037706 0c2.014211-0.052301 71.201625-2.057998 141.767119-30.706985 74.812852-30.402908 123.911675-65.585917 124.395767-65.937431L493.94873 83.548397c10.667047-7.762496 25.115604-7.786823 35.805761-0.057167l20.159137 14.577486c0.057167 0.042571 0.119198 0.085142 0.176365 0.127713 1.525254 1.098329 49.816446 35.586825 124.230348 65.814584 70.698072 28.663583 139.85143 30.659549 141.8328 30.706985l0.047436 0 33.358543 0.546124c16.634268 0.271237 29.979632 13.825806 29.989362 30.46494l0.161769 339.829973c0 85.014052-48.7765 180.337555-133.818527 261.534823C668.39934 901.084484 578.768172 947.048873 511.970809 947.048873L511.970809 947.048873zM205.256117 255.737885l0 309.834529c0 68.417489 41.89583 147.662578 114.955978 217.420442 64.569081 61.656017 141.633325 103.08235 191.758714 103.08235 50.153364 0 127.241934-41.426334 191.815881-103.08235 73.055283-69.748133 114.951112-148.998088 114.951112-217.420442l-0.147174-309.834529-3.387426-0.062032c-6.913511-0.166635-84.191826-2.888738-163.812755-35.173279-78.760997-31.990193-130.763154-68.412624-137.201088-73.035822l-0.004865 0.00973-2.238012-1.620126-2.141924 1.56296c-2.290313 1.657832-55.461345 39.839048-137.26312 73.078393-79.526057 32.294271-156.856672 35.01151-163.760453 35.178144l0 0.004865L205.256117 255.737885 205.256117 255.737885zM205.256117 255.737885M471.509009 643.944192 471.509009 643.944192c-10.238905 0-20.064265-4.072209-27.304964-11.312908l-100.607158-100.607158c-15.079823-15.079823-15.079823-39.533754 0-54.613577 15.081039-15.081039 39.530105-15.081039 54.611144 0.004865l73.300978 73.300978 173.909352-173.906919c15.079823-15.081039 39.530105-15.085904 54.609928 0 15.079823 15.079823 15.079823 39.530105 0 54.609928L498.813973 632.632501C491.573274 639.8732 481.75278 643.944192 471.509009 643.944192L471.509009 643.944192zM471.509009 643.944192" /></svg>