<?xml version="1.0" standalone="no"?><!DOCTYPE svg PUBLIC "-//W3C//DTD SVG 1.1//EN" "http://www.w3.org/Graphics/SVG/1.1/DTD/svg11.dtd"><svg class="icon" width="200px" height="200.00px" viewBox="0 0 1024 1024" version="1.1" xmlns="http://www.w3.org/2000/svg"><path fill="#000000" d="M848.457143 128c0 0-58.514286 0-153.6-36.571429-102.4-36.571429-164.571429-76.8-164.571429-76.8L501.028571 0 475.428571 14.628571c0 0-65.828571 40.228571-164.571429 76.8-98.742857 32.914286-153.6 36.571429-153.6 36.571429L109.714286 131.657143l0 504.685714C109.714286 822.857143 457.142857 1024 501.028571 1024c40.228571 0 391.314286-201.142857 391.314286-387.657143l0-504.685714L848.457143 128zM475.428571 709.485714l-182.857143-168.228571 54.857143-69.485714 117.028571 106.057143 219.428571-274.285714 65.828571 62.171429L475.428571 709.485714 475.428571 709.485714z" /></svg>