<?xml version="1.0" standalone="no"?><!DOCTYPE svg PUBLIC "-//W3C//DTD SVG 1.1//EN" "http://www.w3.org/Graphics/SVG/1.1/DTD/svg11.dtd"><svg class="icon" width="200px" height="200.00px" viewBox="0 0 1024 1024" version="1.1" xmlns="http://www.w3.org/2000/svg"><path fill="#000000" d="M473.6 441.6C467.2 441.6 454.4 435.2 448 428.8l-89.6-128C352 281.6 352 262.4 364.8 249.6 384 243.2 403.2 243.2 409.6 262.4l89.6 128C512 403.2 505.6 422.4 492.8 435.2 486.4 435.2 480 441.6 473.6 441.6zM550.4 441.6c-6.4 0-12.8 0-19.2-6.4C518.4 422.4 512 403.2 524.8 390.4l89.6-128c12.8-12.8 32-19.2 44.8-6.4 12.8 12.8 19.2 32 6.4 44.8L576 428.8C569.6 435.2 556.8 441.6 550.4 441.6zM684.8 614.4 339.2 614.4C320 614.4 307.2 601.6 307.2 582.4c0-19.2 12.8-32 32-32l345.6 0c19.2 0 32 12.8 32 32C716.8 601.6 704 614.4 684.8 614.4zM684.8 467.2 339.2 467.2C320 467.2 307.2 454.4 307.2 435.2c0-19.2 12.8-32 32-32l345.6 0c19.2 0 32 12.8 32 32C716.8 454.4 704 467.2 684.8 467.2zM512 774.4C512 774.4 512 774.4 512 774.4c-19.2 0-32-12.8-32-32l0-288c0-19.2 12.8-32 32-32 0 0 0 0 0 0 19.2 0 32 12.8 32 32l0 288C544 761.6 524.8 774.4 512 774.4zM512 1024c-6.4 0-6.4 0-12.8 0-57.6-19.2-230.4-115.2-307.2-198.4-76.8-89.6-115.2-172.8-115.2-268.8L76.8 172.8c0-12.8 6.4-25.6 19.2-32L499.2 0c6.4 0 12.8 0 19.2 0l396.8 140.8c12.8 6.4 19.2 19.2 19.2 32l0 371.2c0 102.4-32 185.6-115.2 268.8C748.8 908.8 576 1004.8 524.8 1024 518.4 1024 518.4 1024 512 1024zM147.2 198.4l0 352c0 64 12.8 134.4 96 230.4 64 76.8 211.2 153.6 268.8 179.2 57.6-25.6 204.8-108.8 268.8-179.2 83.2-96 96-166.4 96-230.4L876.8 198.4 512 64 147.2 198.4z" /></svg>