<?xml version="1.0" standalone="no"?><!DOCTYPE svg PUBLIC "-//W3C//DTD SVG 1.1//EN" "http://www.w3.org/Graphics/SVG/1.1/DTD/svg11.dtd"><svg class="icon" width="200px" height="200.00px" viewBox="0 0 1024 1024" version="1.1" xmlns="http://www.w3.org/2000/svg"><path fill="#000000" d="M891.133952 160.598016C673.78688 158.445568 562.066432 62.286848 523.365376 19.98848c0 0-14.10048-15.968256-32.9216 0.900096-39.442432 42.74176-151.117824 137.573376-366.938112 139.70944 0 0-154.247168 539.938816 378.524672 846.35648l2.67264 0.211968c61.686784-35.478528 114.863104-74.09152 160.674816-114.639872 0 0 56.660992-45.955072 131.367936-146.902016C992.769024 464.436224 891.133952 160.598016 891.133952 160.598016zM245.164032 243.272704c-14.672896 4.604928-31.603712 7.584768-43.523072 9.300992-4.763648 25.82528-12.708864 86.324224-0.699392 159.780864 1.851392 11.332608-5.84704 22.032384-17.178624 23.883776-1.150976 0.180224-2.280448 0.27136-3.386368 0.27136-10.022912 0-18.849792-7.269376-20.519936-17.472512-17.49504-106.9568 3.544064-187.321344 4.447232-190.661632 2.25792-8.397824 9.481216-14.492672 18.126848-15.350784 0.27136 0 29.120512-2.844672 50.27328-9.481216 11.016192-3.296256 22.641664 2.70848 26.073088 13.63456C262.230016 228.1472 256.134144 239.796224 245.164032 243.272704z" /></svg>