<?xml version="1.0" encoding="UTF-8"?>
<svg width="512px" height="512px" viewBox="0 0 512 512" version="1.1" xmlns="http://www.w3.org/2000/svg" xmlns:xlink="http://www.w3.org/1999/xlink" style="background: #FFFFFF;">
    <!-- Generator: Sketch 47.1 (45422) - http://www.bohemiancoding.com/sketch -->
    <title>ctsi_shakehand_1</title>
    <desc>Created with Sketch.</desc>
    <defs></defs>
    <g id="icon图标库" stroke="none" stroke-width="1" fill="none" fill-rule="evenodd">
        <g id="ctsi_shakehand_1" fill-rule="nonzero" fill="#040000">
            <g id="手" transform="translate(-9.000000, 28.000000)">
                <path d="M520.438944,140.419511 C518.875628,121.661385 513.143468,103.424318 504.805781,86.7504276 C494.904777,67.4712426 480.313825,50.2762937 462.075134,35.1655808 C443.315338,19.5338089 423.513331,9.11262764 403.711324,3.90203757 C387.557055,-0.266435052 370.881681,-1.30855307 354.727412,1.81780098 C328.151034,6.50733261 310.954554,19.5338089 309.391238,21.0969865 L264.57617,57.0500614 C242.168636,37.2498174 220.282207,19.5338089 210.902309,14.3232188 C204.127938,10.6758052 176.509349,-0.266435052 143.679706,0.775682963 C124.398805,1.29674197 106.160114,5.46521459 88.9636341,13.2811003 C68.6405215,22.6601635 50.4018309,37.7708759 35.2897733,57.5711204 C6.10786833,95.6084319 -4.83534611,136.251038 1.9390246,177.935763 C6.10786833,203.988716 17.5721882,230.041669 35.8108787,255.052504 C56.1339908,283.189693 187.452564,409.807044 213.507836,434.817879 L214.550047,435.859997 C216.113363,436.902115 228.619894,447.323296 246.858585,453.054946 C254.675166,455.660241 262.491748,456.702359 270.30833,456.702359 C288.025915,456.702359 304.180184,450.449651 318.771136,437.944233 C361.501783,400.949041 490.735934,246.715559 496.468094,239.941791 C503.76357,231.604846 510.53794,217.015192 515.22789,200.862361 C518.354522,187.314826 522.523366,165.951405 520.438944,140.419511 Z M338.573143,296.216169 C344.305303,290.48452 344.305303,281.105456 338.573143,275.373807 C332.840984,269.642157 323.461085,269.642157 317.728925,275.373807 L205.691254,386.880446 C198.916883,380.106678 191.621407,373.33291 184.847037,366.559142 L296.363602,255.052504 C302.095762,249.320854 302.095762,239.941791 296.363602,234.210141 C290.631442,228.478492 280.730438,228.478492 275.519384,234.210141 L163.481713,345.71678 C154.62292,336.858775 145.764128,328.521831 137.426441,320.184886 L248.421901,209.199307 C251.027428,206.594012 252.590745,202.425539 252.590745,198.778125 C258.322905,202.946598 264.57617,206.072952 269.787224,208.678248 C288.025915,216.494133 310.954555,210.241425 326.066612,192.004358 C341.699776,173.246232 344.305303,149.277515 332.319878,130.519389 C321.376664,113.32444 301.574657,93.0031363 285.941493,77.8924239 L327.629929,44.5446441 C327.629929,44.5446441 340.13646,35.1655808 359.417361,31.5181678 C371.402786,29.4339317 383.388211,29.9549907 395.894743,33.0813448 C411.527906,37.2498174 427.682175,45.5867621 443.315338,58.6132384 C471.976138,82.060896 487.609301,110.198085 490.735934,143.545865 C492.820355,163.867169 489.172617,181.583176 486.045985,193.046476 C481.877141,206.594011 476.666086,217.015192 473.018349,221.183665 C471.976138,222.746842 339.094249,380.627737 298.969129,415.538694 C286.462599,426.480934 271.871646,429.607288 256.238482,424.917757 C244.253057,421.270343 235.394264,413.975516 234.352054,413.454457 L228.098788,407.201749 L338.573143,296.216169 Z M189.01588,141.982688 C187.452564,142.503747 185.889247,143.545865 184.325931,145.109042 L74.3726819,255.052504 C67.0772058,247.236618 62.3872567,241.504969 59.7817292,237.857555 C32.1631404,199.820243 9.7556061,140.419511 58.7395184,75.8081873 C81.1470526,46.6288801 109.807852,31.5181672 144.200812,30.4760492 C170.77719,29.9549902 192.142513,38.2919349 196.311356,40.3761715 C203.085727,44.0235851 225.493261,61.739593 248.943006,83.6240736 C276.561595,108.634908 297.926919,131.561507 307.306816,146.67222 C313.038976,155.530224 309.391238,165.951405 303.659079,172.725172 C295.842497,181.583176 286.983704,183.667413 281.77265,181.062117 C254.154061,169.077759 211.423415,122.703503 211.423414,122.182443 C205.691254,115.929735 196.311356,115.929735 190.579196,121.140325 C184.325931,126.871975 183.804826,135.729979 189.01588,141.982688 L189.01588,141.982688 Z M205.170149,165.951405 C206.212359,164.909287 207.25457,163.34611 208.296782,161.782932 C215.592258,168.5567 224.451051,176.893645 233.830948,184.709531 C231.225421,185.23059 229.140999,186.793767 227.577683,188.356944 L116.582223,298.821464 C108.765641,291.005579 101.470165,283.710751 94.6957941,276.415925 L205.170149,165.951405 Z" id="Shape"></path>
            </g>
        </g>
    </g>
</svg>