<?xml version="1.0" encoding="UTF-8"?>
<svg width="512px" height="512px" viewBox="0 0 512 512" version="1.1" xmlns="http://www.w3.org/2000/svg" xmlns:xlink="http://www.w3.org/1999/xlink">
    <!-- Generator: Sketch 47.1 (45422) - http://www.bohemiancoding.com/sketch -->
    <title>ctsi_shakehand_2</title>
    <desc>Created with Sketch.</desc>
    <defs></defs>
    <g id="icon图标库" stroke="none" stroke-width="1" fill="none" fill-rule="evenodd">
        <g id="ctsi_shakehand_2" fill-rule="nonzero" fill="#000000">
            <g id="Shake-hand" transform="translate(0.000000, 71.000000)">
                <path d="M511.682977,46.2185547 L511.682977,201.081161 C511.682977,201.081161 478.519962,207.612892 471.718059,208.458286 C464.916709,209.303126 443.532181,216.220738 428.007831,201.310917 C404.104838,178.408334 319.161877,93.9448179 319.161877,93.9448179 C319.161877,93.9448179 304.521674,79.5731261 281.004008,91.9849663 C259.417405,103.37868 227.41646,120.036866 214.062341,126.53095 C209.297244,129.83557 203.532844,131.795422 197.298412,131.795422 C181.043823,131.795422 167.882921,118.653343 167.882921,102.398201 C167.882921,89.7942507 175.856306,79.1307754 186.990367,74.9414541 C217.463292,56.4773262 281.695493,20.432111 308.440271,6.1949513 C324.695413,-2.43227141 336.434039,-3.18133336 358.741469,15.6094365 C386.236416,38.7445441 410.695808,59.8223611 410.695808,59.8223611 C410.695808,59.8223611 422.224054,65.663162 431.389959,63.8184655 C461.189669,57.8237554 511.682977,46.2185547 511.682977,46.2185547 Z M173.627943,308.600616 C177.739757,298.033472 176.365646,286.197407 168.478627,278.108314 C161.38939,270.82752 151.061968,268.905315 141.185755,271.172985 C143.942834,261.412481 142.42478,250.998693 135.286823,243.659215 C128.177655,236.396137 117.870164,234.474486 107.994505,236.741603 C110.731653,226.981652 109.214152,216.586688 102.095572,209.227832 C90.9421342,197.775987 71.6132356,198.275915 58.9417428,210.381044 C46.3184157,222.485066 38.2293218,244.40883 49.4979152,257.301222 C60.7576505,270.136036 73.6600073,262.353653 83.5162895,260.085983 C80.7879988,269.847594 72.5643727,278.934884 82.6708958,291.731497 C92.7674537,304.527557 106.831881,296.784482 116.688163,294.516812 C113.940495,304.277316 106.082265,314.268684 115.823946,326.124126 C125.623204,338.01666 141.695095,331.695308 152.300993,328.391242 C148.20911,338.920739 139.456767,350.256322 150.706537,363.014181 C161.946342,375.811348 187.932092,369.874215 200.623516,357.750263 C213.275632,345.645687 214.495833,326.470698 203.341841,314.980099 C195.666309,307.101385 184.195087,305.297103 173.627943,308.600616 Z M405.181095,228.018602 C313.455055,136.292562 356.609438,179.446391 307.249412,129.990587 C307.249412,129.990587 292.378345,115.215298 272.818029,123.803767 C259.118998,129.8173 241.433275,138.02155 228.127875,144.285324 C213.495977,151.932067 200.699917,154.276692 198.067404,154.276692 C169.813984,154.276692 146.911401,131.392933 146.911401,103.168301 C146.911401,84.8387049 156.633151,68.9102044 171.11114,59.8799387 C191.496365,45.7579342 238.415989,20.7986143 238.415989,20.7986143 C238.415989,20.7986143 224.131771,2.67995181 192.812898,2.67995181 C161.494579,2.67995181 96.1102741,45.5458937 96.1102741,45.5458937 C96.1102741,45.5458937 77.5597799,57.4201588 51.1117479,46.7179293 L0.137888574,28.9646629 L0.137888574,206.152969 C0.137888574,206.152969 14.6729014,210.380491 27.7574026,215.701986 C30.7359342,207.305074 35.4722423,199.504975 42.1008593,193.087845 C63.8031714,172.413071 99.7515013,172.202138 119.50282,192.511516 C125.449918,198.678958 129.599931,206.076014 131.723658,214.202755 C139.687631,216.662535 146.8732,221.024035 152.675801,226.981099 C158.641168,233.089857 162.772912,240.50795 164.914354,248.634138 C172.878882,251.093918 180.045627,255.454864 185.848228,261.411928 C192.39989,268.1557 196.751979,276.321748 198.798197,285.160458 C207.098777,287.58093 214.629812,292.057585 220.672688,298.263229 C232.518164,310.445866 236.725755,326.969519 234.170751,342.935667 C234.189574,342.955044 234.227775,342.955044 234.247705,342.993244 C234.449227,343.224108 241.606561,351.236247 246.073251,355.712903 C254.825594,364.475211 269.092096,364.475211 277.853851,355.712903 C286.576852,346.952255 286.614499,332.694611 277.853851,323.93341 C277.545479,323.626699 277.142436,323.54919 276.815241,323.260749 C276.854548,323.184348 276.930949,323.087463 276.930949,322.972861 C247.428538,293.460485 245.901072,291.327901 248.811507,288.387569 C251.722496,285.467723 256.044688,291.923053 289.111926,324.951536 C289.342789,325.201224 289.765209,325.315825 290.226937,325.470842 C290.841467,326.295751 291.110531,327.295054 291.85904,328.044669 C300.601971,336.805871 314.877331,336.805871 323.619709,328.044669 C332.38091,319.282915 332.38091,305.026931 323.619709,296.264623 C323.23549,295.881511 322.697915,295.688294 322.293211,295.342828 C321.774459,294.709475 321.409617,294.112108 320.756886,293.460485 C290.649357,263.351849 287.190274,257.626203 289.496699,255.320332 C292.109281,252.688927 306.173708,268.097015 336.147258,298.071119 C336.243036,298.071119 336.358191,298.013541 336.454523,298.013541 C345.254478,305.967549 358.819531,305.891149 367.311668,297.417281 C375.554117,289.156562 375.746227,276.129638 368.426126,267.329129 C368.27277,266.849132 368.329794,266.253426 368.003152,265.907407 C330.037393,227.94054 331.651226,227.364211 333.956543,225.058894 C336.281237,222.753023 336.416323,222.599668 373.613643,259.797541 L373.652397,259.797541 C373.728798,259.893873 373.728798,259.990205 373.805199,260.066052 C382.528753,268.828361 396.82349,268.828361 405.584692,260.066052 C414.308246,251.305404 414.326516,237.048314 405.584692,228.286559 C405.470644,228.171958 405.296804,228.134311 405.181095,228.018602 Z" id="Shape"></path>
            </g>
        </g>
    </g>
</svg>