<?xml version="1.0" encoding="UTF-8"?>
<svg width="512px" height="512px" viewBox="0 0 512 512" version="1.1" xmlns="http://www.w3.org/2000/svg" xmlns:xlink="http://www.w3.org/1999/xlink">
    <!-- Generator: Sketch 47.1 (45422) - http://www.bohemiancoding.com/sketch -->
    <title>ctsi_shakehand_3</title>
    <desc>Created with Sketch.</desc>
    <defs></defs>
    <g id="icon图标库" stroke="none" stroke-width="1" fill="none" fill-rule="evenodd">
        <g id="ctsi_shakehand_3" fill-rule="nonzero" fill="#000000">
            <g id="handshake" transform="translate(0.000000, 77.000000)">
                <path d="M492.8,51.2 L454.4,51.2 C448.7144,51.2 443.608,53.6728 440.0928,57.6 L421.272,57.6 L396.368,28.56 L396.24,28.416 C380.44326,10.3563631 357.617488,-0.0022854917 333.624,-2.27373676e-14 L296.384,-2.27373676e-14 C282.184,-2.27373676e-14 268.464,3.952 256.632,11.208 C243.464,3.944 228.536,-1.70530256e-14 213.296,-1.70530256e-14 L187.608,-1.70530256e-14 C164.4856,-1.70530256e-14 141.5288,8.9752 124.248,26.24 L92.896,57.6 L71.9072,57.6 C68.392,53.6728 63.2856,51.2 57.6,51.2 L19.2,51.2 C8.596,51.2 0,59.796 0,70.4 L0,262.4 C0,273.004 8.596,281.6 19.2,281.6 L57.6,281.6 C65.9592,281.6 73.0672,276.256 75.7032,268.8 L90.744,268.8 L151.024,322.856 C171.4576,344.016 198.964,358.4 228.288,358.4 C241.4,358.4 254.112,355.32 265.168,349.656 C285.1168,350.0528 306.0488,341.3616 320.424,324.528 C336.1712,320.0648 350.4264,310.5872 361,296.848 C377.7912,293.3272 393.5824,283.6544 403.736,268.8 L436.2968,268.8 C438.9328,276.256 446.0408,281.6 454.4,281.6 L492.8,281.6 C503.404,281.6 512,273.004 512,262.4 L512,70.4 C512,59.796 503.404,51.2 492.8,51.2 Z M38.4,256 C31.3304,256 25.6,250.2696 25.6,243.2 C25.6,236.1304 31.3304,230.4 38.4,230.4 C45.4696,230.4 51.2,236.1304 51.2,243.2 C51.2,250.2696 45.4696,256 38.4,256 Z M368.416,251.392 C356.136,262.828 338.9088,260.4544 336.456,257.792 C337.5872,268.4976 321.8504,290.6264 297.192,288.896 C292.7592,303.7144 274.6176,315.9568 256,309.496 C248.888,316.608 238.032,320 228.288,320 C208.328,320 190.072,308.368 177.776,295.272 L112.736,236.944 C108.041677,232.730395 101.956021,230.39984 95.648,230.4 L76.8,230.4 L76.8,96 L98.2,96 C104.984,96 111.496,93.304 116.296,88.504 L151.4,53.4 C161.002441,43.7960046 174.026998,38.4002811 187.608,38.4 L213.296,38.4 C217.936,38.4 222.504,39.032 226.896,40.24 L192.28,80.632 C173.432,102.616 173.208,134.728 191.752,156.984 C217.6624,188.0768 264.8544,188.3664 291.336,158.568 L312.12,134.504 L370.072,211.2 C380.824,222.88 378.832,241.704 368.416,251.392 Z M435.2,230.4 L415.6336,230.4 C415.7168,214.1912 410.1944,198.936 399.824,186.88 L337.36,104.224 C340.968,96.616 339.232,87.24 332.552,81.464 C324.492,74.5112 312.368,75.4648 305.464,83.448 L262.56,133.144 C251.4976,145.472 231.9816,145.26 221.248,132.4 C214.745143,124.633494 214.823022,113.300404 221.432,105.624 L267.768,51.56 C274.927165,43.2049144 285.381224,38.3972746 296.384,38.4 L333.624,38.4 C346.512,38.4 358.776,43.952 367.28,53.632 L403.616,96 L435.2,96 L435.2,230.4 Z M473.6,256 C466.5304,256 460.8,250.2696 460.8,243.2 C460.8,236.1304 466.5304,230.4 473.6,230.4 C480.6696,230.4 486.4,236.1304 486.4,243.2 C486.4,250.2696 480.6696,256 473.6,256 Z" id="Shape"></path>
            </g>
        </g>
    </g>
</svg>