<?xml version="1.0" encoding="UTF-8"?>
<svg width="512px" height="512px" viewBox="0 0 512 512" version="1.1" xmlns="http://www.w3.org/2000/svg" xmlns:xlink="http://www.w3.org/1999/xlink">
    <!-- Generator: Sketch 47.1 (45422) - http://www.bohemiancoding.com/sketch -->
    <title>ctsi_gesture_sliderotate</title>
    <desc>Created with Sketch.</desc>
    <defs></defs>
    <g id="icon图标库" stroke="none" stroke-width="1" fill="none" fill-rule="evenodd">
        <g id="ctsi_gesture_sliderotate" fill-rule="nonzero" fill="#000000">
            <g id="手势顺时针旋转">
                <path d="M205.973946,21.0752103 C205.301488,21.1465491 204.938945,21.1974223 204.934852,21.2231509 C204.853572,21.5137703 205.230734,21.4219651 205.973946,21.0752103 Z" id="Shape"></path>
                <path d="M14.6881954,360.35969 C14.7279583,360.288935 14.534992,359.585486 14.168356,358.35284 C14.371848,359.850376 14.5554583,360.574292 14.6881954,360.35969 Z" id="Shape"></path>
                <path d="M427.502781,122.407083 L465.040575,117.195239 L439.718718,19.6642171 L416.204311,49.4909617 C416.204311,49.4909617 388.166306,26.6495977 355.551491,13.9068046 C270.382008,-19.3746217 214.106014,17.325232 205.973946,21.0752103 C215.929254,20.036116 295.230221,15.2973309 341.468458,50.5657257 C366.682138,69.7962806 383.081351,92.6048989 385.719727,96.3928857 C385.967659,96.7495811 386.097473,96.9413777 386.097473,96.9413777 L365.634858,130.997008 L378.505126,129.210023 C372.315001,138.619762 364.663009,148.378594 354.110091,157.899435 C343.093469,167.844802 332.144677,180.006942 326.10717,185.300651 C312.777876,196.988562 297.686157,194.889323 280.872943,205.151038 C268.287446,212.829927 203.854241,260.463954 166.869031,228.80286 C152.765533,216.727262 138.733958,195.526112 140.129163,166.982886 C140.486443,159.644903 134.364148,142.509495 123.548679,129.656769 L123.32589,95.3304006 L23.3085269,107.64633 L49.8039709,134.870369 C51.0980149,135.695446 10.3873857,172.018722 2.78568229,225.20667 C-6.46617543,289.985461 10.9083943,347.122786 14.1689406,358.352841 C12.3041846,344.381495 9.14479943,261.712973 37.1272537,219.204833 C49.2127926,200.852567 68.3486183,186.390619 80.7616149,178.247441 C82.0930823,191.280854 82.3205486,206.010615 79.3354183,222.189963 C77.4203737,232.568627 82.9023714,268.107174 84.3180423,297.026977 C85.2764417,316.643465 82.6263709,334.078263 85.5723234,355.35543 C89.4246326,383.154859 96.5977166,396.718051 100.510839,417.709862 C101.988494,425.679371 103.497139,449.910677 112.474166,470.311894 C124.987739,498.742849 228.52703,528.049754 275.227801,501.566005 C296.28101,489.6325 276.838193,481.858297 286.122211,461.538359 C306.792997,416.293607 333.950374,394.517651 356.979441,363.497439 C362.396532,356.201559 388.330619,335.086951 382.684308,319.363705 C398.468953,305.199393 411.783628,289.241079 400.497438,273.976274 C409.6686,263.052042 417.077337,252.393285 419.935578,242.702867 C426.421585,220.763182 392.651311,210.853485 392.651311,210.853485 C392.651311,210.853485 395.392602,193.15789 407.208573,177.025906 C417.280244,163.270331 422.423089,140.310264 427.502781,122.407083 Z M88.2919794,114.479677 C68.3281526,118.792181 74.4486931,136.433395 78.8699606,164.09307 C78.8834097,164.178443 78.8974434,164.263815 78.9108926,164.349189 C78.9155703,164.378426 78.9202486,164.406494 78.9243417,164.434562 C72.8564286,161.70672 67.6054057,157.038105 64.2121223,150.725767 C56.0198251,135.496631 61.7257806,116.517518 76.9496531,108.329314 C92.1852206,100.136432 111.158487,105.842972 119.351954,121.072692 C120.54893,123.298822 121.439498,125.606231 122.055237,127.94814 C113.312693,118.268833 101.77857,111.565301 88.2919794,114.479677 Z M392.650141,105.165836 C392.517403,104.899777 392.389929,104.633717 392.265378,104.365318 C392.264209,104.36181 392.263039,104.358886 392.260701,104.355962 C391.488835,102.687096 390.876606,100.973205 390.41758,99.2324143 C390.343317,98.9493971 390.267885,98.6669646 390.200639,98.3827777 C390.18719,98.3237183 390.170817,98.2664131 390.158537,98.2067691 C390.053283,97.7477434 389.959723,97.2857937 389.876689,96.8232594 C389.860901,96.7291154 389.845698,96.635556 389.82991,96.5408269 C389.767342,96.1747754 389.711206,95.8075549 389.662087,95.4397491 C389.64513,95.31052 389.627587,95.181876 389.611799,95.0526469 C389.569698,94.6988754 389.532859,94.3439343 389.501867,93.9895777 C389.491341,93.8761371 389.480231,93.762696 389.470875,93.64984 C389.436375,93.2036783 389.412401,92.7575171 389.397782,92.3107709 C389.393105,92.1751097 389.393105,92.0400331 389.390765,91.9049566 C389.383748,91.5962103 389.381409,91.2874646 389.383748,90.9793029 C389.386087,90.7793194 389.391934,90.5793366 389.396027,90.3811074 C389.399536,90.2635731 389.406553,90.146624 389.410646,90.0290903 C389.777282,80.7439023 394.249423,71.7148331 402.370966,65.8568434 C416.392599,55.7430697 435.962892,58.9071326 446.076081,72.9240886 C456.185762,86.9509851 453.021114,106.521278 438.99948,116.635051 C435.496849,119.161156 431.646879,120.859259 427.685807,121.765031 C427.94251,120.866276 428.199799,119.976292 428.456503,119.10619 C434.320925,99.2856257 443.702011,84.7084829 435.712036,77.9318566 C429.638275,72.7703 416.111337,73.3918857 405.284757,86.0434589 C400.609124,91.5090834 396.700679,98.0102943 392.650141,105.165836 Z" id="Shape"></path>
            </g>
        </g>
    </g>
</svg>