<?xml version="1.0" encoding="UTF-8"?>
<svg width="512px" height="512px" viewBox="0 0 512 512" version="1.1" xmlns="http://www.w3.org/2000/svg" xmlns:xlink="http://www.w3.org/1999/xlink">
    <!-- Generator: Sketch 47.1 (45422) - http://www.bohemiancoding.com/sketch -->
    <title>ctsi_gesture_slidedown3</title>
    <desc>Created with Sketch.</desc>
    <defs></defs>
    <g id="icon图标库" stroke="none" stroke-width="1" fill="none" fill-rule="evenodd">
        <g id="ctsi_gesture_slidedown3" fill-rule="nonzero" fill="#000000">
            <g id="手势三指下拉" transform="translate(86.000000, 0.000000)">
                <path d="M139.271511,185.410584 C126.484861,185.410584 116.116723,175.042446 116.116723,162.245855 C116.116723,149.454528 126.484861,139.091067 139.271511,139.091067 C152.067517,139.091067 162.435655,149.454528 162.435655,162.245855 C162.436239,175.042446 152.068101,185.410584 139.271511,185.410584 M170.157816,162.245855 C170.157816,149.454528 180.525954,139.091067 193.313189,139.091067 C206.109194,139.091067 216.477333,149.454528 216.477333,162.245855 C216.477333,165.623935 215.741137,168.818405 214.437737,171.708806 L258.995998,135.255131 L166.356964,135.255131 L123.898528,0.147721714 L89.1517274,135.255131 L0.373190286,135.255131 L63.4392589,185.340999 C66.6430846,176.385609 75.1809663,169.967432 85.2304183,169.967432 C98.0270086,169.967432 108.395147,180.33557 108.395147,193.132161 C108.395147,201.301653 104.146379,208.470643 97.7580251,212.595445 L131.609579,239.481499 L198.406914,184.83344 C196.764946,185.20183 195.063334,185.410585 193.312603,185.410585 C180.525954,185.410584 170.157816,175.042446 170.157816,162.245855" id="Shape"></path>
                <path d="M81.4295669,343.702604 C77.5386646,345.255106 78.4742583,357.603195 79.2203949,370.111506 C79.7975394,379.892559 71.0011994,384.858225 73.7179314,396.61923 C76.2750274,407.644038 86.723276,420.559332 93.0116389,432.480557 C97.3703383,440.749456 97.6884406,449.376805 104.594295,455.645286 C110.76337,461.244817 129.530221,468.010333 143.202177,474.946595 C170.06835,488.568847 173.172769,484.180325 197.422202,501.255505 C213.661194,512.689051 224.636884,511.057023 245.005355,511.823042 C280.866683,513.155679 340.78857,467.353663 339.016788,448.440625 C336.160887,417.823303 326.111435,413.564011 325.076434,403.603441 C324.051373,393.662752 323.792915,375.03624 315.802941,348.160126 C306.598447,317.278499 290.438981,279.452424 279.852147,260.257538 C264.309588,232.078025 243.562201,247.197812 243.562201,247.197812 C244.119465,247.212431 241.622013,236.893995 239.284197,218.207255 C237.900687,207.152039 236.199659,204.838783 229.323626,191.639302 C222.39789,178.360297 207.35295,146.558863 193.372833,146.832525 C174.984898,147.195652 173.561625,159.479419 181.372667,171.887738 C187.134758,181.041943 199.423204,204.873867 202.318283,215.579989 C206.358297,230.525522 209.741054,259.675715 208.815985,258.779883 C208.755756,258.724917 208.487358,258.760002 208.079205,258.794502 C207.114373,258.883969 205.372998,258.973435 203.740971,257.85423 C201.342926,256.207585 198.875296,249.122797 196.82576,242.04795 C193.869867,231.843541 190.556694,217.300898 183.322796,205.579657 C175.113541,192.276091 178.029087,197.151707 170.218045,185.435143 C159.352287,169.141185 156.476504,155.429466 148.098258,149.946884 C142.82443,146.493957 136.167677,148.762773 131.610163,150.693021 C117.669809,156.598959 129.580509,190.73353 139.889003,207.70404 C144.844144,215.858329 145.172771,218.227136 147.849155,228.923902 C151.799117,244.809707 157.938954,250.964163 158.635387,258.780469 C159.670389,270.422185 163.073613,277.815718 162.496468,278.078854 L154.774892,281.940519 C154.426968,282.114189 148.774809,275.786063 144.904373,264.492271 C140.864359,252.696182 137.968695,250.640798 131.610748,239.482083 C128.406922,233.84045 118.645166,222.606302 115.4314,216.029074 C104.973211,194.600458 95.4903783,176.237082 86.7244451,177.191973 C77.231672,178.217033 74.6546949,184.605387 73.70916,189.296808 C71.2812931,201.491109 85.2216469,228.700529 96.8738886,262.641549 C104.38671,284.502293 117.660454,311.90117 124.158155,335.140746 C132.099011,363.499193 127.442091,397.674111 127.760193,397.744281 L123.899113,401.605361 C123.630714,401.794234 123.292146,395.316414 121.143203,391.595087 C118.854506,387.614719 115.889257,385.913107 116.178121,386.162209 C116.526045,386.47037 117.899614,370.918455 107.351959,356.360609 C101.658869,348.488169 91.0515686,339.861405 81.4295669,343.702604" id="Shape"></path>
            </g>
        </g>
    </g>
</svg>