<?xml version="1.0" encoding="UTF-8"?>
<svg width="512px" height="512px" viewBox="0 0 512 512" version="1.1" xmlns="http://www.w3.org/2000/svg" xmlns:xlink="http://www.w3.org/1999/xlink">
    <!-- Generator: Sketch 47.1 (45422) - http://www.bohemiancoding.com/sketch -->
    <title>ctsi_gesture_slidetop</title>
    <desc>Created with Sketch.</desc>
    <defs></defs>
    <g id="icon图标库" stroke="none" stroke-width="1" fill="none" fill-rule="evenodd">
        <g id="ctsi_gesture_slidetop" fill-rule="nonzero" fill="#000000">
            <g id="手势双指上划" transform="translate(87.000000, 0.000000)">
                <path d="M135.358126,220.118207 C136.751576,222.481167 136.692517,221.681819 135.358126,220.118207 L135.358126,220.118207 Z" id="Shape"></path>
                <path d="M64.5710651,55.249544 C75.1263223,55.249544 84.2928069,61.1636691 88.9590834,69.8553394 C92.5342229,58.7141663 102.973701,50.6440811 115.301324,50.6440811 C130.583671,50.6440811 142.976202,63.0272554 142.976202,78.3096029 L142.976202,78.3452726 L184.555179,78.3452726 L89.6911857,0.00972114286 L0.286385143,78.0160606 L37.3347474,78.1827131 C39.5877754,65.1680126 50.91022,55.249544 64.5710651,55.249544 Z" id="Shape"></path>
                <path d="M331.285593,428.061043 C325.296621,418.399279 326.952622,400.441132 324.518908,380.487831 C319.791818,341.772357 309.66635,317.055126 306.388261,286.531949 C305.206489,275.58842 303.752225,265.472307 295.873351,252.786234 C278.89524,225.44934 282.384422,207.09649 262.359781,200.475991 C252.046609,197.066919 239.472222,209.202746 239.472222,209.202746 C239.810206,209.091645 235.189539,180.244935 214.174923,173.361301 C196.978701,167.730193 179.938606,189.032504 179.938606,189.032504 C179.014707,185.921653 170.100833,183.487354 161.546578,150.271419 C157.742802,135.47909 146.082374,123.681831 140.198071,98.1073629 C135.728855,78.6534349 129.123559,58.4323194 117.385945,59.2404394 C109.866691,59.7556011 103.022819,62.8816554 100.821249,72.9012846 C96.8514057,90.9763806 91.9635109,106.430058 120.290381,184.446338 C128.535305,207.147363 133.391039,216.783399 135.357541,220.118793 C136.691933,221.682405 136.750992,222.482338 135.357541,220.118793 C135.27977,220.027572 135.199075,219.934598 135.112533,219.838699 C132.34025,216.758255 129.062746,208.753077 120.421949,194.718578 C116.290715,187.991655 110.942625,162.993162 107.64407,152.730863 C105.40683,145.791677 105.346017,142.756259 99.1137897,131.297569 C92.6804097,119.444759 91.2460269,113.242939 87.9474726,101.390129 C85.700292,93.3253069 81.6456606,87.8099789 80.3621423,79.1136303 C78.8371234,68.7653731 74.7210937,65.9375394 66.5551103,64.468072 C62.5653857,63.7558509 47.888836,68.695204 46.7778177,85.441756 C45.9603423,97.7845829 48.2730143,116.243273 51.5329754,134.762776 C54.4344869,151.216955 57.8833211,181.129072 63.4343189,196.800276 C69.110452,212.829929 77.8828177,234.313512 81.1053549,251.383429 C90.2057629,299.563608 86.392632,339.197134 86.392632,339.197134 L83.6811629,338.941015 C83.7624429,338.892482 82.8210011,337.131225 81.3679063,328.207995 C80.0902354,320.375317 74.8380434,316.269813 74.8380434,316.269813 C74.8380434,316.269813 77.448936,303.946867 69.2624863,288.447579 C60.8234263,272.498621 45.2890531,259.368141 33.1076166,260.898422 C14.828444,263.196475 27.2619069,295.356358 27.2619069,295.356358 C27.2619069,295.356358 21.9038754,325.239238 23.8657,330.501956 C27.0899914,339.157957 35.2992463,356.692162 41.5232869,375.842607 C44.9656891,386.428855 43.2763566,398.003326 49.6617874,407.942261 C53.939792,414.599598 62.8788103,421.063385 72.8025411,428.462181 C87.2656589,439.248998 102.725184,452.960716 118.578243,462.323675 C135.566881,472.369618 152.636798,477.753379 158.217617,479.753211 C172.393624,484.82881 177.989647,500.696489 194.090054,507.73625 C224.724333,521.129282 316.150018,502.437863 333.870757,458.32401 C339.770263,443.621145 335.862403,435.453992 331.285593,428.061043 Z" id="Shape"></path>
            </g>
        </g>
    </g>
</svg>