<?xml version="1.0" encoding="UTF-8"?>
<svg width="512px" height="512px" viewBox="0 0 512 512" version="1.1" xmlns="http://www.w3.org/2000/svg" xmlns:xlink="http://www.w3.org/1999/xlink">
    <!-- Generator: Sketch 47.1 (45422) - http://www.bohemiancoding.com/sketch -->
    <title>ctsi_gesture_slideleft2</title>
    <desc>Created with Sketch.</desc>
    <defs></defs>
    <g id="icon图标库" stroke="none" stroke-width="1" fill="none" fill-rule="evenodd">
        <g id="ctsi_gesture_slideleft2" fill-rule="nonzero" fill="#000000">
            <g id="手势双指左划" transform="translate(28.000000, 0.000000)">
                <path d="M448.293927,393.261833 C443.92626,391.563003 426.775218,368.195016 406.985779,335.632155 C398.790183,322.129324 395.021965,305.588269 384.577848,290.226209 C371.934384,271.626302 360.230487,250.467029 348.616741,231.666916 C329.746966,201.13305 310.936316,175.686309 297.693403,158.85548 C287.51857,145.922244 264.191561,164.372288 264.191561,164.372288 C264.191561,164.372288 251.50829,130.749853 234.956697,129.840728 C224.492677,129.261182 214.337747,136.936943 206.831752,144.602753 C199.535329,152.049038 194.728026,159.494737 194.52782,159.395219 C193.578301,158.925728 176.367548,136.987287 162.334931,126.65264 C151.990332,119.026638 142.17552,115.418819 132.650481,107.982486 C110.30226,113.319576 95.8996697,117.527429 95.8996697,117.527429 L95.5595524,134.978196 C97.5984995,136.686978 105.034833,143.153888 109.891895,149.310538 C113.909493,154.38771 114.909356,159.395219 114.909356,159.395219 C114.909356,159.395219 109.871991,155.15751 104.894922,148.850999 C101.37667,144.403132 97.028906,137.806847 95.5595524,135.447686 L94.9999101,164.372288 L61.0777511,142.94373 C56.4800215,143.663186 51.9624916,143.143351 47.86001,141.604335 C58.0096709,164.582446 77.4191848,195.595754 95.769711,228.578932 C106.364276,247.629011 126.333432,265.419894 129.832366,273.844968 C133.650343,283.02989 143.425348,302.100457 149.231928,321.959558 C158.177422,352.543768 169.641305,383.30711 169.641305,383.30711 C169.641305,383.30711 157.637683,379.928768 150.371702,365.566571 C146.873353,358.669977 140.027103,358.060575 139.787089,358.430548 C139.787089,358.430548 140.676896,346.876513 134.81002,338.531054 C124.944864,324.488485 104.825846,310.485723 95.0010817,313.653906 C74.9417741,320.100914 87.1649206,347.43674 90.0240132,353.452894 C93.2723964,360.279825 84.2870956,377.110653 90.4835518,390.423229 C91.6531806,392.942205 108.084181,406.66456 121.93708,427.424006 C131.072243,441.10714 143.085817,452.901188 159.687169,462.925573 C180.246408,475.338975 212.758924,474.520001 231.879251,481.835741 C258.624995,492.090774 284.09164,487.802136 284.09164,487.802136 C284.09164,487.802136 301.102771,497.787299 304.001085,507.712166 C307.329668,519.146195 363.350082,504.333825 393.104195,489.211778 C452.661595,458.927293 467.154336,400.588111 448.293927,393.261833 Z M156.956865,208.938185 C149.520532,200.842107 144.603174,189.458423 144.762988,189.24885 C144.762988,189.24885 152.778867,199.783119 161.933933,208.058915 C169.329874,214.745351 174.737796,223.840707 174.617789,224.08072 C174.527638,224.260438 164.932351,217.633713 156.956865,208.938185 Z" id="Shape"></path>
                <path d="M94.999326,134.517486 C95.0192294,134.567245 95.2492919,134.937218 95.5589683,135.447101 C95.262756,134.959463 95.0449873,134.607637 95.0086925,134.525096 L94.999326,134.517486 Z" id="Shape"></path>
                <path d="M240.083043,57.248232 C185.561837,49.5121746 118.26721,49.6918923 99.8569732,49.8721952 C96.7485005,49.9020508 95.0397185,49.9324917 94.999326,49.9219542 L94.999326,0.167658547 L0.45902316,104.66327 L31.7328338,124.412901 C31.4676476,123.563486 31.2329027,122.693582 31.0332811,121.814312 C27.735139,106.642506 36.990309,91.290398 51.6926235,87.5122282 C52.9020596,87.2025517 54.1015435,87.0122971 55.2904904,86.8723861 C54.7806071,73.4995141 63.515942,61.0158649 76.5691858,57.6574264 C91.281452,53.8792565 105.873712,63.1045709 109.171854,78.2769615 C109.661833,80.5155302 109.841551,82.7546841 109.801744,84.9733495 C101.236175,76.1578147 93.390062,69.0217915 85.0551402,64.8537454 C77.3091305,60.9754718 68.2137749,66.153333 65.1456947,74.7985165 C63.746004,78.7564041 63.696245,83.4735556 64.0164584,87.3319252 C64.3659421,91.5198753 65.1456947,94.707962 65.1456947,94.707962 C65.1058874,94.7179137 64.7160111,94.6781064 64.0662173,94.6382997 C62.606816,94.5381965 59.8583639,94.4480445 56.7299879,94.9081689 C47.4051555,96.2774188 34.7013955,102.634275 43.0369025,129.159908 C43.346579,130.149234 43.7265036,131.188904 44.0865243,132.20867 C45.1355608,135.167281 46.4006093,138.305609 47.8594254,141.603751 C51.9619069,143.142767 56.480022,143.662602 61.0771665,142.943146 L94.9993255,164.371703 L95.5589678,135.447102 C95.2492913,134.937218 95.0192294,134.567831 94.9993255,134.517487 L95.0086919,134.525097 C95.0449867,134.608224 95.2627555,134.96005 95.5589678,135.447102 L95.5589678,134.977611 L95.8990851,117.526844 C95.8990851,117.526844 110.301675,113.318991 132.649896,107.981901 C156.757243,102.22508 190.099856,95.1686716 224.671224,90.6809973 C278.923146,83.6245887 328.757055,85.3140526 356.812338,86.9929789 C371.724811,87.8921528 380.490002,88.7919124 380.490002,88.3721805 C380.50932,86.5229023 315.813282,68.0026106 240.083043,57.248232 Z" id="Shape"></path>
            </g>
        </g>
    </g>
</svg>