<?xml version="1.0" encoding="UTF-8"?>
<svg width="512px" height="512px" viewBox="0 0 512 512" version="1.1" xmlns="http://www.w3.org/2000/svg" xmlns:xlink="http://www.w3.org/1999/xlink">
    <!-- Generator: Sketch 47.1 (45422) - http://www.bohemiancoding.com/sketch -->
    <title>ctsi_gesture_slidedown2</title>
    <desc>Created with Sketch.</desc>
    <defs></defs>
    <g id="icon图标库" stroke="none" stroke-width="1" fill="none" fill-rule="evenodd">
        <g id="ctsi_gesture_slidedown2" fill-rule="nonzero" fill="#000000">
            <g id="手势双指下拉" transform="translate(95.000000, 0.000000)">
                <path d="M115.445784,123.021741 L79.7359386,0.0229301213 L51.9633805,123.021741 L0.379549627,123.021741 L44.7807919,169.438653 C45.6102538,159.435657 52.7634081,150.392225 63.1737758,147.481748 C72.1913062,144.95863 81.2800685,147.697797 87.1157375,153.825456 C87.7992045,143.681764 95.0023973,134.462314 105.538744,131.516516 C118.59821,127.867236 131.818388,135.231141 135.065594,147.973892 C136.091089,151.995223 135.995722,156.071891 134.974936,159.887182 L167.030202,123.021153 L115.445784,123.021153 L115.445784,123.021741 Z" id="Shape"></path>
                <path d="M134.720622,160.742546 C134.80716,160.458798 134.898406,160.175639 134.974936,159.888359 L134.48809,160.448202 C134.56462,160.546513 134.642916,160.644235 134.720622,160.742546 Z" id="Shape"></path>
                <path d="M317.072775,439.773247 C311.920573,431.459199 313.348143,416.006714 311.251823,398.845855 C307.185163,365.539037 298.479048,344.266189 295.653932,318.006561 C294.638445,308.586367 293.386304,299.890261 286.60579,288.972443 C272.002783,265.454926 275.003917,249.665711 257.777713,243.970739 C248.905589,241.040248 238.082551,251.480638 238.082551,251.480638 C238.373952,251.38527 234.403247,226.56322 216.322269,220.641602 C201.528527,215.800816 186.865473,234.123157 186.865473,234.123157 C186.070744,231.448745 181.567276,221.325069 164.376395,196.462987 C160.551097,190.923429 159.067602,186.057918 141.996813,168.936501 C139.454856,166.388068 136.977066,163.595919 134.720622,160.743134 C134.642916,160.644823 134.56462,160.547101 134.487502,160.44879 C131.297399,156.381541 128.570594,152.20303 126.78569,148.43248 C122.558318,139.490302 114.138306,135.30767 108.619351,136.584535 C104.361956,137.57 98.1889686,144.517113 98.9630936,151.272902 C99.9038176,159.438012 98.9884071,163.349847 105.219675,177.98582 C100.662048,176.95797 96.5282776,174.640303 93.3581899,171.308915 C93.176874,173.976852 92.5410902,176.579443 91.5161836,179.022501 C87.2399504,174.338306 84.1469808,171.005152 81.2341501,163.140273 C78.0422811,154.504213 73.4781791,152.88061 66.0883721,153.071345 C62.4844207,153.162003 50.8825479,159.797111 53.6723427,173.902088 C55.7233336,184.302448 61.8557014,199.236887 68.82283,214.055354 C72.8441614,222.620772 81.4295943,241.03848 85.1495171,241.370501 C84.7927716,244.064928 89.08019,252.705698 90.7997495,257.627134 C98.581034,279.864843 105.437489,289.755398 105.708875,292.93255 C107.73985,316.427109 111.157776,319.8156 112.273929,328.661822 C114.782331,348.557728 111.861847,358.882735 111.479788,361.095027 L104.052894,363.09127 C104.077619,362.97 103.278769,361.332268 102.059595,353.866521 C100.958747,347.120739 96.4399743,343.59214 96.4399743,343.59214 C96.4399743,343.59214 98.6869984,332.985151 91.6445178,319.654888 C84.3859887,305.931381 71.0198157,294.641513 60.5393943,295.958998 C44.8108147,297.929339 55.5125829,325.596521 55.5125829,325.596521 C55.5125829,325.596521 50.9025631,351.302783 52.5920992,355.83745 C55.3665881,363.286714 62.4290845,378.367148 67.783206,394.844539 C70.7437206,403.953317 69.2914257,413.906273 74.7856557,422.461683 C78.464959,428.181969 86.1561741,433.751551 94.691569,440.115274 C107.137622,449.394182 120.43845,461.187379 134.076008,469.249469 C148.683136,477.885529 163.376801,482.520274 168.182265,484.239244 C180.372238,488.602604 185.188298,502.265475 199.041317,508.317782 C225.401611,519.828408 304.060403,503.753091 319.295662,465.811528 C324.376634,453.164144 321.013456,446.126962 317.072775,439.773247 Z M132.144521,240.7877 C130.128852,234.177317 128.073152,232.719725 120.749278,220.53034 C117.456743,215.03611 116.622572,210.617414 109.258078,201.719976 C107.155872,199.178608 105.518729,197.097594 104.168278,195.315045 L110.062816,188.53512 C114.882997,198.464529 121.989645,211.901345 132.541886,230.774109 C140.485061,244.982695 141.213268,260.29154 143.067049,265.456104 C141.633592,261.93869 136.469616,254.98098 132.144521,240.7877 Z" id="Shape"></path>
            </g>
        </g>
    </g>
</svg>