<?xml version="1.0" encoding="UTF-8"?>
<svg width="512px" height="512px" viewBox="0 0 512 512" version="1.1" xmlns="http://www.w3.org/2000/svg" xmlns:xlink="http://www.w3.org/1999/xlink">
    <!-- Generator: Sketch 47.1 (45422) - http://www.bohemiancoding.com/sketch -->
    <title>ctsi_gesture_slideright</title>
    <desc>Created with Sketch.</desc>
    <defs></defs>
    <g id="icon图标库" stroke="none" stroke-width="1" fill="none" fill-rule="evenodd">
        <g id="ctsi_gesture_slideright" fill-rule="nonzero" fill="#000000">
            <g id="手势右划" transform="translate(94.000000, 0.000000)">
                <path d="M314.284401,281.682647 C310.71277,269.769609 303.18533,266.788571 303.18533,266.788571 C303.18533,266.788571 310.141473,241.084874 305.211476,227.000672 C300.275631,212.915886 285.473361,212.198402 285.473361,212.198402 C285.473361,212.198402 287.276719,199.255625 285.473361,182.594446 C284.538351,173.991072 272.994873,167.357709 260.804665,162.861594 C239.096539,157.410588 221.338961,172.733282 221.338961,172.733282 C221.338961,172.733282 242.499178,141.785579 251.219502,126.159986 L324.413963,62.6524337 L250.938239,0.0582554286 L246.007073,34.5933777 C245.987191,34.5986406 245.138724,34.5881149 243.582714,34.5781743 C230.51831,34.4869537 167.354589,34.3963183 118.668604,45.929856 C53.8681777,61.2776949 -0.129644,81.8642766 0.158636,83.3442697 C0.254534286,83.8196686 15.5743051,80.5661394 40.0459423,77.3225514 C65.0029189,74.0087937 99.4772274,70.6944509 137.037827,71.33124 C172.043086,71.9218337 204.668426,78.0996794 225.642695,83.0998463 C221.379894,88.4760046 217.339296,93.8223411 213.958293,98.6213549 C202.490831,114.888415 160.706023,168.600295 151.460598,177.462127 C138.46227,189.909623 135.799919,198.296057 124.649975,219.064494 C115.434957,236.215106 105.498361,249.032162 99.4158291,257.070086 C96.1418343,261.383761 93.3941109,266.789156 93.3941109,266.789156 C93.3941109,266.789156 90.4738874,262.738033 88.1296389,261.535794 C85.4017971,260.131234 78.2684754,261.535794 78.2684754,261.535794 C79.0666543,257.635536 82.1786749,259.868098 84.6439651,251.502715 C87.0285611,243.399885 82.6534886,240.267398 83.1990566,236.867682 C83.1382429,237.503886 91.5445571,235.033333 97.7685977,224.702034 C102.557671,216.735449 108.903339,209.31911 110.196213,201.908619 C111.399037,195.012705 111.377986,188.243095 110.721315,184.903609 C108.448406,173.27885 103.234807,168.651167 96.758156,168.94471 C85.411152,169.459871 75.4587686,189.071681 73.8928177,189.586842 C72.3268669,190.111945 68.3049811,193.577737 68.3049811,193.577737 C68.3049811,193.577737 56.2714851,195.487518 42.2978006,206.419937 C37.922728,209.844797 33.8909017,228.304656 29.3444983,245.066996 C23.8882297,265.184026 14.0270663,283.462029 15.8859754,296.455094 C17.0578074,304.658502 26.6874109,343.569281 39.0647377,371.435371 C53.5430583,404.030305 70.8720183,426.147753 75.7107943,435.362186 C84.6831429,452.457832 86.7847217,474.484059 93.0701606,488.47821 C111.762164,530.105722 258.560993,505.028287 260.804081,498.350484 C263.05243,491.651045 265.896637,492.105393 263.405617,488.630245 C261.596997,486.114081 264.113161,483.3149 265.391416,474.757136 C265.896637,471.503607 264.072813,464.986609 264.901398,460.884027 C267.144486,449.710109 300.093191,386.924133 314.75863,352.843944 C319.613779,341.557754 319.315559,332.706447 319.421983,330.87853 C319.826043,323.532361 319.624305,330.059885 318.189338,319.653154 C317.467175,314.448911 317.861295,293.594515 314.284401,281.682647 Z M273.494831,36.1388623 C288.473695,36.6844309 300.169207,49.26408 299.628317,64.242944 C299.169291,76.965856 290.019179,87.3187914 278.097955,89.8156583 C283.458325,82.6390657 286.584964,79.37852 289.782357,70.7242731 C292.085673,64.3897154 292.747021,60.3274823 290.802155,56.60908 C283.825546,43.2768623 274.191849,38.5234589 257.924204,48.091664 C255.467099,49.539496 250.986188,53.8350429 245.628157,59.6176 C247.459582,45.9433051 259.42057,35.6359806 273.494831,36.1388623 Z" id="Shape"></path>
            </g>
        </g>
    </g>
</svg>