<?xml version="1.0" encoding="UTF-8"?>
<svg width="512px" height="512px" viewBox="0 0 512 512" version="1.1" xmlns="http://www.w3.org/2000/svg" xmlns:xlink="http://www.w3.org/1999/xlink">
    <!-- Generator: Sketch 47.1 (45422) - http://www.bohemiancoding.com/sketch -->
    <title>ctsi_gesture_slideleft</title>
    <desc>Created with Sketch.</desc>
    <defs></defs>
    <g id="icon图标库" stroke="none" stroke-width="1" fill="none" fill-rule="evenodd">
        <g id="ctsi_gesture_slideleft" fill-rule="nonzero" fill="#000000">
            <g id="手势密码" transform="translate(45.000000, 0.000000)">
                <path d="M309.516706,182.986661 C309.451288,183.007104 309.416826,183.022291 309.416826,183.022291 C309.450703,183.027547 309.487501,183.012361 309.516706,182.986661 L309.516706,182.986661 Z M246.957264,149.998755 C247.042542,150.279705 247.107376,150.269191 247.017426,149.983569 C246.977123,149.993498 246.957264,149.998755 246.957264,149.998755 L246.957264,149.998755 Z M407.599608,380.617374 C410.545197,345.159916 380.120882,248.572881 363.922773,227.396534 C355.678279,216.618238 350.680182,190.193218 322.072401,183.519354 C309.778964,180.643857 301.071867,183.68991 300.078907,184.061394 C300.048534,184.08651 300.018745,184.096439 299.983699,184.096439 C299.983699,184.096439 300.013488,184.081253 300.078907,184.061394 C301.10224,183.077778 291.969922,161.269442 268.55591,151.394156 C255.062159,145.69865 238.657865,150.711934 237.579042,151.053045 C237.674249,151.344508 237.609999,151.353854 237.51888,151.072904 C237.51888,151.072904 237.543996,151.062974 237.579042,151.053045 C237.128121,149.672829 232.982803,141.91255 210.020295,129.523322 C199.530542,123.859941 179.382202,114.090377 166.924634,120.789356 C143.666574,133.314095 148.192723,156.005582 146.191031,156.833829 C145.709153,157.034173 135.713544,143.39031 124.656051,124.826034 C118.363017,114.263269 102.48616,103.391517 95.4682643,91.8428009 C94.7907148,90.7336057 94.1417859,89.6168167 93.5068751,88.5006121 C112.803605,84.1496921 162.233772,74.3701975 215.823858,74.5652855 C301.745328,74.884201 372.664915,90.5554565 372.945865,89.5969577 C373.382184,88.1121896 312.46872,66.2179908 238.73847,49.3674487 C176.72574,35.2019886 92.8123873,35.3193919 92.5781653,35.2241844 L89.2207901,0.329210292 L0.208291532,61.8296891 L45.1748074,98.6147931 C49.0286628,112.587502 55.07813,127.824191 62.3314154,141.579033 C80.1036592,175.309907 93.1751099,205.2576 98.8525084,219.007185 C111.607964,249.873075 112.172784,337.538067 112.172784,337.452789 L104.683524,339.535087 C104.683524,339.535087 98.7146622,326.909884 86.3552225,313.556315 C87.0006468,267.978253 47.3856051,252.968776 39.8712294,261.534522 C33.3877803,268.920981 36.6341776,282.956772 33.1599837,295.927759 C29.019922,311.393997 21.437791,322.087015 21.5300778,330.297048 C21.6054257,338.159544 31.7797681,350.624705 41.7479252,367.058788 C50.8989337,382.153542 59.4413158,401.171076 69.0082002,410.33435 C79.3052023,420.189776 117.3648,437.637848 150.602114,449.711081 C181.875702,461.071135 192.524914,460.228287 208.723023,467.389285 C224.918211,474.535098 226.900628,500.298338 231.231104,503.132949 C262.273391,523.561654 393.132756,508.783479 417.375015,448.275961 C429.558057,417.876179 406.094397,398.712037 407.599608,380.617374 L407.599608,380.617374 Z M86.4714568,74.7989236 C76.8689431,54.9823495 69.8814205,39.6773207 47.1578079,52.7919946 C40.069237,56.8870814 39.1913431,70.21495 42.4208016,86.9393278 C33.1570629,82.3378314 27.0602845,73.5869272 27.3213743,63.4628172 C27.7103812,48.3610536 42.0662562,35.9338592 59.3817377,35.7054781 C76.7042286,35.477097 90.4211042,47.5310554 90.0320972,62.6398283 C89.9228711,66.9907484 88.6407837,71.1202967 86.4714568,74.7989236 L86.4714568,74.7989236 Z" id="Shape"></path>
            </g>
        </g>
    </g>
</svg>