<?xml version="1.0" encoding="UTF-8"?>
<svg width="512px" height="512px" viewBox="0 0 512 512" version="1.1" xmlns="http://www.w3.org/2000/svg" xmlns:xlink="http://www.w3.org/1999/xlink">
    <!-- Generator: Sketch 47.1 (45422) - http://www.bohemiancoding.com/sketch -->
    <title>ctsi_gesture_slideright2</title>
    <desc>Created with Sketch.</desc>
    <defs></defs>
    <g id="icon图标库" stroke="none" stroke-width="1" fill="none" fill-rule="evenodd">
        <g id="ctsi_gesture_slideright2" fill-rule="nonzero" fill="#000000">
            <g id="手势双指右划" transform="translate(37.000000, 0.000000)">
                <path d="M67.3702406,265.927825 L67.212944,265.926655 C67.2415966,265.941858 67.2971474,265.940689 67.3702406,265.927825 Z" id="Shape"></path>
                <path d="M339.049265,178.270246 C344.822466,170.436983 347.840927,162.125398 353.695408,154.650585 C355.787631,151.977124 357.953531,149.407163 360.132297,146.923746 L438.330433,103.399902 L345.306637,0.0407131429 L345.306637,46.5526114 C345.245823,46.5631371 338.903079,46.4111029 328.410389,46.2549754 C299.536197,45.835712 239.252351,45.412356 192.028817,48.3945623 C115.467971,53.2397709 49.2933909,66.5532771 49.1524669,68.3747617 C49.071772,69.5559497 122.523521,65.5235383 204.651153,82.4455143 C227.800678,87.2135366 250.295287,93.1001783 269.741029,98.7307017 C258.361279,105.818998 245.976935,114.318871 233.175667,123.911051 C215.370725,137.254964 196.667026,155.519518 179.108846,170.710645 C170.686159,177.993076 161.051292,182.858166 152.82508,189.717242 C143.942782,197.125979 136.503638,206.472565 128.438816,213.185454 C114.590267,224.712559 102.427542,235.05263 93.5353034,243.683487 C81.1603154,255.705288 76.9612514,265.969926 76.9612514,265.969926 L67.3684869,265.900342 C67.2953937,265.913206 67.2398429,265.914375 67.2111903,265.899172 L67.3684869,265.900342 C68.3836069,265.717901 73.4498491,262.780135 75.4274617,257.440815 C76.8203274,253.685574 77.2238029,246.539389 77.2442686,246.761007 C77.3249634,248.295967 89.2151966,239.534127 92.0108691,224.221958 C97.3607137,194.970604 81.1503743,189.202081 76.002852,191.937524 C66.7264349,196.847639 54.8163206,211.594943 54.9876514,211.357537 C54.9876514,211.357537 36.1225629,214.421023 28.7945211,223.959406 C21.15364,233.902434 14.6933617,261.967922 1.44066914,291.446158 C-4.59508343,304.86024 21.1635806,384.318505 23.0815486,396.844942 C25.0498051,409.643871 42.1483743,416.85087 45.3884543,429.043418 C48.6185931,441.23655 45.5100817,445.491165 45.39898,469.706098 C45.1972423,516.974658 260.490926,528.542111 250.689991,484.00841 C248.176167,472.572525 243.846705,465.930975 263.105327,454.34364 C268.303138,451.214662 276.024714,440.862897 280.758236,432.112167 C285.170147,423.976006 291.559087,408.235217 297.484322,399.549394 C304.600685,389.116934 317.40897,378.882118 324.333537,368.491174 C328.835499,361.758404 332.781369,353.492429 336.849449,347.435626 C345.419493,334.667103 354.725146,325.814627 357.229031,317.235229 C358.693236,312.188867 352.434695,295.165145 339.908258,293.676966 C326.735675,292.112185 307.215086,306.223285 307.215086,306.223285 C307.730248,305.960734 306.952535,301.559347 312.019947,296.049282 C324.455165,282.543394 338.748121,272.389273 339.282579,253.907778 C339.585478,243.380004 327.352583,237.808541 322.779281,233.710638 C314.713874,226.483757 288.773939,244.465878 288.582142,245.231896 C288.359354,246.130651 288.117269,239.524186 298.645043,221.052633 C306.224526,207.76427 327.643202,193.753746 339.049265,178.270246 Z M295.847617,141.235918 C284.411731,154.105601 274.226618,168.48393 263.335717,181.964089 C247.690242,201.344339 234.013609,206.94621 233.862159,206.370819 C233.862159,206.370819 238.222613,197.660437 246.227206,189.60497 C253.514901,182.27225 262.58841,174.217369 272.510972,163.760349 C277.012934,159.021565 282.493762,150.759682 286.975259,145.662448 C302.660496,127.816573 328.560669,114.523533 336.140736,101.497722 C343.701507,88.4970549 333.769589,75.7080663 321.060711,75.9150669 C314.770009,76.0156434 304.911185,79.4972234 292.730333,85.6505097 C292.81746,85.3370857 292.902248,85.0242463 293.00107,84.711992 C297.643372,70.0208234 313.288847,61.97062 327.945515,66.7351337 C339.896562,70.6160954 347.507036,81.8198366 347.385994,93.7860869 C353.895975,83.5261263 366.553396,78.6154263 378.555901,82.6525154 C392.939493,87.4772577 400.903154,103.284123 396.350903,117.950147 C392.533094,130.249703 381.126446,137.837957 369.060789,137.119303 C378.020858,127.457539 385.711442,119.066428 387.448139,110.925004 C390.354913,97.2834554 371.883944,92.29206 368.784203,92.151136 C360.104228,91.7576017 345.448144,99.1914829 329.257686,115.285458 C318.760319,125.717333 304.336965,131.67239 295.847617,141.235918 Z" id="Shape"></path>
            </g>
        </g>
    </g>
</svg>