<?xml version="1.0" encoding="UTF-8"?>
<svg width="512px" height="512px" viewBox="0 0 512 512" version="1.1" xmlns="http://www.w3.org/2000/svg" xmlns:xlink="http://www.w3.org/1999/xlink">
    <!-- Generator: Sketch 47.1 (45422) - http://www.bohemiancoding.com/sketch -->
    <title>ctsi_gesture_five1</title>
    <desc>Created with Sketch.</desc>
    <defs></defs>
    <g id="icon图标库" stroke="none" stroke-width="1" fill="none" fill-rule="evenodd">
        <g id="ctsi_gesture_five1" fill-rule="nonzero" fill="#000000">
            <g id="手势五指缩放" transform="translate(55.000000, 0.000000)">
                <path d="M397.388548,395.968232 C392.170808,391.936633 376.969756,367.245864 366.635211,335.17511 C357.660091,307.307488 354.076577,273.739617 342.387859,244.956571 C339.019636,236.659413 333.371314,228.349418 327.821011,220.646207 L351.861824,204.362866 L326.046174,192.63389 L359.385919,80.7293172 L291.618307,176.995255 L276.686806,170.214468 L297.941091,151.613104 L269.585125,142.164811 L283.762816,24.0185534 L236.505597,132.716517 L218.839494,126.827816 C217.608427,125.565827 216.330685,124.414692 215.016769,123.41817 L217.60376,118.533576 L193.972525,118.533576 L175.064852,0.386735608 L156.163598,118.532993 L137.26176,118.532993 L146.588114,138.356088 C150.568369,129.600343 158.887115,123.073938 169.13531,121.892464 C175.397415,121.171327 181.416224,122.550588 186.491604,125.466642 C185.5896,125.771783 184.682344,126.058254 183.771004,126.311469 C174.567174,128.857036 165.276411,129.691361 158.759924,134.120868 C142.19478,145.381338 146.460923,157.518142 146.460923,157.518142 C146.460923,157.518142 127.116252,137.806484 111.202231,145.066278 C99.4318305,150.43338 99.8548275,168.112319 104.493791,187.190356 C103.325736,186.218339 102.217192,185.144801 101.189164,183.959243 C90.9205483,172.138666 92.1936232,154.219348 104.020035,143.956567 C115.702335,133.815726 133.311844,134.945857 143.635887,146.389529 L137.261761,118.532992 L120.726956,134.905016 L38.0126731,61.8222291 L92.1778704,159.686803 L67.1930452,181.373419 L105.45414,190.937234 C107.925609,200.149816 111.243656,209.516427 114.535447,217.842174 L75.8215999,194.150844 L75.8215999,222.506226 L0.203748062,236.689167 L75.8215999,260.3099 L75.8215999,293.399931 L96.4165918,278.964357 C96.6779747,281.148189 96.9580278,283.64883 97.2234947,286.537461 C98.0840749,295.904656 103.597038,313.395726 106.300134,327.650431 C108.453626,338.982082 106.727215,350.324234 111.666069,360.037411 C119.042553,374.556417 141.013889,399.531324 166.473055,423.377267 C180.366025,436.389236 199.990166,449.360365 213.827126,462.474437 C231.812373,479.527924 245.832534,497.528924 250.831482,504.320796 C278.697354,542.073129 431.389335,422.24772 397.388548,395.968232 Z M85.6567157,239.081872 C82.2564034,243.561556 96.3010691,261.064295 95.4259032,267.538774 C95.1651036,269.474058 95.6569469,272.720924 96.3080706,278.059437 C84.4419854,274.670794 75.7451677,263.78256 75.7451677,250.830686 C75.7451677,235.161712 88.441494,222.475304 104.105217,222.475304 C109.116418,222.475304 113.820145,223.778718 117.904253,226.05765 C122.831438,237.664103 126.952304,245.739552 126.952304,245.739552 C126.952304,245.739552 96.5356141,224.776991 85.6567157,239.081872 Z M162.781604,174.266487 C162.970057,174.225646 164.405912,174.51095 166.187167,174.795671 C168.269479,175.121816 170.824964,175.457297 172.407848,175.264177 C178.038667,174.592049 181.759873,172.250105 181.759873,172.250105 C181.759873,172.250105 182.434917,173.75364 183.462362,176.15743 C181.021232,177.193627 178.399235,177.911846 175.630209,178.226906 C171.945177,178.65457 168.34591,178.329009 164.970103,177.412418 L174.820389,198.355143 C168.250809,187.493164 162.796773,174.312579 162.781604,174.266487 Z M193.270057,209.097515 C188.814878,217.277401 181.4664,209.224706 175.098108,198.812563 L185.070334,179.980738 C189.100766,189.727755 195.153415,205.635941 193.270057,209.097515 Z M268.935168,166.6963 C266.230905,163.050359 263.24017,159.679218 260.096574,157.232837 C248.846022,148.477092 235.319455,153.231578 235.319455,153.231578 C235.319455,153.231578 234.060382,150.190667 231.863132,145.939694 C236.759395,143.135078 242.533157,141.752899 248.575887,142.31709 C262.779249,143.660761 273.515787,155.257879 274.218254,169.094255 L268.935168,166.6963 Z M322.791723,213.719559 C318.921156,208.375795 315.496922,203.462612 313.468287,199.231475 C301.810491,174.948533 281.941303,189.528801 281.941303,189.528801 C281.941303,189.528801 281.175241,187.738211 279.809982,184.954599 C287.593709,180.104429 297.578188,179.109073 306.555058,183.185597 C318.52558,188.622128 324.888038,201.342376 322.791723,213.719559 Z" id="Shape"></path>
            </g>
        </g>
    </g>
</svg>