<?xml version="1.0" encoding="UTF-8"?>
<svg width="512px" height="512px" viewBox="0 0 512 512" version="1.1" xmlns="http://www.w3.org/2000/svg" xmlns:xlink="http://www.w3.org/1999/xlink">
    <!-- Generator: Sketch 47.1 (45422) - http://www.bohemiancoding.com/sketch -->
    <title>ctsi_gesture_slidedown1</title>
    <desc>Created with Sketch.</desc>
    <defs></defs>
    <g id="icon图标库" stroke="none" stroke-width="1" fill="none" fill-rule="evenodd">
        <g id="ctsi_gesture_slidedown1" fill-rule="nonzero" fill="#000000">
            <g id="手势下拉" transform="translate(109.000000, 0.000000)">
                <path d="M291.999824,435.818192 C277.664506,408.758121 280.714711,415.989803 278.124416,402.624819 C275.773767,390.571428 276.963189,376.625535 276.303574,362.190365 C275.322668,340.381957 273.292135,317.45285 273.292135,298.225927 C273.292135,281.329682 266.239013,275.957609 262.417593,265.034316 C256.885755,249.13836 252.434677,234.603337 244.921645,227.020409 C235.808034,217.81693 225.823943,223.658898 225.823943,223.658898 C219.251876,206.632845 221.73292,208.003176 214.809607,199.600281 C208.15707,191.497532 197.163293,197.889277 197.163293,197.889277 C197.163293,197.889277 194.38269,189.396514 190.840857,184.534277 C186.678763,178.812132 183.868205,176.901422 180.856766,173.350192 C175.104665,166.567847 159.368474,168.648307 154.707117,170.909088 C151.345607,172.539623 146.834028,177.791873 142.112172,181.233266 C133.028517,187.865832 130.308413,196.248756 130.308413,196.248756 C130.308413,196.248756 121.614771,177.171612 116.452389,167.047727 C113.165474,160.630138 104.495327,149.81727 97.3734825,140.548006 L122.63503,111.026861 L95.0052121,111.026861 L69.2361781,0.40538748 L46.1825487,111.026274 L15.8308649,111.026274 L65.6561667,169.246835 C67.2778912,171.697337 69.2308922,173.842407 71.6367538,175.220374 C71.6367538,175.220374 70.676406,181.592736 72.9078196,187.825304 C75.1480435,194.047299 77.1386358,204.261051 79.4199752,209.76352 C82.6211341,217.476257 83.3312626,216.916495 84.3215658,220.157594 C85.4023238,223.69884 82.7814853,225.499712 85.3829407,235.413319 C88.343866,246.64733 86.6334485,262.742991 86.1330104,273.676857 C85.7124546,282.960218 85.0322815,291.903492 83.9521108,299.246774 C82.4913248,309.280204 79.3001517,316.333326 77.6091173,320.834919 C76.3392264,324.20524 76.5589025,327.036943 76.5589025,327.036943 C76.5589025,327.036943 74.2182389,326.997002 71.4370485,327.907424 C68.6658434,328.817258 66.9055001,331.158509 66.9055001,331.158509 L62.283497,328.057791 C62.283497,328.057791 63.1539774,326.377329 62.283497,323.385273 C61.3425323,320.114805 62.0332783,321.665458 59.692614,315.513359 C58.7522371,313.002359 56.5014403,306.499601 55.7613563,304.138967 C53.8107052,297.886428 49.8342199,295.835337 49.8342199,295.835337 C49.8342199,295.835337 50.0791528,283.601624 47.8506762,273.877737 C45.6774124,264.394084 40.8903588,258.402337 31.7144865,249.719267 C24.1438927,242.546322 17.9771104,240.685539 11.4349988,241.675842 C3.29465743,242.896394 -0.630139408,252.370062 0.578077848,262.34358 C1.27587186,268.105079 2.60919849,272.956743 3.61947207,277.008412 C8.00887735,294.594814 1.35575361,305.819428 1.56133252,312.652286 C1.8262357,321.505106 5.23532283,323.855754 7.68406271,333.219585 C9.41914978,339.842165 13.5559864,347.215403 15.5536267,354.877626 C18.514552,366.172136 20.3259965,376.965622 21.6487502,379.697473 C28.6161162,394.132643 56.2917493,412.260012 82.0008719,435.818778 C96.4665853,449.095658 113.613049,449.156157 125.437366,461.160796 C132.690193,468.513476 136.681363,480.807687 144.153866,491.942434 C175.115826,538.069076 265.870145,493.002634 289.717897,458.810147 C295.390703,450.685666 294.230062,440.029625 291.999824,435.818192 Z M93.8833386,135.948323 C92.813153,134.512207 91.8181505,133.148337 90.9341612,131.88432 C77.2895891,112.397192 69.0165025,109.705869 60.8832098,118.50935 C54.2694394,125.677009 55.6139262,141.060192 58.6312386,152.436934 C51.0230535,148.341213 45.8524476,140.306011 45.8524476,131.064353 C45.8524476,117.659428 56.7117179,106.795458 70.1172308,106.795458 C83.5227437,106.795458 94.3761403,117.659427 94.3761403,131.064353 C94.3755531,132.737179 94.2058039,134.370651 93.8833386,135.948323 Z" id="Shape"></path>
            </g>
        </g>
    </g>
</svg>