<?xml version="1.0" encoding="UTF-8"?>
<svg width="512px" height="512px" viewBox="0 0 512 512" version="1.1" xmlns="http://www.w3.org/2000/svg" xmlns:xlink="http://www.w3.org/1999/xlink">
    <!-- Generator: Sketch 47.1 (45422) - http://www.bohemiancoding.com/sketch -->
    <title>ctsi_gesture_five2</title>
    <desc>Created with Sketch.</desc>
    <defs></defs>
    <g id="icon图标库" stroke="none" stroke-width="1" fill="none" fill-rule="evenodd">
        <g id="ctsi_gesture_five2" fill-rule="nonzero" fill="#000000">
            <g id="手势五指放大" transform="translate(39.000000, 0.000000)">
                <path d="M433.316259,407.21713 C431.414295,397.637649 416.360155,386.678965 412.526372,376.898106 C411.147756,373.406197 407.152403,342.906284 393.064757,293.054813 C390.025948,282.317411 390.25718,265.6944 387.872262,254.046701 C385.608521,242.972694 380.184207,231.59662 378.393469,220.411973 C376.038991,205.800981 379.299668,190.575904 376.451698,177.091806 C374.539782,168.035087 368.804036,159.572548 367.224041,151.431979 C361.025244,119.53823 361.257062,106.994869 354.424276,98.9444519 C344.291006,86.9999553 335.656946,91.7393517 331.471337,104.851136 C328.73752,113.428412 327.385832,123.998976 327.667409,135.168989 C326.280012,134.085999 324.985693,132.888271 323.813137,131.578147 L332.861076,199.141473 L322.927428,204.081076 C323.279838,203.859795 324.647918,167.683847 309.182241,135.276702 C301.614779,119.44281 283.995417,104.917286 279.758294,88.208221 C272.794964,60.8021464 261.222782,45.1397764 251.15976,44.8628822 C242.293881,44.6263805 233.489469,48.0726291 234.59646,61.3354456 C236.42759,83.1667583 253.916993,122.039058 259.451362,144.1619 C261.906529,153.948027 262.198643,165.650754 262.198643,165.650754 C261.715688,165.801787 254.580836,156.060735 250.80735,139.698812 C249.147156,132.528836 247.466474,124.237234 242.857621,116.49942 C237.584926,107.66925 224.000139,97.8175577 218.033159,88.7912791 C213.008673,81.1828384 208.469484,73.8091431 204.408566,67.0729485 L204.408566,63.4481532 L213.092386,61.7171264 L208.986392,68.2882386 L219.612568,69.6264624 C219.189909,67.6243954 218.938773,65.551495 218.938773,63.4177124 C218.938773,62.4418513 218.999655,61.4759413 219.089806,60.5193983 C219.401824,57.4302437 220.186845,54.4921222 221.374036,51.7647452 C225.872248,41.4248296 236.175869,34.1951425 248.161343,34.1951425 C264.301399,34.1951425 277.383328,47.2770709 277.383328,63.4171272 C277.383328,65.6410607 277.121654,67.7947466 276.648651,69.8775987 L292.96023,64.1319004 L245.88648,9.1183739 L220.055716,50.5418455 L165.439676,0.132487866 L126.47664,78.0638294 L153.696557,73.5258103 C148.865839,68.3134112 145.877373,61.3500808 145.877373,53.6772465 C145.877373,37.5366044 158.969253,24.4546766 175.100528,24.4546766 C191.240584,24.4546766 204.327196,37.536605 204.327196,53.6772465 C204.327196,57.2680884 203.676817,60.7061415 202.490796,63.8842766 C192.528464,47.2636067 185.667578,35.2160802 181.801598,34.4521333 C175.995604,33.3100186 153.122865,35.6241036 161.696044,69.4853809 C162.561265,72.9000176 163.804069,76.8579052 165.323181,81.2132792 C162.193634,80.0975071 159.31054,78.465413 156.775174,76.4188552 L200.095926,206.37116 L190.435074,209.575053 C190.284041,209.957319 180.392541,200.538237 167.994945,179.844356 C163.517223,172.372314 158.183645,161.021998 152.347796,153.545272 C144.981711,144.106287 136.750405,137.947881 129.928156,128.091506 C114.370572,105.59635 101.681447,83.5736113 91.0804431,83.3019853 C79.8501345,82.999919 66.6985438,90.2202397 77.4353605,124.146496 C77.8632878,125.497013 78.314631,126.88324 78.7765116,128.285858 C69.447581,123.403624 63.0755048,113.639156 63.0755048,102.386017 C63.0755048,86.2401067 76.1673848,73.1587635 92.3080264,73.1587635 C108.4434,73.1587635 121.525328,86.2406919 121.525328,102.386017 C121.525328,102.979612 121.474983,103.563256 121.444542,104.146899 L145.958157,87.8048799 L63.1562898,53.707101 L48.5458841,146.24885 L72.8979284,131.637858 L84.5122594,144.473918 C88.8822687,156.002195 94.2726293,168.60234 100.867743,181.700073 C113.134209,206.072021 125.12905,222.745962 137.445861,238.288325 C144.781505,247.571009 150.708678,264.16475 153.506303,273.181077 C158.636161,289.740865 158.440638,326.377523 157.863434,345.558145 L76.9535783,289.774818 C79.2097088,292.862802 80.8757568,296.402714 81.7842971,300.237668 C65.7993717,292.399165 49.1230889,289.610321 41.3917144,297.412528 C31.6811035,307.213291 51.0320772,324.914023 59.2633833,337.059897 C63.6205136,343.479976 62.9262296,358.272442 67.2429674,364.87341 C77.9499285,381.296214 90.4774833,399.277939 100.978384,410.156422 C109.974808,419.494719 108.69688,425.20061 113.154114,429.185426 C128.338798,442.719283 164.453865,459.756172 193.61087,469.164717 C218.184781,477.094542 238.601182,481.833938 247.859279,487.498852 C259.77392,494.794689 268.679021,501.143934 274.767764,506.859192 C286.39029,517.73709 325.373231,509.103615 365.282273,486.482013 C424.863672,452.73079 434.29212,412.138001 433.316259,407.21713 Z M147.970763,362.488492 C144.348309,362.729676 140.755711,363.303368 140.755711,363.303368 C140.76976,363.356639 138.963216,358.952092 134.995962,353.00443 L156.879961,358.253124 C155.727309,359.366555 152.350138,362.190524 147.970763,362.488492 Z M207.004229,204.079905 L204.407981,204.941028 L204.407981,180.821973 C204.674924,181.886815 204.903815,182.895459 205.081776,183.829172 C207.336736,195.586926 207.004229,204.079905 207.004229,204.079905 Z" id="Shape"></path>
                <path d="M386.554527,111.5124 L341.24166,55.0347885 L302.489953,113.011608 L316.517887,115.225005 C316.417198,114.208751 316.34695,113.172593 316.34695,112.125899 C316.34695,95.9799885 329.438245,82.8986454 345.568935,82.8986454 C361.720114,82.8986454 374.791505,95.979988 374.791505,112.125899 C374.791505,113.197766 374.730623,114.253827 374.619983,115.295838 L386.554527,111.5124 Z" id="Shape"></path>
                <path d="M40.6464998,359.036975 L51.1924762,336.05301 C36.0680883,334.956556 24.11364,322.357583 24.11364,306.941666 C24.11364,290.801024 37.20552,277.719096 53.3356247,277.719096 C62.0703744,277.719096 69.8690697,281.562831 75.232502,287.621133 L88.0422191,255.792363 L0.455880223,274.409246 L40.6464998,359.036975 Z" id="Shape"></path>
            </g>
        </g>
    </g>
</svg>