<?xml version="1.0" encoding="UTF-8"?>
<svg width="512px" height="512px" viewBox="0 0 512 512" version="1.1" xmlns="http://www.w3.org/2000/svg" xmlns:xlink="http://www.w3.org/1999/xlink">
    <!-- Generator: Sketch 47.1 (45422) - http://www.bohemiancoding.com/sketch -->
    <title>ctsi_spock</title>
    <desc>Created with Sketch.</desc>
    <defs></defs>
    <g id="icon图标库" stroke="none" stroke-width="1" fill="none" fill-rule="evenodd">
        <g id="ctsi_spock" fill-rule="nonzero" fill="#000000">
            <g id="hand-spock-o" transform="translate(0.000000, 17.000000)">
                <path d="M217.6,34.0779224 C209.066667,34.0779224 202,37.0952384 196.4,43.1298703 C190.8,49.1645022 188,56.4415585 188,64.9610392 C188,67.4458876 188.266667,69.9307361 188.8,72.4155846 L228.8,238.545455 L221.866667,238.545455 L190.933334,110.22078 C189.333334,103.476191 185.822222,97.9740265 180.4,93.7142865 C174.977778,89.4545465 168.8,87.3246763 161.866667,87.324676 C153.511111,87.324676 146.488889,90.3419919 140.8,96.3766238 C135.111111,102.411256 132.266667,109.599567 132.266667,117.941559 C132.266667,119.89394 132.622222,122.467533 133.333333,125.662338 C133.866667,127.969697 137.333333,142.257576 143.733333,168.525974 C150.133333,194.794373 156.177778,219.820347 161.866667,243.603896 C167.555556,267.387446 170.4,279.634199 170.4,280.344156 L170.4,340.779221 L88.5333334,279.545455 C82.4888891,274.930737 75.6444447,272.623377 68.0000001,272.623377 C58.7555556,272.623377 50.8,275.862555 44.1333335,282.34091 C37.466667,288.819265 34.1333337,296.673161 34.1333337,305.902598 C34.1333337,317.794373 39.1111115,327.556278 49.066667,335.188313 L184.266667,436.09091 C190.311111,440.705629 197.066667,443.012988 204.533334,443.012988 L389.6,443.012988 C395.466667,443.012988 400.711111,441.193724 405.333334,437.555196 C409.955556,433.916667 412.977778,429.257577 414.4,423.577923 L441.066667,316.818183 C442.488889,311.493508 443.377778,303.683984 443.733334,293.389612 C444.088889,283.095239 444.888889,275.463205 446.133333,270.493508 L477.066667,143.233768 C477.6,141.103898 477.866667,138.796538 477.866667,136.31169 C477.866667,128.147188 474.933333,121.136365 469.066667,115.279222 C463.2,109.422079 456.088889,106.493508 447.733333,106.493508 C440.977778,106.493508 434.844444,108.756495 429.333333,113.282469 C423.822223,117.808443 420.266667,123.35498 418.666667,129.92208 L392.266667,238.545456 L385.333333,238.545456 L420.533333,92.915586 C421.066666,90.4307375 421.333333,87.945889 421.333333,85.4610405 C421.333333,77.1190492 418.488889,70.019482 412.8,64.1623391 C407.111111,58.3051962 400,55.3766248 391.466666,55.3766248 C384.711111,55.3766248 378.622222,57.506495 373.2,61.7662353 C367.777778,66.0259756 364.266667,71.5281401 362.666666,78.2727286 L324,238.545456 L290.133333,238.545456 L246.399999,56.9740272 C244.799999,50.2294384 241.288888,44.7272739 235.866666,40.4675339 C230.444443,36.2077939 224.355555,34.0779237 217.599999,34.0779234 L217.6,34.0779224 Z M389.6,477.090909 L204.533333,477.090909 C189.422222,477.090909 175.822222,472.564935 163.733333,463.512987 L28.5333332,362.344156 C19.6444442,355.599567 12.6666664,347.257576 7.59999986,337.318182 C2.53333329,327.378788 -2.2105774e-15,316.906927 0,305.902598 C0,287.266234 6.66666668,271.380953 20.0000001,258.246754 C33.3333334,245.112555 49.3333334,238.545455 68.0000001,238.545455 C72.4444444,238.545455 76.8444444,239.03355 81.1999999,240.009741 C85.5555555,240.985931 89.2444444,241.962122 92.2666667,242.938312 C95.288889,243.914503 98.9333334,245.733767 103.2,248.396105 C107.466666,251.058442 110.577777,253.099568 112.533333,254.519481 C114.488889,255.939394 117.911111,258.55736 122.8,262.373377 C127.688889,266.189395 131.022222,268.718615 132.8,269.961039 L99.9999998,133.649351 C98.7555553,127.43723 98.1333331,122.201299 98.1333331,117.941559 C98.1333331,101.435065 103.466666,87.0584419 114.133333,74.8116884 C124.8,62.564935 138.311111,55.5541125 154.666666,53.779221 C157.155555,38.3376625 164.311111,25.5140694 176.133333,15.3084416 C187.955555,5.10281387 201.777777,2.20698877e-15 217.6,0 C232.355555,0 245.511111,4.57034625 257.066667,13.7110387 C268.622222,22.8517312 276.177778,34.6103893 279.733333,48.9870129 L307.2,162.935065 L329.333333,70.2857143 C332.888889,55.909091 340.444444,44.150433 352,35.0097402 C363.555556,25.8690473 376.711111,21.2987011 391.466667,21.2987014 C406.933334,21.2987014 420.488889,26.0909092 432.133333,35.6753248 C443.777778,45.2597405 451.111111,57.5952382 454.133333,72.6818181 C470.666667,74.45671 484.444444,81.378788 495.466667,93.4480521 C506.488889,105.517316 512,119.805195 512,136.311688 C512,141.636364 511.377778,146.694805 510.133333,151.487013 L479.2,278.48052 C478.311111,282.385282 477.866667,288.331169 477.866667,296.318182 C477.866667,305.37013 476.711111,314.954546 474.4,325.071429 L447.466667,431.831169 C444.088889,445.142857 437.022222,456.014069 426.266667,464.444805 C415.511112,472.875541 403.288889,477.090909 389.6,477.090909 L389.6,477.090909 Z" id="Shape"></path>
            </g>
        </g>
    </g>
</svg>