<?xml version="1.0" encoding="utf-8"?>
<!-- Generator: Adobe Illustrator 16.0.0, SVG Export Plug-In . SVG Version: 6.00 Build 0)  -->
<!DOCTYPE svg PUBLIC "-//W3C//DTD SVG 1.1//EN" "http://www.w3.org/Graphics/SVG/1.1/DTD/svg11.dtd">
<svg version="1.1" id="图层_1" xmlns="http://www.w3.org/2000/svg" xmlns:xlink="http://www.w3.org/1999/xlink" x="0px" y="0px"
	 width="512px" height="512px" viewBox="0 0 512 512" enable-background="new 0 0 512 512" xml:space="preserve">
<g>
	<path fill-rule="evenodd" clip-rule="evenodd" d="M188.114,305.021v-4.358c-14.022-1.865-23.217,1.399-23.527,12.617
		c-0.313,10.443,7.479,14.648,23.373,12.463l0.154-4.206c-10.903,2.807-15.582-0.307-15.272-8.098
		C172.375,305.802,177.517,303.003,188.114,305.021L188.114,305.021z"/>
	<polygon fill-rule="evenodd" clip-rule="evenodd" points="193.099,300.663 200.737,300.663 200.737,310.947 209.462,310.947 
		209.462,300.663 217.093,300.663 217.093,326.216 209.462,326.216 209.462,315.307 200.737,315.307 200.737,326.216 
		193.099,326.216 193.099,300.663 	"/>
	<polygon fill-rule="evenodd" clip-rule="evenodd" points="224.73,326.37 232.828,326.37 232.828,300.663 224.73,300.663 
		224.73,326.37 	"/>
	<polygon fill-rule="evenodd" clip-rule="evenodd" points="240,300.663 244.519,300.663 244.671,300.663 260.251,315.779 
		260.403,300.663 266.015,300.663 266.015,326.37 262.59,326.37 245.757,310.32 245.605,326.37 240,326.37 240,300.663 	"/>
	<path fill-rule="evenodd" clip-rule="evenodd" d="M283.464,300.503l4.205,0.16l12.004,25.553l-8.104,0.154l-2.646-6.394h-5.459
		v-3.424l4.053-0.152l-4.053-8.726V300.503L283.464,300.503z M268.814,326.522l11.697-26.02h2.952v7.172l-0.307-0.466l-3.898,9.344
		h4.205v3.424h-5.445l-2.659,6.239L268.814,326.522L268.814,326.522z"/>
	<polygon fill-rule="evenodd" clip-rule="evenodd" points="311.202,300.663 334.096,300.663 334.096,304.555 327.092,304.555 
		327.092,326.37 319.14,326.37 319.14,304.555 311.202,304.555 311.202,300.663 	"/>
	<polygon fill-rule="evenodd" clip-rule="evenodd" points="345.473,321.852 359.495,321.852 359.495,326.37 337.688,326.37 
		337.688,321.852 337.688,315.465 337.688,311.101 337.688,304.715 337.688,300.663 345.473,300.663 358.715,300.663 
		358.715,304.715 345.473,304.715 345.473,311.101 355.443,311.101 355.443,315.465 345.473,315.465 345.473,321.852 	"/>
	<polygon fill-rule="evenodd" clip-rule="evenodd" points="363.7,300.663 371.805,300.663 371.805,321.852 384.421,321.852 
		384.421,326.216 371.805,326.216 371.805,326.37 363.7,326.37 363.7,326.216 363.7,321.852 363.7,300.663 	"/>
	<polygon fill-rule="evenodd" clip-rule="evenodd" points="397.205,321.852 411.228,321.852 411.228,326.37 389.407,326.37 
		389.407,321.852 389.407,315.465 389.407,311.101 389.407,304.715 389.407,300.663 397.205,300.663 410.295,300.663 
		410.295,304.715 397.205,304.715 397.205,311.101 407.176,311.101 407.176,315.465 397.205,315.465 397.205,321.852 	"/>
	<path fill-rule="evenodd" clip-rule="evenodd" d="M437.866,305.021v-4.204c-14.022-1.866-23.367,1.405-23.687,12.622
		c-0.154,10.437,7.645,14.489,23.38,12.465l0.307-4.207c-10.903,2.646-15.736-0.313-15.43-8.104
		C421.977,305.962,427.116,303.156,437.866,305.021L437.866,305.021z"/>
	<path fill-rule="evenodd" clip-rule="evenodd" d="M455.008,300.351c7.632,0,13.869,5.918,13.869,13.089
		c0,7.165-6.237,13.083-13.869,13.243v-3.587c2.953-0.152,4.832-2.024,6.073-4.671v-10.75c-1.089-2.493-3.12-4.205-6.073-4.053
		V300.351L455.008,300.351z M454.855,300.351h0.152v3.271c-0.152,0-0.473,0-0.626,0c-2.34-0.152-4.359,1.56-5.445,3.74l0.153,12.31
		c1.085,1.865,3.12,3.424,5.445,3.424c0.152,0,0.32,0,0.473,0v3.587h-0.152c-7.646,0-14.023-5.926-14.023-13.243
		C440.832,306.115,447.21,300.351,454.855,300.351L454.855,300.351z"/>
	<polygon fill-rule="evenodd" clip-rule="evenodd" points="472.93,300.503 478.695,300.503 491.617,319.044 504.708,300.503 
		509.998,300.503 509.998,326.216 502.367,326.216 502.367,312.193 492.244,326.37 488.04,326.37 478.375,311.413 478.375,326.216 
		472.93,326.216 472.93,300.503 	"/>
	<path fill-rule="evenodd" clip-rule="evenodd" d="M48.08,198.104c-64.672,25.601-56.885,66.249-3.698,67.704
		c5.41,76.811,51.603,82.486,63.084,8.975L97.04,277.29c-6.464,38.273-21.511,39.854-26.13-13.068
		c82.486-18.34,103.207-69.814,32.864-75.886l1.849,7.924c32.334,6.468,9.633,33.649-33.657,44.47
		c2.903-22.963,10.162-38.001,21.514-29.166l5.41-1.581c-18.476-35.634-45.929-22.963-54.11,31.806
		c-30.883-3.564-28.244-23.757,5.542-38.142L48.08,198.104L48.08,198.104z"/>
	<path fill-rule="evenodd" clip-rule="evenodd" d="M227.536,240.214c2.493-0.78,4.359-2.34,4.986-5.146
		c0.467-7.012,1.712-12.776,3.579-15.576c0.153-3.272,0.313-5.764,1.093-8.257c0.933-5.611,1.399-9.037-7.324-10.13
		c-0.62,0.16-1.4,0.16-2.333,0v6.545c0.933-0.467,1.867-0.78,2.959-1.399c1.713-0.474,3.273-1.56,4.986-1.873
		c1.246,0.626,0.466,5.138-1.874,7.637c-0.466,2.333-3.738,4.985-5.604,8.412c-0.16,0.153-0.313,0.313-0.467,0.466V240.214
		L227.536,240.214z M196.058,185.683c-0.619,1.4-0.152,1.713,0.161,3.12c1.086,4.358,1.713,10.124,0.62,14.489v4.359l-1.399,1.712
		v1.873c-2.493,0.779-4.206,1.712-6.545,2.646c-0.934,0.467-1.713,0.78-2.646,1.247v10.13c0.62-0.313,1.239-0.466,1.866-0.626
		c2.34-0.933,5.299-2.179,7.478-4.672l2.026,8.412c0.314,2.805-1.865,4.679-4.052,7.478c-2.178,1.247-4.825,1.873-7.317,2.493v13.87
		h0.153c3.739-0.627,7.012-1.407,9.351-2.492c0.772,0.933,1.399,2.332,1.713,4.045c-0.627,4.052-0.466,7.324,0.779,9.351
		c-0.16,3.119-0.313,6.698-0.16,9.504c0.16,1.246,1.093,2.493,0.626,3.585c-0.313,0.62-0.466,1.087-0.466,1.866
		c-0.16,2.96,1.553,4.986,1.553,7.791c0.626,3.273,1.246,5.453,2.805,6.232c0.934,0.466,2.18,0.16,3.586,1.245
		c0.466-0.152,1.246-1.245,1.713-2.332c0.62-1.559,1.872-2.338,2.806-4.679c-0.313-3.426-0.313-6.544,0.306-8.877l0.161-3.119
		l3.425-9.344l0.627-10.284c1.552-0.94,2.333-2.34,2.959-4.833c1.399-6.231,3.426-9.817,8.098-9.35c0.473,0,0.779-0.154,1.252-0.307
		v-19.321c-1.093,0.779-2.026,1.56-2.966,1.56c-2.646,0.153-3.272,0.933-4.672,0.933c-0.626-3.893-1.093-6.699-0.933-8.571
		c0-0.307,0.306-0.466,0.306-0.773c0.16-1.093,0-1.873,0.474-2.5c0.933-1.553,3.112-1.865,7.791-3.892v-6.545
		c-4.052,0-10.283-0.78-12.623,1.406c-0.313,0-0.779,0-1.093-0.16c-2.332-1.712-3.272-2.959-4.825-6.071
		C205.097,188.489,201.357,185.216,196.058,185.683L196.058,185.683z M186.249,215.128c-2.966,1.247-5.926,2.646-8.418,3.899v-0.779
		l0.314-0.473l0.153-1.553c-1.403-2.492-1.556-5.458-3.115-7.792c-3.43,4.206-6.075,13.396-9.505,21.653
		c-1.869,4.052-2.492,7.486-1.56,11.217c1.56,1.72,1.717,5.459,5.142,7.485l3.896-1.253h0.779c0.466,1.72,0.623,3.746,1.247,5.458
		c2.335,1.087,4.056,1.247,6.701,0.933c1.093-0.466,2.646-1.399,4.366-1.712v-13.87c-1.72,0.473-3.433,0.78-4.833,1.247
		c-1.56,1.246-2.806,2.339-3.586,3.432c-0.936,0.153-1.869,0.466-2.962,0.62c0-1.247,0.314-2.646,0.78-3.893l2.496-3.898
		c0-0.78,0.779-1.713,1.093-2.493c1.246-3.273,4.045-6.544,7.011-8.098V215.128L186.249,215.128z"/>
	<path fill-rule="evenodd" clip-rule="evenodd" d="M268.661,269.498c1.101,3.12,2.339,5.146,4.206,7.325l1.56,0.467l3.271-0.934
		l6.865-2.332c6.378-1.72,10.43-5.146,16.195-9.197c2.492-1.56,5.612-2.798,8.258-4.52l0.153-0.779c-0.307,0-0.78,0-0.933,0
		c-3.427,1.407-6.699,2.501-10.124,3.899c-1.866-0.16-3.747,0.933-5.766,1.712c-1.712,0.62-3.578,0.934-4.831,1.399
		c-2.493,0.314-4.206,0.94-5.612,1.72c-1.086,0.307-2.02,0.467-3.272,0.62c-0.78,0.313-2.173,0-2.8-0.153
		C273.034,268.726,270.542,269.039,268.661,269.498L268.661,269.498z"/>
	<path fill-rule="evenodd" clip-rule="evenodd" d="M263.996,207.184c-0.626,2.026-1.253,3.112-1.88,5.612
		c1.101,6.851,0.934,12.303-0.933,16.669l-0.306,7.165l-0.627,4.832v1.56l-0.308,0.153l-0.166,5.138l-0.935,3.586l-0.152,2.96
		l0.32,0.626l-0.168,2.179c0.321,1.247,0.168,2.339-0.152,3.426l-0.307,1.56c0.153,9.971,5.612,12.149,6.226,5.299l-0.307-7.792
		c0.307-2.805,0.779-4.831,0-7.011c-0.307-7.164,2.019-15.269,4.204-22.9c-0.306-1.56-0.626-2.959,0-4.365l0.308-5.299
		c-1.087-0.933-1.24-2.026-1.087-5.605c-0.626-1.56-1.239-3.433-2.019-4.365C265.709,209.829,265.082,207.811,263.996,207.184
		L263.996,207.184z"/>
	<path fill-rule="evenodd" clip-rule="evenodd" d="M269.134,217c0.308-0.473,1.241-0.626,2.493-0.779
		c5.611-4.519,14.648-8.104,26.946-10.597l2.813-0.78l3.118,4.833c0.153,1.246,0.46,2.492-0.32,4.052l-1.239,2.646
		c-1.406,1.712-2.813,2.959-4.204,4.519c-0.78,0.933-1.101,2.179-0.933,3.586c1.865,0.619,3.578,1.712,5.443,3.112
		c1.406,2.179,2.033,3.119,0.474,5.765c-3.119,2.493-2.339,5.146-6.085,6.232v0.626l0.168,0.307l-0.627,3.278v0.78l3.578-0.16
		c0.627,0.466,1.086,0.313,1.712,0.466c0.78,0,1.407-0.153,2.033,0.314c0,0.153,0,0.313-0.167,0.467
		c-1.239,1.559-0.779,1.712,0.78,1.865l-1.239,2.806l-4.205,3.119l-3.426,1.713c-2.34,0.627-4.526,1.56-6.238,2.959l-3.12,1.399
		l-8.257,3.119c-4.359,0.934-7.005,0-7.157-5.451c0.933-2.959,2.172-5.918,4.512-7.011l1.712-5.146l-2.172-0.154
		c-0.947-0.619-1.727-1.56-2.34-2.805c-1.253,0.313-2.492-0.314-3.745-1.866l-0.154-1.247c0.475-0.153,0.78-0.466,1.088-0.626
		c0.167-0.467,0.167-0.933,0.167-1.399c3.425-2.807,7.156-5.139,11.056-5.918c0.626-2.339,1.56-4.985-0.779-7.171
		c-2.187-0.154-4.359,0.466-6.546,0l-0.933-1.247l0.153-1.713c-0.626-0.78-1.713-1.56-3.426-1.866
		C268.981,218.714,268.661,218.867,269.134,217L269.134,217z"/>
	<path fill-rule="evenodd" clip-rule="evenodd" d="M306.371,231.023l0.152,0.62c0.154,0.933,0.475,2.646-0.306,3.893l-1.561,2.033
		c-1.253,0.933-0.627,2.485-2.032,3.112v0.466c1.1,0.153,2.032,0.153,2.492-0.153c0.167,0,0.32-0.16,0.32-0.313l2.02-0.16
		c3.118-0.774,5.305-0.467,6.237-1.866c-0.152-2.493,0.627-4.52-0.152-5.138c-0.947-0.467-1.88-0.941-3.899-1.093
		C308.558,231.803,307.61,231.33,306.371,231.023L306.371,231.023z"/>
	<path fill-rule="evenodd" clip-rule="evenodd" d="M268.201,203.444c2.02,0.307,2.799,0.781,3.732,2.333
		c2.186,0,4.372,0.474,6.546,0.474c5.764-2.807,12.615-5.146,19.328-7.325l4.204-0.779l1.086-0.467l6.072-0.152
		c2.492,0,4.052,0.152,4.205,0.933c2.813,1.713,3.272,4.206,2.66,9.191l-1.561,21.34l0.152,8.731l-0.625,3.426l0.779,7.791
		l0.474,9.344l-1.561,4.053v6.23h-1.1l-3.425-3.738c-1.56-0.467-2.339-0.153-2.02,1.712c1.713,4.833,3.732,9.038,6.225,12.625
		c0.779,2.025,1.406,4.204,2.187,6.384c2.339,2.025,4.832,2.493,7.17,4.206c0.308,0,0.614-0.153,0.935,0
		c0-0.62,0.626-0.62,0.934-0.934l2.492-3.893c-0.153-6.078,0.306-9.037,0.933-11.996c-0.627-3.586-2.173-5.918-0.627-7.638
		c0-1.713,0-3.426-0.153-5.293c0.153-13.242-0.627-26.332-0.779-39.574c-1.086-2.652-1.393-4.833-0.153-7.165
		c-0.152-1.559,0.153-3.272,0.153-4.832c-0.613-0.619-1.239-2.179-0.613-4.679l0.934-3.731c-0.168-0.781-0.168-1.56-0.32-2.34
		c-1.393-2.646-3.119-5.146-5.445-7.324c-4.984-1.866-12.63-0.314-17.615,1.872l-11.836,1.866c-4.052,1.56-8.564,3.12-12.31,5.766
		c-0.779,0.314-1.714,0.467-2.647,0.467C273.187,201.265,270.221,201.885,268.201,203.444L268.201,203.444z"/>
	<path fill-rule="evenodd" clip-rule="evenodd" d="M390.66,280.256h3.118l3.733-1.72h3.592l6.699-2.18l4.052-1.245l2.952-0.78
		l2.646-2.959l2.813-2.493l0.152-0.933l-0.933-1.247c0-1.405-1.865-2.025-1.865-2.025l-0.474-1.246l-1.713-1.398h-1.253
		c-1.867,1.238-3.885,2.178-6.531,2.645l-9.663,2.646l-7.325,0.939V280.256L390.66,280.256z M390.66,256.103l3.118-1.246
		l4.833-1.093l6.224-0.466c1.087-2.02,2.493-3.733,3.9-5.453v-4.985l-2.492-4.519c1.56-3.586,1.865-6.071,3.271-9.351
		c1.406-2.952,2.492-6.697,1.713-8.717c0-0.314,0.306-0.16,0.306-0.473c0-1.553-0.612-2.493-0.933-4.045
		c-1.086-0.78-2.019-2.34-2.646-4.679c-0.627-1.399-1.56-2.019-2.646-2.333h-1.713l-1.405-1.247l-3.746-0.313l-2.02-0.466
		l-5.765,3.272v5.766l0.626-0.474l4.665-0.153l0.78,0.627h1.56c0.32,0.466,0.627,1.399,0.933,1.865
		c0.167,1.873-0.779,2.653-2.953,2.653c-1.879,1.246-3.745,2.646-5.61,3.892v7.638c0.779-0.16,1.559-0.473,2.492-0.627l2.492-0.153
		c0.307,3.426-0.626,5.918-2.492,8.098c-0.779,0.313-1.56,0.779-2.492,1.093V256.103L390.66,256.103z M362.768,261.555l2.187,0.16
		c1.865,16.041,10.43,18.849,21.347,18.541h4.359v-11.997l-3.119,0.307c-3.732,0.16-5.612-2.332-5.765-7.011l4.678-5.139h3.12
		l1.086-0.313v-15.889c-1.086,0.62-2.187,1.086-3.273,1.713c-2.019,1.093-3.578,0.466-4.358-1.713
		c-0.152-1.247,0.307-2.34,0.46-3.585c2.186-2.494,4.526-3.739,7.172-4.826v-7.638c0,0-0.153,0-0.153,0.153
		c-2.186,0-4.373,0-6.545,0c-0.934,0.16-2.493-2.333-1.407-3.892c1.254-2.179,3.746-3.426,7.326-3.899l0.779-0.772v-5.766
		l-4.526,2.493l-1.713-0.161c0.78-3.425,1.253-6.544,1.101-9.343c-2.187-4.052-5.152-4.832-8.411-4.985l-0.474,3.579l-2.032,3.272
		l-1.546,10.911c-1.254,1.246-2.339,2.02-4.206,2.799l-6.085,4.212v0.62h1.56l1.407,1.559l1.238-0.153l1.712-0.779h1.561
		l0.321,2.799c-1.882,3.585-4.526,6.391-7.799,8.57v6.079c1.1-0.313,2.492-0.313,4.052,0.154c0.933,2.338,0,5.298-1.56,8.723
		c-0.933,0.161-1.712,0.314-2.492,0.627V261.555L362.768,261.555z M356.376,219.493c-0.766,3.426-2.019,6.071-3.885,8.098
		c0.152,10.13-0.153,17.142-2.813,21.5v4.052l4.053,2.653l1.406,0.152l1.086,1.866l3.592,3.434l2.953,0.306v-10.59
		c-1.712,0.466-3.12,1.086-4.513,2.333l1.087-8.878c0.934-1.56,2.033-2.492,3.426-2.959v-6.079c-0.152,0-0.46,0.154-0.627,0.154
		c-0.152,0.159-0.458,0.159-0.612,0.159c-0.32,0.467-0.32-2.492,0.154-4.671c0.306-2.033,0.625-4.365,0.625-4.519
		c-0.933-1.247-1.879-2.652-2.66-4.052l-0.933-0.313l-0.933-0.467v-2.026l-0.307-0.62L356.376,219.493L356.376,219.493z
		 M362.768,222.766v0.62h-0.306l0.153-0.62H362.768L362.768,222.766z"/>
	<path fill-rule="evenodd" clip-rule="evenodd" d="M446.598,206.87c-0.321,0.466-0.627,1.093-0.627,1.56
		c-0.307,4.366-2.187,7.945-4.053,11.997c-1.239,2.493-2.339,5.298-3.898,7.791c-0.933,1.865-2.34,3.585-3.426,4.985
		c-1.086,3.273-1.56,6.544-1.24,9.817c0.781,0.466,1.24,1.247,1.867,1.56v5.452c0.626-0.161,1.56-0.627,2.019-1.407
		c0-2.026,1.407-2.492,2.187-3.585c1.56-1.087,3.426-3.273,5.291-4.825c1.407-2.026,2.66-1.873,3.899,0l0.626,4.671l0.307,6.698
		c-0.459,2.959-1.085,6.231-1.56,9.197c-2.019,5.918-2.019,11.685-1.865,17.448c0.779,1.087,1.56,1.714,2.646,2.18
		c1.56-1.873,5.612-4.053,6.238-6.698c1.406-13.403,3.119-24.773,2.953-36.769c1.559-2.187,1.879-4.206,1.251-5.918l-5.137-3.272
		h-2.491v-1.56c0.458-0.627,0.778-1.399,1.085-2.179c0.152-1.093-0.152-1.72,0-2.187c0-0.467,0.474-0.933,0.474-1.399
		c0-0.626,0-1.247-0.166-1.873l-2.802-6.072l-0.473-1.873C449.396,208.43,448.464,207.03,446.598,206.87L446.598,206.87z"/>
	<path fill-rule="evenodd" clip-rule="evenodd" d="M463.42,214.815c-4.833,0-5.919-2.8-4.986-4.826
		c0.626-0.16,1.867,0.154,2.493-0.16c3.272-1.866,6.237-1.399,9.344-2.019c4.372-0.78,8.578-1.56,13.089-2.186
		c6.865-3.892-5.445-7.325-9.037-5.605c-0.46,0.153-0.626-0.473-0.626-0.94c3.745-1.552,5.152-4.045,6.865-5.299
		c0.78-0.466,0.626-0.466,1.559-0.306c0.78-0.626,0.613-1.247,1.087-2.026c1.865-2.959,4.833-0.16,13.55,3.892l0.165,7.011
		c2.021,0.466,8.411-0.153,11.991,0.313c2.031,0.466,1.085,3.112-1.713,4.205c0.307,3.586-1.241,3.586-3.427,3.586
		c-1.086-0.779-3.577-0.779-4.205,0.153c-7.951,0.153-12.462,0.313-20.413,0.313C473.39,211.703,468.097,212.795,463.42,214.815
		L463.42,214.815z"/>
	<path fill-rule="evenodd" clip-rule="evenodd" d="M479.461,220.58c-1.394-1.399-1.867-2.645,0.168-4.052l4.984-1.246
		c1.713-0.307,3.271-0.307,5.292-0.153h1.406l2.019,0.466c1.56,0.313,3.272,1.093,4.68,2.026c0.626,0.627,1.086,1.247,1.238,2.026
		l1.407,0.933c0.153,1.247,0,2.187-0.307,3.119c-0.78,1.093-1.561,2.646-2.493,3.426l-1.253-0.153l-1.392-0.313l-4.22-0.313
		C487.106,225.412,483.833,221.986,479.461,220.58L479.461,220.58z"/>
	<path fill-rule="evenodd" clip-rule="evenodd" d="M500.655,230.71c0.306,0.78,0.474,2.026,0,2.807
		c-0.934,0.306-1.713,0-1.713,2.178c0.153,4.052-7.005,7.945-12.157,3.893l-5.443-0.154c-2.187-1.399-3.9-2.339-5.307-4.832
		c-3.105-5.299,1.713-4.52,1.879-4.52c4.36-0.466,8.717-0.779,12.924-0.779l4.525,1.406
		C497.077,230.549,498.942,230.244,500.655,230.71L500.655,230.71z"/>
	<path fill-rule="evenodd" clip-rule="evenodd" d="M504.708,262.802c-3.427,7.324,0.152,5.764,1.712,7.478
		c-0.152,1.56-0.152,3.119-0.306,5.145c-0.628,0.779-2.341,1.713-3.899,2.646c-0.78-0.153-1.714,0.16-2.339,0
		c-3.732-0.933-6.073-0.779-8.104,0l-3.579,0.16c-9.971-3.433-4.053-11.53-0.78-13.869c4.525-3.739,3.899-10.904,0-7.011
		c-2.34,1.56-1.407,4.365-7.631,2.958c-0.933,1.095-0.152,2.96,0.154,3.587c1.252,0.933,1.085,2.025,0.305,6.857
		c-0.459,3.579-1.392,8.098-2.019,10.438c-0.933,2.026-1.406,1.399-1.713,1.552c-1.254-1.712-3.426-2.798-5.918-3.265
		c-0.32-0.16,0.612-1.407-0.32-3.586c-1.394-3.425-2.02-8.411-1.714-9.037c-0.152-2.026,0.474-10.75-0.78-12.31
		c-0.458-0.934,0-6.232,0.475-8.098c0.306,0.153,1.087-0.313,1.239,0.313c0.946,2.645,4.372,1.712,5.306,3.426
		c0.307,1.093,0.459,3.425,4.053,3.425c2.172-1.086,5.139-2.332,7.782-3.891c2.342-1.408,4.207-2.959,5.766-3.273
		c0.474-0.313,0.934-0.779,1.406-0.779c1.866,0.466,3.427-0.154,5.14,0.779c2.799,1.247,4.357,4.519,6.391,6.384
		C505.794,255.949,505.794,259.222,504.708,262.802L504.708,262.802z"/>
</g>
</svg>
