<?xml version="1.0" encoding="utf-8"?>
<!-- Generator: Adobe Illustrator 16.0.0, SVG Export Plug-In . SVG Version: 6.00 Build 0)  -->
<!DOCTYPE svg PUBLIC "-//W3C//DTD SVG 1.1//EN" "http://www.w3.org/Graphics/SVG/1.1/DTD/svg11.dtd">
<svg version="1.1" id="图层_1" xmlns="http://www.w3.org/2000/svg" xmlns:xlink="http://www.w3.org/1999/xlink" x="0px" y="0px"
	 width="512px" height="512px" viewBox="0 0 512 512" enable-background="new 0 0 512 512" xml:space="preserve">
<g>
	<path fill-rule="evenodd" clip-rule="evenodd" d="M164.378,46.943C-63.589,137.186-36.14,280.468,151.344,285.597
		c19.069,270.755,181.898,290.762,222.37,31.636l-36.754,8.836c-22.786,134.912-75.824,140.485-92.109-46.064
		C535.61,215.356,608.65,33.911,360.694,12.509l6.517,27.931c113.976,22.801,33.955,118.613-118.64,156.754
		c10.231-80.943,35.819-133.953,75.836-102.809l19.07-5.574C278.353-36.797,181.582,7.869,152.743,200.926
		c-108.86-12.565-99.56-83.744,19.537-134.448L164.378,46.943L164.378,46.943z"/>
</g>
</svg>
