<?xml version="1.0" encoding="UTF-8"?>
<svg width="512px" height="512px" viewBox="0 0 512 512" version="1.1" xmlns="http://www.w3.org/2000/svg" xmlns:xlink="http://www.w3.org/1999/xlink">
    <!-- Generator: Sketch 47.1 (45422) - http://www.bohemiancoding.com/sketch -->
    <title>ctsi_thumbs_up</title>
    <desc>Created with Sketch.</desc>
    <defs></defs>
    <g id="icon图标库" stroke="none" stroke-width="1" fill="none" fill-rule="evenodd">
        <g id="ctsi_thumbs_up" fill-rule="nonzero" fill="#000000">
            <g id="手势-点赞">
                <path d="M503.152731,212.769391 C495.789521,204.388459 484.284076,200.118368 468.954899,200.089828 C436.118974,200.032749 372.508825,200.049873 346.430502,200.061289 C368.915122,133.803808 371.234818,81.7727358 353.30169,45.3094314 C338.668878,15.5495028 314.401677,5.12742029 304.645137,2.02859309 C293.56322,-1.5023233 282.632562,-0.365306577 273.876049,5.19534448 C264.958002,10.8638751 259.183875,20.4845663 257.620477,32.2999509 C257.589084,32.527126 257.569106,32.7605797 257.55769,32.9934627 C253.060424,131.068575 219.084629,155.540691 186.228727,179.205137 C179.468272,184.072276 172.480071,189.110082 165.895991,194.670734 C157.770774,201.539068 154.319768,209.044406 154.362007,219.767866 C154.59489,284.245619 154.575483,340.927501 154.558359,401.828673 L154.546943,457.6127 C154.546943,485.439358 165.688223,502.559108 188.604932,509.933735 C191.900111,510.997119 203.809106,511.434916 232.482818,511.434916 C252.272161,511.434916 280.050872,511.230002 318.47827,510.872116 C353.008303,510.547906 388.732433,510.217989 412.584669,510.332147 L412.834676,510.332147 C426.131264,510.332147 435.626381,505.220709 441.056321,495.139389 C449.045119,480.29938 506.728169,278.485761 511.009106,245.149824 C512.75002,231.583822 510.106114,220.689695 503.152731,212.769391 Z M102.518725,200.157753 C78.2144214,199.958546 53.3107871,199.964254 26.3625775,200.16346 C17.6916834,200.231955 11.0020067,202.653824 6.48190858,207.373128 C1.96181048,212.086725 -0.176374582,218.870011 0.127857302,227.529489 C0.437797101,236.467514 3.6987291,286.190305 7.47679822,343.765476 C10.7291683,393.329017 14.2686466,447.287652 16.3012352,481.079081 C17.580379,502.338212 25.8477235,510.270502 46.8003389,510.332718 C57.6830502,510.366965 68.5657614,510.389797 79.4513266,510.389797 C89.1998751,510.389797 98.9478528,510.372673 108.696401,510.332718 C128.432089,510.24767 134.453369,504.152187 134.467639,484.234417 C134.501886,440.225819 134.521864,276.638109 134.459077,232.283041 C134.430537,210.546158 124.281293,200.339835 102.518725,200.157753 L102.518725,200.157753 Z" id="Shape"></path>
            </g>
        </g>
    </g>
</svg>