<?xml version="1.0" encoding="UTF-8"?>
<svg width="512px" height="512px" viewBox="0 0 512 512" version="1.1" xmlns="http://www.w3.org/2000/svg" xmlns:xlink="http://www.w3.org/1999/xlink">
    <!-- Generator: Sketch 47.1 (45422) - http://www.bohemiancoding.com/sketch -->
    <title>ctsi_thumbs_down</title>
    <desc>Created with Sketch.</desc>
    <defs></defs>
    <g id="icon图标库" stroke="none" stroke-width="1" fill="none" fill-rule="evenodd">
        <g id="ctsi_thumbs_down" fill-rule="nonzero" fill="#000000">
            <g id="手势-吐槽" transform="translate(0.570792, 0.000000)">
                <path d="M510.789922,263.981378 C506.027808,230.747612 445.406323,30.016214 437.195487,15.3074872 C431.586319,5.25527759 421.951929,0.421814939 408.502368,0.547389075 C384.630725,1.00230992 348.926573,1.18439242 314.393686,1.36019621 C220.217079,1.83794872 190.008508,2.28716165 184.467264,4.1633534 C161.644736,11.8621895 150.744901,29.1240669 151.14845,56.9216143 L151.941851,110.919634 C152.854546,172.394453 153.698747,229.457052 154.406528,294.451371 C154.520116,305.169124 158.082426,312.62309 166.309815,319.366421 C172.97666,324.830609 180.04363,329.759964 186.875434,334.524932 C220.083514,357.683086 254.420049,381.637494 260.335732,479.501414 C260.350002,479.740004 260.375688,479.973458 260.409935,480.200633 C262.146854,491.970355 268.0574,501.499719 277.04965,507.031831 C282.366002,510.301324 288.44379,511.955478 294.849213,511.955478 C299.093619,511.955478 303.480152,511.227719 307.880954,509.760785 C317.598109,506.525538 341.736883,495.767831 355.946167,465.798421 C373.335902,429.11365 370.259906,377.208152 346.820352,311.377623 C372.918082,311.019166 436.539648,310.121311 469.375001,309.586479 C484.720731,309.342181 496.174805,304.90713 503.415866,296.418319 C510.247099,288.402123 512.728901,277.490872 510.789922,263.981378 L510.789922,263.981378 Z M104.51992,4.91337347 C83.8806689,5.13484058 63.2437012,5.45334225 42.6073043,5.81179933 C21.6495518,6.17596433 13.4957949,14.215563 12.5237369,35.4746934 C10.9746087,69.3448919 8.20227425,123.502163 5.66111037,173.167875 C2.72724192,230.503313 0.191215162,280.015483 0.00970345596,288.930676 C-0.166671126,297.578738 2.07083166,304.316361 6.65371683,308.967171 C11.1880847,313.561472 17.8064125,315.892584 26.3351795,315.892584 L26.6508272,315.892584 C53.749155,315.699086 78.6704838,315.346907 102.829235,314.795523 C124.591804,314.300647 134.596067,303.958475 134.314096,282.244424 C133.734172,237.952143 131.34598,74.5761962 130.6753,30.6195407 C130.370497,10.724602 124.334948,4.90766555 104.51992,4.91337347 Z" id="Shape"></path>
            </g>
        </g>
    </g>
</svg>