<?xml version="1.0" encoding="utf-8"?>
<!-- Generator: Adobe Illustrator 16.0.0, SVG Export Plug-In . SVG Version: 6.00 Build 0)  -->
<!DOCTYPE svg PUBLIC "-//W3C//DTD SVG 1.1//EN" "http://www.w3.org/Graphics/SVG/1.1/DTD/svg11.dtd">
<svg version="1.1" id="图层_1" xmlns="http://www.w3.org/2000/svg" xmlns:xlink="http://www.w3.org/1999/xlink" x="0px" y="0px"
	 width="512px" height="512px" viewBox="0 0 512 512" enable-background="new 0 0 512 512" xml:space="preserve">
<path d="M0,189.886h62.387v158.161h24.602V189.886h61.509v-20.211H0V189.886z M254.817,167.04
	c-56.232,2.939-85.82,33.98-88.747,93.143c2.927,57.417,31.924,87.865,86.989,91.383c56.236-2.351,85.521-32.8,87.869-91.383
	C337.409,201.61,308.701,170.555,254.817,167.04z M252.181,332.231c-38.662-2.924-58.872-26.938-60.628-72.052
	c2.334-45.104,22.846-69.114,61.507-72.055c39.239,2.939,59.75,26.951,61.507,72.055C312.81,306.461,292.01,330.473,252.181,332.231
	z M448.125,169.676h-76.444v178.372h24.603v-68.534h49.206c42.753-0.576,64.435-19.331,65.021-56.235
	C507.573,189.309,486.784,171.433,448.125,169.676z M441.976,260.18h-45.691v-71.176h45.691
	c27.527,1.184,42.176,12.604,43.934,34.271C485.319,247.879,470.67,260.18,441.976,260.18z"/>
</svg>
