<?xml version="1.0" encoding="UTF-8"?>
<svg width="512px" height="512px" viewBox="0 0 512 512" version="1.1" xmlns="http://www.w3.org/2000/svg" xmlns:xlink="http://www.w3.org/1999/xlink">
    <!-- Generator: Sketch 47.1 (45422) - http://www.bohemiancoding.com/sketch -->
    <title>ctsi_tree</title>
    <desc>Created with Sketch.</desc>
    <defs></defs>
    <g id="icon图标库" stroke="none" stroke-width="1" fill="none" fill-rule="evenodd">
        <g id="ctsi_tree" fill-rule="nonzero" fill="#000000">
            <g id="图表_树" transform="translate(0.000000, 76.000000)">
                <path d="M496,263.672 L448,263.672 L448,180.344 C448,162.656 433.672,148.328 416,148.328 L268,148.328 L268,96.328 L312,96.328 C320.832,96.328 328,89.168 328,80.328 L328,16.328 C328,7.496 320.832,0.328 312,0.328 L200,0.328 C191.168,0.328 184,7.496 184,16.328 L184,80.328 C184,89.168 191.168,96.328 200,96.328 L244,96.328 L244,148.328 L96,148.328 C78.328,148.328 64,162.656 64,180.344 L64,263.672 L16,263.672 C7.168,263.672 0,270.832 0,279.672 L0,343.672 C0,352.504 7.168,359.672 16,359.672 L128,359.672 C136.832,359.672 144,352.504 144,343.672 L144,279.672 C144,270.832 136.832,263.672 128,263.672 L88,263.672 L88,196.344 C88,178.672 94.328,172.328 112,172.328 L244,172.328 L244,263.672 L200,263.672 C191.168,263.672 184,270.832 184,279.672 L184,343.672 C184,352.504 191.168,359.672 200,359.672 L312,359.672 C320.832,359.672 328,352.504 328,343.672 L328,279.672 C328,270.832 320.832,263.672 312,263.672 L268,263.672 L268,172.328 L400,172.328 C417.672,172.328 424,178.672 424,196.344 L424,263.672 L384,263.672 C375.168,263.672 368,270.832 368,279.672 L368,343.672 C368,352.504 375.168,359.672 384,359.672 L496,359.672 C504.832,359.672 512,352.504 512,343.672 L512,279.672 C512,270.832 504.832,263.672 496,263.672 Z" id="Shape"></path>
            </g>
        </g>
    </g>
</svg>