<?xml version="1.0" encoding="UTF-8"?>
<svg width="512px" height="512px" viewBox="0 0 512 512" version="1.1" xmlns="http://www.w3.org/2000/svg" xmlns:xlink="http://www.w3.org/1999/xlink">
    <!-- Generator: Sketch 47.1 (45422) - http://www.bohemiancoding.com/sketch -->
    <title>ctsi_tree_1</title>
    <desc>Created with Sketch.</desc>
    <defs></defs>
    <g id="icon图标库" stroke="none" stroke-width="1" fill="none" fill-rule="evenodd">
        <g id="ctsi_tree_1" fill-rule="nonzero" fill="#000000">
            <g id="树状图" transform="translate(41.000000, 0.000000)">
                <path d="M318.803565,428.642155 L194.183295,428.642155 C171.092891,428.642155 152.756394,409.966093 152.756394,386.875689 L152.756394,138.31428 L125.251648,138.31428 L125.251648,386.875689 C125.251648,425.246508 156.152041,456.146902 194.52286,456.146902 L319.14313,456.146902 L318.803565,428.642155 L318.803565,428.642155 Z M28.4756891,110.469969 L305.220974,110.469969 L305.220974,27.6161658 L28.4756891,27.6161658 L28.4756891,110.469969 Z M0.631378238,110.469969 L0.631378238,27.6161658 C0.631378238,12.3357513 12.8557098,0.111419689 28.1361244,0.111419689 L304.881409,0.111419689 C320.161824,0.111419689 332.386155,12.3357513 332.386155,27.6161658 L332.386155,110.469969 C332.386155,125.750383 320.161824,137.974715 304.881409,137.974715 L28.1361244,137.974715 C12.8557098,137.974715 0.631378238,125.750383 0.631378238,110.469969 Z M318.803565,110.469969 L28.4756891,110.469969 L28.4756891,19.8061762 L318.803565,19.8061762 L318.803565,110.469969 Z" id="Shape"></path>
                <path d="M125.251648,262.594984 L318.803565,262.594984 L318.803565,235.090238 L125.251648,235.090238 L125.251648,262.594984 Z M429.501679,442.564311 C429.501679,480.595565 398.601285,511.835523 360.230466,511.835523 C321.859648,511.835523 290.959254,480.93513 290.959254,442.564311 C290.959254,404.193492 321.859648,373.293098 360.230466,373.293098 C398.601285,373.293098 429.501679,404.193492 429.501679,442.564311 Z M401.996933,442.564311 C401.996933,419.473907 383.32087,401.137409 360.570031,401.137409 C337.819192,401.137409 319.14313,419.813472 319.14313,442.564311 C319.14313,465.31515 337.819192,483.991212 360.570031,483.991212 C383.32087,483.991212 401.996933,465.31515 401.996933,442.564311 L401.996933,442.564311 Z" id="Shape"></path>
                <path d="M429.501679,248.672829 C429.501679,286.704083 398.601285,317.944041 360.230466,317.944041 C321.859648,317.944041 290.959254,287.043648 290.959254,248.672829 C290.959254,210.30201 321.859648,179.401617 360.230466,179.401617 C398.601285,179.401617 429.501679,210.641575 429.501679,248.672829 Z M401.996933,248.672829 C401.996933,225.582425 383.32087,207.245927 360.570031,207.245927 C337.819192,207.245927 319.14313,225.92199 319.14313,248.672829 C319.14313,271.423668 337.819192,290.099731 360.570031,290.099731 C383.32087,290.099731 401.996933,271.763233 401.996933,248.672829 L401.996933,248.672829 Z" id="Shape"></path>
            </g>
        </g>
    </g>
</svg>