<?xml version="1.0" standalone="no"?><!DOCTYPE svg PUBLIC "-//W3C//DTD SVG 1.1//EN" "http://www.w3.org/Graphics/SVG/1.1/DTD/svg11.dtd"><svg class="icon" width="200px" height="200.00px" viewBox="0 0 1024 1024" version="1.1" xmlns="http://www.w3.org/2000/svg"><path fill="#000000" d="M539.8 149.1v-26.6c0-15.4-12.5-27.8-27.8-27.8-15.4 0-27.8 12.5-27.8 27.8v26.6C264.7 162.5 87.5 332.6 64 549.3c-0.4 3.8 2.5 6.3 5.5 6.3 1.8 0 3.6-0.9 4.8-2.8 23.4-39.4 76.1-66.9 137.3-66.9 64.4 0 119.3 30.4 140.7 73.1 2 3.9 5.7 5.9 9.5 5.9s7.6-2 9.5-5.9c18.1-36.3 61.1-62.4 112.9-69.8V846c0 46.1 37.4 83.5 83.5 83.5s83.5-37.4 83.5-83.5c0-15.4-12.5-27.8-27.8-27.8-15.4 0-27.8 12.5-27.8 27.8s-12.5 27.8-27.8 27.8S540 861.3 540 846V489c51.8 7.4 94.7 33.6 112.9 69.8 2 3.9 5.7 5.9 9.5 5.9s7.6-2 9.5-5.9c21.4-42.7 76.3-73.1 140.7-73.1 61.3 0 114 27.5 137.3 66.9 1.2 2 3 2.8 4.8 2.8 3 0 5.9-2.4 5.5-6.3-23.7-216.5-200.9-386.6-420.4-400z m272.6 281c-58.3 0-112.2 19.6-150.2 52.6-38-33-91.9-52.6-150.2-52.6s-112.2 19.6-150.2 52.6c-38-33-91.9-52.6-150.2-52.6-21 0-41.3 2.5-60.6 7.2 61.8-139.1 201-233.9 361-233.9s299.2 94.8 361 233.9c-19.3-4.7-39.6-7.2-60.6-7.2z" /></svg>