<?xml version="1.0" standalone="no"?><!DOCTYPE svg PUBLIC "-//W3C//DTD SVG 1.1//EN" "http://www.w3.org/Graphics/SVG/1.1/DTD/svg11.dtd"><svg class="icon" width="200px" height="200.00px" viewBox="0 0 1024 1024" version="1.1" xmlns="http://www.w3.org/2000/svg"><path fill="#000000" d="M794.863882 441.079352h-53.318409V314.179492c0-126.695183-102.85029-229.75015-229.545473-229.75015C385.304817 84.429342 282.454527 187.586648 282.454527 314.384169c0 18.21627 14.839097 33.055367 33.055367 33.055367 18.21627 0 33.055367-14.839097 33.055367-33.055367 0-90.364981 73.274435-163.844094 163.434739-163.844093S675.434739 223.91685 675.434739 314.179492v126.89986H229.75015c-18.21627 0-33.362383 14.532081-33.362383 32.748351v383.360384c0 45.540676 37.353588 82.587248 82.894264 82.587248h466.04997c45.540676 0 82.38257-37.046572 82.38257-82.587248V473.827703c-0.102339-18.21627-14.532081-32.748351-32.850689-32.748351z m-33.260044 416.108735c0 9.108135-7.163702 16.578853-16.271837 16.578853H279.282031c-9.108135 0-16.885868-7.470718-16.885869-16.578853v-349.998001h499.207676v349.998001z"  /><path fill="#000000" d="M512 789.439936c18.21627 0 33.055367-14.839097 33.055367-33.055367V637.46712c0-18.21627-14.736758-33.055367-33.055367-33.055367-18.21627 0-33.055367 14.839097-33.055367 33.055367v119.019788c0.102339 18.21627 14.839097 32.953028 33.055367 32.953028z"  /></svg>