<?xml version="1.0" encoding="utf-8"?>
<!-- Generator: Adobe Illustrator 15.0.0, SVG Export Plug-In . SVG Version: 6.00 Build 0)  -->
<!DOCTYPE svg PUBLIC "-//W3C//DTD SVG 1.1//EN" "http://www.w3.org/Graphics/SVG/1.1/DTD/svg11.dtd">
<svg version="1.1" id="图层_1" xmlns="http://www.w3.org/2000/svg" xmlns:xlink="http://www.w3.org/1999/xlink" x="0px" y="0px"
	 width="512px" height="512px" viewBox="0 0 512 512" enable-background="new 0 0 512 512" xml:space="preserve">

	<path fill-rule="evenodd" clip-rule="evenodd" fill="#040000" d="M486.978,421.707H363.2h-33.008v41.26l33.008,33.008v8.251
		H148.653v-8.251l33.007-33.008v-41.26h-33.007H24.875c-13.672,0-24.756-11.084-24.756-24.755V66.878
		c0-13.671,11.084-24.755,24.756-24.755h152.779L144.648,75.13H33.126v280.563h445.599V75.13H367.205l-33.006-33.008h152.778
		c13.671,0,24.758,11.084,24.758,24.755v330.074C511.735,410.623,500.648,421.707,486.978,421.707z M313.689,116.389
		c-6.834,0-13.021-2.77-17.502-7.25l-15.505-15.503v113.525c0,13.668-11.085,24.755-24.756,24.755s-24.756-11.087-24.756-24.755
		V93.636l-15.5,15.503c-4.481,4.48-10.67,7.25-17.507,7.25c-13.671,0-24.755-11.082-24.755-24.755
		c0-6.833,2.771-13.022,7.251-17.503l57.763-57.762c4.48-4.481,10.67-7.253,17.503-7.253c6.837,0,13.026,2.771,17.503,7.253
		l57.768,57.762c4.477,4.48,7.247,10.67,7.247,17.503C338.444,105.307,327.361,116.389,313.689,116.389z"/>

</svg>
