<?xml version="1.0" encoding="UTF-8"?>
<svg width="512px" height="512px" viewBox="0 0 512 512" version="1.1" xmlns="http://www.w3.org/2000/svg" xmlns:xlink="http://www.w3.org/1999/xlink">
    <!-- Generator: Sketch 47.1 (45422) - http://www.bohemiancoding.com/sketch -->
    <title>ctsi_win</title>
    <desc>Created with Sketch.</desc>
    <defs></defs>
    <g id="icon图标库" stroke="none" stroke-width="1" fill="none" fill-rule="evenodd">
        <g id="ctsi_win" fill-rule="nonzero" fill="#000000">
            <g id="hand-peace-o" transform="translate(37.000000, 0.000000)">
                <path d="M368.071429,184.857143 C379.5,184.857143 389.690476,187.047619 398.642857,191.428572 C425.5,203.428572 438.928572,224.952381 438.928572,256 L438.928572,306.571429 C438.928572,324.476191 436.738095,342.190476 432.357143,359.714286 L408.071429,456.571429 C404.071429,472.952381 395.452381,486.285714 382.214286,496.571429 C368.97619,506.857143 353.97619,512 337.214286,512 L146.357143,512 C126.166667,512 108.928571,504.857143 94.642857,490.571429 C80.3571427,476.285714 73.2142855,459.047619 73.2142855,438.857143 L73.2142855,324.285715 L4.9285715,144.857143 C1.69047617,136.285714 0.0714285,127.619048 0.0714285,118.857143 C0.0714285,98.6666667 7.21428567,81.4285713 21.5,67.142857 C35.7857143,52.8571427 53.0238095,45.7142855 73.2142855,45.7142855 C88.4523808,45.7142855 102.309524,50.0476188 114.785715,58.7142855 C127.261905,67.3809522 136.166667,78.7619047 141.5,92.857143 L146.357143,105.428571 L146.357143,73.142857 C146.357143,52.9523807 153.5,35.7142855 167.785715,21.4285715 C182.071429,7.1428575 199.309524,3.33333332e-07 219.5,0 C239.690476,-3.33333332e-07 256.928571,7.14285683 271.214286,21.4285715 C285.5,35.7142862 292.642857,52.9523813 292.642857,73.142857 L292.642857,147.714286 C297.785714,146.761905 302.357143,146.285714 306.357143,146.285715 C319.5,146.285715 331.642857,149.761905 342.785715,156.714286 C353.928572,163.666666 362.357143,173.047619 368.071429,184.857143 Z M306.357143,182.857143 C300.071429,182.857143 294.309524,184.571429 289.071429,188 C283.833333,191.428571 279.880952,196 277.214286,201.714285 L256.071428,248.285714 L235.785715,292.571428 L251.5,292.571428 C261.02381,292.571428 269.595238,295.571428 277.214286,301.571428 C284.833333,307.571428 289.595238,315.238095 291.5,324.571428 L335.5,228 C337.404762,224.190476 338.357143,219.809524 338.357143,214.857143 C338.357143,206.095238 335.214286,198.571429 328.928572,192.285714 C322.642857,186 315.119048,182.857143 306.357143,182.857143 Z M369.5,221.428571 C365.309524,221.428571 361.452381,222.190476 357.928571,223.714285 C354.404762,225.238095 351.642857,226.761904 349.642857,228.285714 C347.642857,229.809524 345.404762,232.619048 342.928571,236.714285 C340.452382,240.809523 338.833334,243.714285 338.071429,245.428571 C337.309523,247.142858 335.690476,250.666668 333.214285,256 L295.5,338.857143 C293.595238,342.666667 292.642857,347.047619 292.642857,352 C292.642857,360.761905 295.785714,368.285714 302.071428,374.571429 C308.357143,380.857143 315.880952,384 324.642857,384 C330.928571,384 336.690476,382.285714 341.928571,378.857143 C347.166667,375.428572 351.119048,370.857143 353.785714,365.142857 L399.5,264.571429 C401.214286,261.142857 402.071429,257.52381 402.071429,253.714285 C402.071429,244.190476 399.023809,236.428571 392.928571,230.428572 C386.833333,224.428572 379.02381,221.428572 369.5,221.428571 Z M36.642857,118.857143 C36.642857,123.047619 37.4047618,127.428572 38.9285715,132 L109.785714,317.714285 L109.785714,337.428571 L138.928572,305.714285 C147.119048,296.952381 157.214286,292.571428 169.214285,292.571428 L225.785715,292.571428 L256.071429,226 L256.071429,73.142857 C256.071429,63.047619 252.5,54.4285715 245.357143,47.2857145 C238.214286,40.1428575 229.595238,36.5714288 219.5,36.5714285 C209.404762,36.5714282 200.785714,40.1428568 193.642857,47.2857145 C186.5,54.4285722 182.928571,63.0476197 182.928572,73.142857 L182.928572,256 L164.642857,256 L107.5,105.714285 C104.833333,98.6666665 100.357143,92.9999998 94.0714285,88.7142855 C87.7857142,84.4285712 80.8333332,82.2857142 73.2142855,82.2857145 C63.1190475,82.2857145 54.5,85.857143 47.357143,93 C40.214286,100.142857 36.6428573,108.761905 36.642857,118.857143 Z M337.214286,475.428571 C345.595238,475.428571 353.071428,472.857143 359.642857,467.714285 C366.214286,462.571428 370.547619,455.904761 372.642857,447.714285 L396.928571,350.857143 C400.547619,336.952381 402.357143,322.190476 402.357143,306.571429 L402.357143,280.571429 L362.071429,369.142857 C358.833333,376.380952 353.785714,382.190476 346.928571,386.571429 C340.071429,390.952381 332.642857,393.142857 324.642857,393.142857 C314.547619,393.142857 305.642857,389.857143 297.928571,383.285715 C290.214286,376.714286 285.595238,368.476191 284.071429,358.571429 C275.690476,369.428571 264.833333,374.857143 251.5,374.857143 L192.071428,374.857143 L192.071428,365.714285 L251.5,365.714285 C260.261905,365.714285 267.97619,362.571429 274.642857,356.285715 C281.309524,350.000001 284.642857,342.476191 284.642857,333.714286 C284.642857,324.95238 281.690476,317.428571 275.785715,311.142857 C269.880953,304.857143 262.547619,301.714286 253.785715,301.714286 L169.214285,301.714286 C159.880952,301.714286 152.071428,305.142857 145.785714,312 L109.785714,350.857143 L109.785714,438.857143 C109.785714,448.952381 113.357143,457.571428 120.5,464.714285 C127.642857,471.857142 136.261905,475.428571 146.357143,475.428571 L337.214286,475.428571 L337.214286,475.428571 Z" id="Shape"></path>
            </g>
        </g>
    </g>
</svg>