<?xml version="1.0" encoding="UTF-8"?>
<svg width="512px" height="512px" viewBox="0 0 512 512" version="1.1" xmlns="http://www.w3.org/2000/svg" xmlns:xlink="http://www.w3.org/1999/xlink">
    <!-- Generator: Sketch 47.1 (45422) - http://www.bohemiancoding.com/sketch -->
    <title>ctsi_gesture_zoomenlarge</title>
    <desc>Created with Sketch.</desc>
    <defs></defs>
    <g id="icon图标库" stroke="none" stroke-width="1" fill="none" fill-rule="evenodd">
        <g id="ctsi_gesture_zoomenlarge" fill-rule="nonzero" fill="#000000">
            <g id="手势双指放大" transform="translate(27.000000, 0.000000)">
                <path d="M454.358297,410.306388 C443.269751,395.815787 433.754173,375.306977 428.818913,361.192369 C405.972871,295.848128 405.198082,291.54381 393.770383,261.214183 C390.753092,253.200234 389.826854,221.51575 374.733965,216.971686 C372.862191,197.071012 368.225153,178.019974 350.324311,178.00711 C347.190655,164.936274 343.272854,153.336074 337.534153,145.741388 C324.541673,128.515929 298.081898,148.548171 298.081898,148.548171 C298.081898,148.548171 301.289817,143.155055 295.687946,125.152467 C292.34729,114.420032 285.325655,98.5704811 279.146055,84.1757789 C291.78301,52.2112017 310.090835,4.57776 308.406181,1.02776457 C305.860195,-4.34722457 179.217574,17.7754863 179.217574,17.7754863 L208.936725,49.2155457 C208.936725,49.2155457 189.547703,66.3579714 172.369609,89.01514 C146.669419,122.908211 119.671678,166.966513 119.671678,166.966513 C119.671678,166.966513 157.241634,131.60339 192.047494,108.696534 C208.247893,98.0319297 224.558225,91.6295411 234.24221,88.3929697 C235.701737,105.102683 238.076392,123.926839 237.983417,141.79435 C237.912663,155.791424 240.756285,177.104261 241.384302,184.655676 C242.766058,201.311593 232.704327,211.576815 231.049494,230.072929 C229.813925,243.917385 224.864631,319.543221 180.476533,331.274403 C155.019598,338.006003 130.826301,323.991386 105.702087,316.951625 C99.840004,315.306148 90.3466463,314.186359 80.0083303,314.521418 C80.7094411,310.643965 86.1522606,280.954636 93.6463703,251.375824 C103.546127,212.262137 116.198869,171.726932 116.198869,171.726932 C116.198869,171.726932 91.3179097,203.207924 69.048428,236.61507 C50.7265691,264.087041 34.2273646,294.667523 34.2273646,294.667523 L0.165302286,285.815047 C0.165302286,285.815047 15.4149034,403.792311 21.3313674,404.434947 C24.08026,404.734338 44.2411469,388.490083 65.0259571,371.025462 C90.4448829,379.838759 122.519393,386.587318 135.751619,396.779447 C143.632831,402.84853 167.703331,415.448061 190.423653,430.602349 C205.834645,440.87108 217.368767,453.038483 235.342117,462.371621 C259.347711,474.831982 279.071207,479.015257 295.246462,484.838747 C303.364496,487.75897 320.725032,496.646531 332.304765,507.918102 C356.534318,531.507359 478.282611,441.554651 454.358297,410.306388 Z M49.2904326,374.349163 C32.9882874,374.349163 19.7683411,361.128631 19.7683411,344.828826 C19.7683411,328.524342 32.988288,315.309658 49.2904326,315.309658 C52.9743349,315.309658 56.497432,315.990302 59.7486217,317.221778 C46.4520731,320.575883 34.7331709,327.368298 30.6200646,339.616981 C25.8537966,353.806437 42.2027211,362.978184 63.7319143,370.574039 C59.4626811,372.97267 54.539116,374.349163 49.2904326,374.349163 Z M270.827453,63.8330366 C264.09059,45.5363217 262.97197,29.2289143 253.117239,28.60382 C245.617282,28.1301754 238.405019,36.6312183 234.674922,51.8837434 C233.245217,57.741148 232.950505,65.0130543 233.240539,73.1907326 C226.107218,67.8017097 221.494738,59.2509634 221.494738,49.6207749 C221.494738,33.3186297 234.710591,20.0980989 251.012152,20.0980989 C267.318975,20.0980989 280.529566,33.3186303 280.529566,49.6207749 C280.529566,57.2119526 277.663139,64.1330109 272.956515,69.3635674 C272.181141,67.4198709 271.463657,65.5644709 270.827453,63.8330366 Z" id="Shape"></path>
            </g>
        </g>
    </g>
</svg>