<?xml version="1.0" encoding="UTF-8"?>
<svg width="512px" height="512px" viewBox="0 0 512 512" version="1.1" xmlns="http://www.w3.org/2000/svg" xmlns:xlink="http://www.w3.org/1999/xlink">
    <!-- Generator: Sketch 47.1 (45422) - http://www.bohemiancoding.com/sketch -->
    <title>ctsi_gesture_zoomnarrow</title>
    <desc>Created with Sketch.</desc>
    <defs></defs>
    <g id="icon图标库" stroke="none" stroke-width="1" fill="none" fill-rule="evenodd">
        <g id="ctsi_gesture_zoomnarrow" fill-rule="nonzero" fill="#000000">
            <g id="手势双指缩放" transform="translate(40.000000, 0.000000)">
                <path d="M427.321916,405.140922 C386.791555,354.587269 394.296569,230.278066 373.219703,195.267166 C366.97705,184.902205 350.057069,170.782392 339.983963,156.667269 C311.879717,117.313706 287.224401,75.4817174 266.991454,82.8859304 C255.616135,87.0480901 227.295635,102.846949 227.295635,102.846949 C227.295635,102.846949 218.116848,95.4274981 207.405529,96.2620398 C200.11208,96.8352009 189.987988,103.365021 180.266515,104.932717 C166.3149,107.17965 150.982541,109.687963 136.934813,112.72021 C138.210654,102.554508 140.782261,85.0514023 145.270853,65.724495 C153.061862,32.1511878 164.009947,0.146748134 164.009947,0.146748134 C164.009947,0.146748134 140.203825,30.5330908 117.171295,61.0395748 C98.2212209,86.1227096 89.0623605,103.188032 89.0623605,103.188032 L56.2784684,93.8234662 L89.0623605,178.13093 L126.411617,158.362138 C142.859825,158.356863 159.174411,155.314654 159.174411,155.314654 L183.020385,156.591667 L185.040515,170.5005 C185.040515,170.5005 180.687302,188.425564 184.447428,198.986267 C188.659988,210.849184 194.028248,211.724163 201.684465,212.442666 C211.400077,213.362186 224.559932,203.047626 224.559932,203.047626 C224.559932,203.047626 227.838321,206.81244 228.219257,211.819104 C228.752567,218.89161 226.415381,228.100872 226.128214,229.784607 C219.649381,267.916833 195.199771,273.154988 195.199771,273.154988 C195.199771,273.154988 177.540775,269.168645 166.78433,255.244575 C151.904991,235.982134 147.180219,222.802353 113.914004,201.323454 C109.395524,198.405488 103.397255,195.781135 96.9231108,194.34413 L89.3530442,178.129758 L0.0693908904,220.288765 L42.2231229,229.658605 C42.2231229,229.658605 36.593483,270.691214 34.2258226,297.669064 C30.6819505,337.997822 31.2299119,387.189483 31.2299119,387.189483 C31.2299119,387.189483 43.6003514,339.652254 60.0579356,303.56067 C68.0417566,286.048188 80.3072928,267.42689 87.627114,256.917174 C92.4046306,264.016639 97.1124071,271.858635 101.145634,277.32711 C109.731334,288.963224 119.885315,297.604598 129.797842,310.930307 C136.553293,320.003603 141.339014,336.405512 148.979407,346.117022 C170.503433,373.42189 185.658804,399.590398 203.402192,423.291617 C219.678685,445.016659 240.806538,455.261478 256.55441,467.767883 C274.21282,481.792168 286.804788,495.872129 289.74561,500.81843 C304.43917,525.479606 360.727952,504.86455 394.466527,477.615358 C413.488684,462.263659 445.950832,428.368608 427.321916,405.140922 Z M89.1321013,135.906872 C87.9857785,146.146417 96.7525684,155.033349 112.154082,157.406284 C116.109365,158.017538 120.385219,158.2965 124.690961,158.352176 C119.977324,161.927108 114.103886,164.051556 107.731128,164.051556 C92.2088874,164.051556 79.6221938,151.464863 79.6221938,135.94731 C79.6221938,120.419794 92.2094739,107.843063 107.731128,107.843063 C114.994689,107.843063 121.612417,110.59752 126.598569,115.118345 C105.994063,120.279728 90.1407012,126.875772 89.1321013,135.906872 Z M63.9382021,202.590504 C54.0256753,213.322921 60.4599684,230.247005 75.5702127,242.266398 C76.6016687,243.08453 77.6577392,244.086683 78.7296329,245.233006 C68.9138049,246.34651 58.806122,242.246472 52.6589961,233.635573 C43.6413749,221.003167 46.5769218,203.455521 59.2140164,194.432625 C68.670007,187.688309 80.8728346,187.63615 90.1952046,193.330842 C80.7849264,192.59886 71.1033047,194.83583 63.9382021,202.590504 Z" id="Shape"></path>
            </g>
        </g>
    </g>
</svg>